<svg xmlns="http://www.w3.org/2000/svg" viewBox="0 0 120.3 260"><rect x="0.5" y="0.5" width="119" height="259" rx="9.5" fill="none" stroke="#44f1a6"/><path d="M3.6,39.7l-3,1.5V69.7l1.5-1.5,5.5-5,5.5-2,5,.5,4.5,2,2-2,5-3,4.5.5,5,3.5,1.5,1,3.5-1.5,3.5.5,2.5,2.5-2-6-3.5-6-4.5-4.5-6-4-7.5-3.5-11-2.5h-6Z" transform="translate(0.4 -0.2)" fill="#1d3f30"/><path d="M70.1,98.2l-2,7.5.5.5,1.5-2.5,4-2.5,5-.5,2.5,1,1-2,6-4.5,5.5-.5,6,2.5,4,2.5,2.5-1.5,6.2-2h5.8V66.7l-9,.5L99.1,70.7l-9.5,4.5-8,6-5.5,6-4,6.5Z" transform="translate(0.4 -0.2)" fill="#1d3f30"/><path d="M66.1,30.7l-1,4.5,1,.5h1.5l1-1.5,1.5-.5,1,.5.5-1,2.5-.5,2.5,1.5,2.5-1,2.5,2,1,1,1.5-.5,1.5.5,1,2,1,.5,1.5,1v-5l-3-5-4-2.5-4-1H73.6l-4.5,2Z" transform="translate(0.4 -0.2)" fill="#1d3f30"/><path d="M.1,71.7a12,12,0,0,1,1-1.9m21.5-6.1a14.4,14.4,0,0,0-12.5-1.5,18.8,18.8,0,0,0-9,7.6m21.5-6.1c1.1-1.7,4.6-5,9-5s7.5,3.3,8.5,5m-17.5,0,7.5,61.5m10-61.5a11,11,0,0,1,5-1.5c2.5,0,5.5,1,5.5,7.5m-10.5-6-7.5,61m18-55c0,5.2-9,14.5-13.5,18.5-2,.3-6.6,1.5-9,3.5s-5,4.5-6,5.5M50.6,69.7c.1-6.2-3.7-20.2-20.5-27s-27-3.8-30-1.5M50.6,69.7,35.1,125.2m-13-28c-2.4-.2-7.6-.2-10,1a54.1,54.1,0,0,0-7.5,5l-4.5-.5m22-5.5,6.5,28M1.1,69.8l26.5,56.4M.1,98.2l25,28M.1,110.7l23,17.5L.1,115.7m68-6a8.7,8.7,0,0,1,5.5-8c4.4-1.6,7.1-.7,8,0m-13.5,8c-.4-5.5,2.2-19.1,15-29.5,16-13,30.5-13.5,36-13.5m-51,43c.5,2.3,2.1,7.6,4.5,10m9-18c1-2.3,4.4-7,10-7s10.6,3.3,12.5,5m-22.5,2,17,80m5.5-82a20.1,20.1,0,0,1,10.5-3.5c4.4,0,4.8.7,4.5,1m-15,2.5-3,83m-28.5-63a47.6,47.6,0,0,0,6,5c2.5,1.8,7.8,6.1,9,8.5,1-.3,4.5-.3,10.5,2.5s9.5,6.2,10.5,7.5m-36-23.5,23,61.5m13-38,10.5-.5-16.5,41.5Zm10.5,22.5-14,18.5m14-6.5-12,8M65.6,37.2a1.1,1.1,0,0,1,.5-1.5,1.1,1.1,0,0,1,1.5.5m-2,1c-1-3.7-.1-11,11.5-11s12.8,10,12,15m-23.5-4c.6,1.7,3.7,5.2,10.5,6s11.5-1,13-2m-23.5-4,8,15m-6-16a2.6,2.6,0,0,1,1.5-2.5,1.6,1.6,0,0,1,2,.5m-3.5,2,6,16m-2.5-18a2.5,2.5,0,0,1,2.5-1.5,3.9,3.9,0,0,1,3,1.5m-5.5,0,2.5,18m3-18a3.1,3.1,0,0,1,3.5-.5,5.2,5.2,0,0,1,2.5,2.5m-6-2-3,18m9-16a2.9,2.9,0,0,1,3,0,2.3,2.3,0,0,1,1,2.5m-4-2.5-9,16m13-13.5c.5-.2,1.6-.3,2,.5a5.1,5.1,0,0,1,.5,2m-2.5-2.5-13,13.5m15.5-11-15.5,11" transform="translate(0.4 -0.2)" fill="none" stroke="#44f1a6"/><path d="M78.3,60.9c-1.2,3.8-4.8,6-7.8,5s-4.7-4.7-3.5-8.6,4.7-5.9,7.8-5S79.5,57.1,78.3,60.9Z" transform="translate(0.4 -0.2)" fill="#1d3f30" stroke="#44f1a6"/><path d="M77.3,60.5c-1.2,3.8-4.6,5.9-7.5,4.9s-4.6-4.6-3.4-8.4S71,51.2,74,52.1,78.5,56.7,77.3,60.5Z" transform="translate(0.4 -0.2)" fill="#1d3f30" stroke="#44f1a6"/><path d="M76.2,60.2c-1,3-3.7,4.7-6,3.9s-3.6-3.6-2.7-6.6,3.7-4.7,6-4S77.2,57.2,76.2,60.2Z" transform="translate(0.4 -0.2)" fill="#182922" stroke="#44f1a6"/><path d="M71.5,60l-.2,1.3c1.2.2,2.4-1,2.7-2.8s-.5-3.3-1.8-3.5a2,2,0,0,1,1.2,2.3,2.4,2.4,0,0,1-.8,1.5h0A1.3,1.3,0,0,1,71.5,60Z" transform="translate(0.4 -0.2)" fill="#44f1a6"/><path d="M72.6,58.8h1c.3-1.7-.5-3.3-1.8-3.5s-2.5,1.1-2.7,2.9c.1-1.2.9-2,1.7-1.9a1.7,1.7,0,0,1,1.1.9h0C72.4,57.4,72.7,58.1,72.6,58.8Z" transform="translate(0.4 -0.2)" fill="#44f1a6"/><path d="M71.9,57.3l.2-1.3c-1.3-.2-2.5,1-2.8,2.8s.6,3.3,1.8,3.5c-.8-.1-1.3-1.2-1.1-2.3a2,2,0,0,1,.7-1.5h0A1.3,1.3,0,0,1,71.9,57.3Z" transform="translate(0.4 -0.2)" fill="#44f1a6"/><path d="M70.7,58.5h-1c-.2,1.7.6,3.3,1.8,3.5S74,60.8,74.3,59c-.2,1.2-1,2-1.8,1.9a1.5,1.5,0,0,1-1-.9h0A1.2,1.2,0,0,1,70.7,58.5Z" transform="translate(0.4 -0.2)" fill="#44f1a6"/><path d="M22,147.8c4.9,7.3,13.7,9.7,19.7,5.7s7-13.1,2.1-20.3-13.7-9.7-19.7-5.7S17.1,140.6,22,147.8Z" transform="translate(0.4 -0.2)" fill="#1d3f30" stroke="#44f1a6"/><path d="M23.7,146.4c4.8,7.2,13.4,9.6,19.2,5.7s6.7-12.8,1.9-19.9-13.4-9.5-19.1-5.6S18.9,139.3,23.7,146.4Z" transform="translate(0.4 -0.2)" fill="#1d3f30" stroke="#44f1a6"/><path d="M25.9,145.2c3.8,5.7,10.7,7.6,15.3,4.5s5.4-10.2,1.6-15.9-10.8-7.7-15.4-4.6S22,139.4,25.9,145.2Z" transform="translate(0.4 -0.2)" fill="#182922" stroke="#44f1a6"/><path d="M35.8,141.5l1.2,2.7c-2.4,1.1-5.7-.7-7.2-4.1s-1-7,1.5-8.2c-1.6.8-2,3.2-1,5.4a5.1,5.1,0,0,0,2.5,2.5h0C33.4,141.2,34.8,142,35.8,141.5Z" transform="translate(0.4 -0.2)" fill="#44f1a6"/><path d="M32.8,139.8l-2,.9c-1.6-3.3-.9-7,1.6-8.2s5.7.7,7.3,4.1c-1.1-2.2-3.2-3.4-4.8-2.6a2.7,2.7,0,0,0-1.5,2.4h0C32.4,136.9,32.1,138.4,32.8,139.8Z" transform="translate(0.4 -0.2)" fill="#44f1a6"/><path d="M33.4,136.4l-1.3-2.7c2.5-1.1,5.7.7,7.3,4.1s.9,7.1-1.5,8.2c1.6-.7,2-3.1,1-5.3a5.7,5.7,0,0,0-2.5-2.6h0A2.6,2.6,0,0,0,33.4,136.4Z" transform="translate(0.4 -0.2)" fill="#44f1a6"/><path d="M36.4,138.1l2-.9c1.5,3.4.9,7.1-1.6,8.2s-5.7-.7-7.3-4c1.1,2.1,3.2,3.3,4.7,2.6a3,3,0,0,0,1.6-2.5h0C36.8,141,37.1,139.5,36.4,138.1Z" transform="translate(0.4 -0.2)" fill="#44f1a6"/><path d="M114,215.5c-5.6,12.7-18.8,19.1-29.3,14.4S70,211.2,75.6,198.5s18.9-19.1,29.4-14.4S119.7,202.8,114,215.5Z" transform="translate(0.4 -0.2)" fill="#1d3f30" stroke="#44f1a6"/><path d="M111,213.8c-5.5,12.5-18.4,18.7-28.6,14.2s-14.2-18.3-8.7-30.8,18.4-18.7,28.7-14.2S116.6,201.3,111,213.8Z" transform="translate(0.4 -0.2)" fill="#1d3f30" stroke="#44f1a6"/><path d="M107.4,212.4c-4.5,10.1-14.9,15.1-23.1,11.4s-11.4-14.6-6.9-24.7,14.8-15.1,23-11.5S111.8,202.3,107.4,212.4Z" transform="translate(0.4 -0.2)" fill="#182922" stroke="#44f1a6"/><path d="M90.6,209.3l-1.2,4.5c4.1,1.2,8.7-2.6,10.2-8.3s-.5-11.2-4.6-12.3c2.6.7,4,4.3,3,8a9,9,0,0,1-3.2,4.7h0C94.2,208.2,92.3,209.7,90.6,209.3Z" transform="translate(0.4 -0.2)" fill="#44f1a6"/><path d="M94.8,205.9l3.3.9c1.6-5.8-.5-11.3-4.6-12.4s-8.7,2.6-10.3,8.3c1-3.7,4-6.1,6.7-5.4a4.9,4.9,0,0,1,3,3.5h0C94.6,201.2,95.5,203.5,94.8,205.9Z" transform="translate(0.4 -0.2)" fill="#44f1a6"/><path d="M92.9,200.8l1.3-4.6c-4.2-1.1-8.7,2.6-10.3,8.3s.6,11.3,4.7,12.4c-2.7-.7-4-4.3-3-8a8,8,0,0,1,3.1-4.7h0C89.3,201.9,91.2,200.3,92.9,200.8Z" transform="translate(0.4 -0.2)" fill="#44f1a6"/><path d="M88.7,204.2l-3.3-.9c-1.5,5.7.6,11.3,4.7,12.4s8.7-2.7,10.2-8.4c-1,3.7-3.9,6.1-6.6,5.4a4.7,4.7,0,0,1-3.1-3.4h0C88.9,208.8,88.1,206.6,88.7,204.2Z" transform="translate(0.4 -0.2)" fill="#44f1a6"/></svg>