<svg viewBox="0 0 64 64" fill="none" xmlns="http://www.w3.org/2000/svg">
<mask id="path-1-outside-1_4138_1954" maskUnits="userSpaceOnUse" x="7" y="4.33331" width="50" height="56" fill="black">
<rect fill="white" x="7" y="4.33331" width="50" height="56"/>
<path fill-rule="evenodd" clip-rule="evenodd" d="M34.4023 5.96926C32.917 5.12133 31.087 5.12133 29.6017 5.96926L10.4032 16.9297C8.9185 17.7773 8.00391 19.3435 8.00391 21.0385V42.9615C8.00391 43.1453 8.01466 43.3276 8.03574 43.5076L8 43.5617C8 44.8841 8.70884 46.1049 9.85724 46.7606L29.6017 58.0307C31.087 58.8786 32.917 58.8786 34.4023 58.0307L53.6007 47.0703C55.0855 46.2226 56.0001 44.6564 56.0001 42.9615V21.0385C56.0001 19.3435 55.0855 17.7773 53.6007 16.9297L34.4023 5.96926ZM32 20.6914L15.5 46.0826L16.5 46.7606L33.238 20.6914H41.0174L23.25 50.3654L31.2786 54.9503C31.7737 55.233 32.3839 55.233 32.8791 54.9503L39.6329 51.0934L31.1973 38.5913L36.5 29.5L47.5 46.7606L48.4072 46.0826L37.0768 28.6866L41.0365 22.123L52.6772 39.3935L52.6772 42.7313V21.0309C52.6772 20.466 52.3724 19.944 51.8776 19.6614L32.8791 8.812C32.3839 8.52922 31.7737 8.52922 31.2786 8.812L12.2801 19.6614C11.7853 19.944 11.4805 20.466 11.4805 21.0309V38.2968L20.8693 24.0942C22.2728 21.9711 24.6652 20.6914 27.2308 20.6914H32Z"/>
</mask>
<path fill-rule="evenodd" clip-rule="evenodd" d="M34.4023 5.96926C32.917 5.12133 31.087 5.12133 29.6017 5.96926L10.4032 16.9297C8.9185 17.7773 8.00391 19.3435 8.00391 21.0385V42.9615C8.00391 43.1453 8.01466 43.3276 8.03574 43.5076L8 43.5617C8 44.8841 8.70884 46.1049 9.85724 46.7606L29.6017 58.0307C31.087 58.8786 32.917 58.8786 34.4023 58.0307L53.6007 47.0703C55.0855 46.2226 56.0001 44.6564 56.0001 42.9615V21.0385C56.0001 19.3435 55.0855 17.7773 53.6007 16.9297L34.4023 5.96926ZM32 20.6914L15.5 46.0826L16.5 46.7606L33.238 20.6914H41.0174L23.25 50.3654L31.2786 54.9503C31.7737 55.233 32.3839 55.233 32.8791 54.9503L39.6329 51.0934L31.1973 38.5913L36.5 29.5L47.5 46.7606L48.4072 46.0826L37.0768 28.6866L41.0365 22.123L52.6772 39.3935L52.6772 42.7313V21.0309C52.6772 20.466 52.3724 19.944 51.8776 19.6614L32.8791 8.812C32.3839 8.52922 31.7737 8.52922 31.2786 8.812L12.2801 19.6614C11.7853 19.944 11.4805 20.466 11.4805 21.0309V38.2968L20.8693 24.0942C22.2728 21.9711 24.6652 20.6914 27.2308 20.6914H32Z" fill="#1D3F30"/>
<path fill-rule="evenodd" clip-rule="evenodd" d="M34.4023 5.96926C32.917 5.12133 31.087 5.12133 29.6017 5.96926L10.4032 16.9297C8.9185 17.7773 8.00391 19.3435 8.00391 21.0385V42.9615C8.00391 43.1453 8.01466 43.3276 8.03574 43.5076L8 43.5617C8 44.8841 8.70884 46.1049 9.85724 46.7606L29.6017 58.0307C31.087 58.8786 32.917 58.8786 34.4023 58.0307L53.6007 47.0703C55.0855 46.2226 56.0001 44.6564 56.0001 42.9615V21.0385C56.0001 19.3435 55.0855 17.7773 53.6007 16.9297L34.4023 5.96926ZM32 20.6914L15.5 46.0826L16.5 46.7606L33.238 20.6914H41.0174L23.25 50.3654L31.2786 54.9503C31.7737 55.233 32.3839 55.233 32.8791 54.9503L39.6329 51.0934L31.1973 38.5913L36.5 29.5L47.5 46.7606L48.4072 46.0826L37.0768 28.6866L41.0365 22.123L52.6772 39.3935L52.6772 42.7313V21.0309C52.6772 20.466 52.3724 19.944 51.8776 19.6614L32.8791 8.812C32.3839 8.52922 31.7737 8.52922 31.2786 8.812L12.2801 19.6614C11.7853 19.944 11.4805 20.466 11.4805 21.0309V38.2968L20.8693 24.0942C22.2728 21.9711 24.6652 20.6914 27.2308 20.6914H32Z" stroke="#44F1A6" stroke-width="2" mask="url(#path-1-outside-1_4138_1954)"/>
</svg>
