<svg viewBox="0 0 64 64" fill="none" xmlns="http://www.w3.org/2000/svg">
<path d="M11.9213 47.2314L11.9212 47.2313C11.4796 46.9404 11.1976 46.4494 11.1678 45.9081L11.1677 45.908C11.1567 45.7086 11.2167 45.4409 11.4228 44.9884C11.6267 44.5407 11.9421 43.9764 12.3828 43.1897L12.3832 43.1891L12.391 43.1751L12.3914 43.1745L28.8222 13.844L28.8222 13.844C29.2737 13.038 29.5973 12.4612 29.8775 12.0464C30.1598 11.6285 30.3566 11.4405 30.5279 11.351L30.5279 11.351C30.9977 11.1056 31.554 11.1052 32.0241 11.3499L32.0242 11.35C32.1956 11.4391 32.3926 11.6269 32.6755 12.0443C32.9562 12.4587 33.2806 13.035 33.7333 13.8403L33.7333 13.8403L37.5162 20.5703L37.5163 20.5705L37.5229 20.5821L37.523 20.5823C38.1895 21.768 38.4699 22.2765 38.5933 22.8029C38.7318 23.3942 38.732 24.0102 38.5941 24.6014L38.5941 24.6014C38.4712 25.128 38.1912 25.6367 37.5255 26.8232L37.5255 26.8233L27.7 44.3375L27.7 44.3375C27.0244 45.5421 26.7324 46.0525 26.3443 46.4299L26.6929 46.7884L26.3443 46.4299C25.9085 46.8537 25.3809 47.1653 24.8051 47.3398C24.293 47.4949 23.7157 47.5 22.3525 47.5H14.8479C13.9491 47.5 13.3073 47.4996 12.8223 47.458C12.3351 47.4161 12.0815 47.337 11.9213 47.2314ZM36.7237 45.8969L36.7237 45.8968C36.714 45.6968 36.7765 45.4278 36.9887 44.9728C37.1997 44.5203 37.5259 43.9492 37.9821 43.1517L37.5481 42.9034L37.9821 43.1517L42.3253 35.5592C42.7758 34.7716 43.0985 34.2085 43.3775 33.8034C43.6582 33.3958 43.8537 33.2117 44.0242 33.1235C44.4908 32.8822 45.0416 32.8818 45.5087 33.1224C45.6792 33.2102 45.8749 33.394 46.1562 33.8012C46.4321 34.2007 46.7507 34.754 47.1933 35.525L47.1935 35.5255L47.2108 35.5557L51.5684 43.1481C52.0264 43.9461 52.3538 44.5175 52.5658 44.9704C52.7788 45.4257 52.8418 45.6949 52.8323 45.8951C52.8062 46.4395 52.5252 46.9347 52.0819 47.2288L52.3583 47.6454L52.0819 47.2288C51.9215 47.3352 51.6661 47.4153 51.1736 47.4575C50.6837 47.4996 50.0349 47.5 49.1266 47.5H40.4259C39.519 47.5 38.8712 47.4996 38.3819 47.4576C37.8902 47.4154 37.6349 47.3354 37.4744 47.229C37.0314 46.9355 36.7502 46.4408 36.7237 45.8969Z" fill="#1D3F30" stroke="#44F1A6"/>
</svg>
