<svg xmlns="http://www.w3.org/2000/svg" viewBox="0 0 120 260"><defs><linearGradient id="a" x1="60" y1="197.23" x2="60" y2="55.66" gradientUnits="userSpaceOnUse"><stop offset="0" stop-color="#1d3f30" stop-opacity="0"/><stop offset="1" stop-color="#1d3f30"/></linearGradient><linearGradient id="b" x1="71.98" y1="56.15" x2="54.02" y2="40.16" gradientTransform="matrix(1, 0, 0, -1, 0, 260)" gradientUnits="userSpaceOnUse"><stop offset="0" stop-color="#1d3f30"/><stop offset="1" stop-color="#1d3f30" stop-opacity="0"/></linearGradient></defs><rect x="0.5" y="0.5" width="119" height="259" rx="9.5" fill="none" stroke="#44f1a6"/><path d="M119.5,102.5V81.1l-3.8-2.8-5.9-3.4-7.7-3.8-7.9-2.9-.9-.3-1.4-.3-6.2-1.4h-.2l-2.6-.6H80.6l-10.1-.6H69l-9.1.7h-1l-8.8,1.8-1.1.3-1.3.4-6.2,2.1h-.3l-7.6,3.7-7.5,4.2L21,82l-.5.3-.5.4-6.1,5.5-.3.2-.2.3L8.2,94.3,5.8,97.2l-.4.4-.9.7h0v-.4l1.5-3.6,2.5-5.4.2-.5L9,88l3.6-5.7h0l.4-.7.6-.7,4.2-5.1L24,69.8l6.8-5.1.4-.2.4-.3h.1l5.4-3.1.3-.2,6.5-2.8L50.3,56h0l.9-.2-3.3.2h-.7l-1.7.4-8,1.9h-.7l-.9.3h0l-6.2,2-1.2.4-.7.3-8.9,3.8-.3.2-.3.2h-.1l-7.1,3.9-1.5.9-1,.8L.5,77.3V178.2h0l.8-.3L5,176.7l2.2.5h.1l.4-.4.3-1.3,3.4-1.9,6.4-2.9,3.8-.8h.2l.6-.2-.8-.3V169l.2-.7h0l.2-.4,2.7-4.8-.3-1.3v-.2h-.1l-.7-3.8-.5-4.3h0v-.6h0l.2-4.8h0l.5-3,.3-1.8.5-1.2h0l1.1-2.8.9-2.2h.1v-.4l.3-.5h0l2.1-3.4h.1l.4-.7-1.6,1h0l-.6.4-.4.2-1.3,1.2-.5.4H25l-.5.5h0l-.8.7-.7,1.1h-.2l-2.6,3.8-1.8,2.9-1.1,2.4.8,1.6h0l1,2.1h0l.3.7v.7a.4.4,0,0,1,.1.3v.6h-.1l-.4.9-1,.4h-.1l-.5.2-1.6-.8v4a6.2,6.2,0,0,0-.3,1h0c-.1.3-.1.6-.2.8h0a.8.8,0,0,0-.1.4c0,.1-.3.4-.5.6h0l-.3.2-1.3.8h-.2l-.3.2h-.3l-1.6.5-.7-.2h-.1l-.2-.3-.2-.5v-.3H9.4l-.6.4-1.4.3-.6-.6-.2-.2-.2-2.4.2-1.3h0v-.2h0l-.5.5H6l-.9.4H5l-.8-.3-.2-.7H4v-.2H4l.2-1.4.4-1,.4-1.2.3-.8a4.2,4.2,0,0,1,.4-1h0l2-5,3.7-8.2,2.7-4.8,3.1-5.9h.1l.8-1.5.4-.6h0l2.9-4.2h0l.2-.3h.2l5.2-4.6.7-.6,7.7-5.3,6.7-4,3.8-1.9h0l.5-.3h.3l3.4-.7h0l-.3-1.3L49,98.6l.2-2.8h0v-.4l.2-.5h0l.6-1.6,1.2-2.7h.1v-.2h.1a.1.1,0,0,0,.1-.1h.1l1.2-1.6h.2l2.6-2L58.1,85l2-.5h.8l3.1.2,4.2,1.4.9.4h0l1.5.9,1.2,1h.1l.2.2h.2l2.3,3.1h0v.2l1,2.5.3.8h0v.4h0v4.6l-.2,1v.2h0l-.8,2h0l-.2.5-1,1.3c0,.1,0,.2-.1.2l-.2.3-.8,1.2-1.1,1h0l.5.6,2.7,2.4H75v.2l.3.2h.1l3,4,4.4,6.1.5.4h0l.5.4,1.6-.2,3.2-2.2.8-.4h.2l4.6-2.9.2-.3.4-.7.2-.8h.1l.9-1.3v-.2h.2l1.7-1.1-1.2.7h0l-1,.6L93,104.7l-1.6-.8-1.1-1.6h0l-.2-.2v-.6h0v-.8h0v-.7h0l.4-1.6.6-.5,1.3,3.2,2.4-.8-1.3-3.8,1.3.6h.1l1.2,1.5.8,1.9h0v2.3l-.2.7h0l2.6,7.8h0l.6-.2.8.5.5.8.3,2.1.2,1.7v.2l.4.9.2.4-.3.7v.7l1.1,2.7h0l.8,2,.3.3.2.2.3.3,1.3,1.4h.2v.4l.2,1h0l.2.8h0l-.2,1.6-.2.3h0l-.6,1.1-1.4-3.8-.5.2h0l-1.9.6.7,1.9v.2l.3.9h0v.7h0l-.6-.4h0l-1.5-.9h0L99.1,130v-1.5h0v-.6l1-2h0l-.4-1.2h0l-.6-1.5H99l.7-1.1-.3.3h-.3l-.2.5h0l-.6.9-.3.3-.6.9-2.1,2.6-.4.5-.6.7-.7.9-1.5,1.8-.7.9-.3.4-.2.3-2.4,2.9v.3h0l.7,1.7,1.5,3.6h0l.3.7.2,1h0l1,5.1h0l.2,1.1v1h0l-.2,5.3-.6,3.8h0l-.2,1.4-.5,1.3h0l-1.6,4.1L87,170.8h0v.3l-.2.2h-.1l-4.5,5.5h0l-.3.3-.4.3h0l-2,1.5v.2h0v3.8h-.1v3.1l-.2,3.3v.2l-.3,3.4h1.1l.8,1.3.2,1h0v.2h0v.7h-.1v.2h0l6.4-1.3,14.4-3.2h.5l2.9-.7,4-1.2h.9l8.5-2.6,1.4-.5V106.6h-.1l-1.9-2.1-1.1-1h-.1l-4-3.6-.4-.3.3-.3,7.3,3.6Z" fill-rule="evenodd" fill="url(#a)"/><path d="M94.6,100.2l-.5.2,4,12,1-.8-2.6-7.9.2-.6V101l-.2-1.6-1.4-2.1-1.8-.8Z" fill="#276c4e"/><path d="M103.4,128.7l-2.7-7.7.8-1.4,1.4,3.2.8,1.9,1.3.8.8,1.6.5,1.9-.2,1.8-.8,1.4-1.4-3.8Z" fill="#276c4e"/><path d="M.5,77.2a78,78,0,0,1,8.1-6.1l2.5-1.7c2.4-1.4,4.7-2.7,7.1-3.9h.1l.6-.4a95,95,0,0,1,8.9-3.8l1.9-.7,6.2-2h0l1.6-.4,8-1.9,2.4-.4a51.7,51.7,0,0,1,5.8-.7h0a.1.1,0,0,1,.1-.1" fill="none" stroke="#44f1a6"/><path d="M119.5,80.9A82.4,82.4,0,0,0,94.2,68.2l-2.3-.6a62.1,62.1,0,0,0-6.2-1.4h-.2l-4.9-.7a84.3,84.3,0,0,0-10.1-.6H69a71.1,71.1,0,0,0-9.1.7h-1c-3,.5-5.9,1.1-8.8,1.8l-2.4.7c-2.1.6-4.1,1.3-6.2,2.1h-.3A78.8,78.8,0,0,0,21,82l-1,.7a77.6,77.6,0,0,0-6.1,5.5,1.2,1.2,0,0,0-.5.5,85.7,85.7,0,0,0-8,8.9L4.2,99.1l.3-.8c.1-.1.1-.2.1-.4a74.1,74.1,0,0,1,4-9L9,88a55,55,0,0,1,3.6-5.7h0l1-1.4c1.4-1.8,2.8-3.6,4.2-5.1a67.3,67.3,0,0,1,13-11l.8-.5h.1a61.4,61.4,0,0,1,5.4-3.1l.3-.2A71.8,71.8,0,0,1,50.3,56h0l3.4-.7h0a.1.1,0,0,1,.1-.1h0" fill="none" stroke="#44f1a6"/><path d="M119.5,106.6h-.1l-3-3.1h-.1l-4-3.6-1.4-1.1a52.9,52.9,0,0,1,8.6,3.9" fill="none" stroke="#44f1a6"/><path d="M.5,50.6a115.5,115.5,0,0,1,119,.4" fill="none" stroke="#44f1a6"/><path d="M30.5,130.8l-.2.2h0l-.9,1.2h-.1a23.9,23.9,0,0,0-2.1,3.4h0l-.4.9h-.1a37.2,37.2,0,0,0-2,5h0c-.3,1-.5,2-.8,3s-.3,2-.5,3h0a29.5,29.5,0,0,0-.2,4.2v.6h0v.6h0a36,36,0,0,0,1.2,8.1h.1a7.4,7.4,0,0,0,.4,1.4h0m11.6,16.4h0a34.9,34.9,0,0,0,33,5.3m19-48.8v.2h0a31.1,31.1,0,0,1,2.2,5.3h0a10.9,10.9,0,0,1,.5,1.7h0a28.8,28.8,0,0,1,1,5.1h0c0,.7.1,1.4.1,2.1h0a8.1,8.1,0,0,1,.1,1.6,30.8,30.8,0,0,1-.9,7.5h0a26.8,26.8,0,0,1-.7,2.7h0a30.1,30.1,0,0,1-3.9,8.3h0l-.3.5h-.1a33.8,33.8,0,0,1-4.5,5.5h0l-.7.6h0l-2,1.7" fill="none" stroke="#44f1a6"/><path d="M49.3,155.9l-.5.8L46.1,162l-4,7.8-4.8,8.5-.8,1.2-1.2,1.9h-.1l-3,4.8L29,190.8l-2.7,2.7-.2.3-.6.5-.3.3h0l-3.1,2.6-5.9,5.1-1.6,1.3-4,3.2-.3.2-.3.2-2.6,2L.5,214.5v-6.8l4.8-3.5,5.2-4.4.3-.3h.4l4.2-3.6h.1l2.9-1.9,1.8-1.3,1.9-1.5h.2l2.2-1.8h0l.4-.3,2.2-2.1h.1l1-1,.3-.4h0l1.6-2.4,2.7-7.5.6-2,.3-.7v-.3l.6-1.8.3-.8,1-2.9,1.8-4.6.7-.9h.1l1.1-1.6,2.8-2.8v-.2h.2l1.6-1.2.7-.5h.3l1.2-.2Z" fill="#1d3f30"/><path d="M53.5,215.6c-3.2,1.1-7,4.2-8.5,5.6l9.9,1.8,5.3-2,3.5-4.6,4.8-6.6,3.7-2.7,2.7-1.3.5-1.1.5-1.3a11,11,0,0,1-3.2.2,5.1,5.1,0,0,1-1.8-.8,14.4,14.4,0,0,1-3.2,2.4c-1.9,1.1-4.3,4.3-4.8,5.1S57.5,214.3,53.5,215.6Z" fill="url(#b)"/><path d="M14.9,145.6v2l1.3,1.9,1.6,1.9,1.6,1-.2-1.6-1.4-2.6-.8-1.6.3-.6,2.1-3.4,2.7-4,2.7-3.2,2.9-2.4,5.9-4.3,2.4-1.3.2-1.9v-1.1l-5,2.2-3.8,2.1-2.6,2.1-3.2,3.5-1.9,2.9-1.3,2.4-2.7,4Z" fill="#276c4e"/><path d="M69.5,93.3c-.6.4-.8,2.8-.8,4a9.4,9.4,0,0,0,0,2.4c.3,1,.8,1.3,1.6.7s1.1-1.8,1.1-3.4a13.8,13.8,0,0,0-.5-3.5A1,1,0,0,0,69.5,93.3Z" fill="#30986b"/><path d="M80.7,194.8a1.5,1.5,0,0,0-2.1-1.3v1.9a1.2,1.2,0,0,0,.5,1.3c.7.4.8,1.6.8,2.1A6.6,6.6,0,0,0,80.7,194.8Z" fill="#30986b"/><path d="M73.5,103.7a26.2,26.2,0,0,1-2.6,3.9l.8.8,4-5.3.5-3.7-.3-4.5-1-3L73.5,93l.6,1.6c.2,1.2.8,3.9.8,4.5A29.9,29.9,0,0,1,73.5,103.7Z" fill="#30986b"/><path d="M83.7,123.1l-.8,1.9-1.1.2-.8-.5-.8-1.1-1.1-1.3-2.4-2.9-2.6-3.2-3-3.5-2.6-4v-1.1l.5-.5h1.3l1.6,1.6,3,2.7,2.4,2.9,3.2,4.3Z" fill="#30986b"/><path d="M83.7,136.7V138l.8.6,1-.3,1.9-1.3,3.2-3.8,1.1-1.3,1.8-2.4,2.4-2.9,2.4-3,1.1-1.6,1.3-1.3,1.1-1.6v-1.3l-.3-.8-.5.2-1.6,1.4-1.1,1.6L97,122.3l-2.9,2.9-3.8,4L85,134.8Z" fill="#276c4e"/><path d="M78.6,196.7a9,9,0,0,1-1.9,2.7h-.5c-.3,0-.5-.8-.8-1.4a31.5,31.5,0,0,1-1.3-6.4c-.2-1.7-.3-4.9-.3-6.4l.5-4.8c.3-1.8.9-5.9,1.1-7.2a14.1,14.1,0,0,0-.3-4.2l-.8-3.2-2.4-4.3-2.6-5.9-2.7-6.4-2.1-3.4a40,40,0,0,1-3-4.3,10.3,10.3,0,0,1-.8-3.7l1.1-4.6c.5-1.9,1.5-6.3,2.1-8.2a15.7,15.7,0,0,1,1.4-3.2l.5.8,2.9,4-.2,7.7c-.1,2.5-.3,7.6-.3,8a38.3,38.3,0,0,0,2.7,5.1l4.2,8.2c1.3,3.1,3.9,9.4,4.3,10.7a14.4,14.4,0,0,1,.3,4.5l-.3,6.4-.3,6.4-.2,6.2-.3,4.8Z" fill="#276c4e"/><path d="M80.5,197.3h0c5.3-1,12.6-2.5,20.8-4.6h.5l6.9-1.9h.9l9.9-3M.5,207.7,2.6,206l7.9-6.2.3-.3h.4c2-1.5,3.5-2.8,4.3-3.5m7.7-25.8c.1-.1.1-.1-.3-.1H20.5c-2.8.2-9.5,3.8-12.5,5.6a3.1,3.1,0,0,1-.3,1.3l-.2.3m15.7-7.2h-.3l-1.2-.7h-.1l.3-.7h0l3-5.3c2.3-4.3,4.8-8.9,5.5-10.6,1.3-3.2,2.4-5.3,3.2-5.6l.3-.2M23.2,169.8a6.4,6.4,0,0,1,2.4,2.4l1.3,2.4M7.5,177c2,1.6,6.3,6.2,7.1,12q.6,3.5.9,6.6h0m.7,6.7h0c-.1-1.3-.3-3.7-.7-6.7m33.8-39.7-.4.8v.2l-1.1,1.9c-1.3,2.4-4.3,8.3-6.7,12.6-1.2,2.1-3.4,6.1-5.7,10h-.1a56.7,56.7,0,0,1-6.2,9.3l-2.7,2.7-.2.3-.9.8m24.1-38.7a6.4,6.4,0,0,1,2.4-.3,2,2,0,0,1,1.1.3m-3.5,0a8.8,8.8,0,0,0-2.9-1.6,2.1,2.1,0,0,0-1.3.2,2.7,2.7,0,0,0-1,.6l-1.6,1.2h0l-.3.3-2.8,2.8a14.2,14.2,0,0,0-1.1,1.6h-.1a67.1,67.1,0,0,0-3.5,8.4l-.3.8-.6,1.8v.3l-.3.7c-1.2,3.8-2.3,7.3-3,9.2a12.3,12.3,0,0,1-1.9,2.7h0l-1.3,1.4h-.1l-2.2,2.1-.3.3h-.1l-2.2,1.8h-.2l-3.7,2.8-2.9,1.9m18.4-49a1.8,1.8,0,0,0,.2-1.4l1.3-2.6a14,14,0,0,1,1-1.6m-2.5,5.6a22.9,22.9,0,0,0,6.9,6.4m-3-17.1a2,2,0,0,1,.3,1.6,12.5,12.5,0,0,1-1.7,3.5m0,0a31.2,31.2,0,0,0,6.5,10.1m-6.5-26.7a53,53,0,0,1,4.1-12m-4.7,19c.2,2.5,1,3.7,1.5,4s.4.2.5.5m-2-4.5a28.3,28.3,0,0,1,.1-4,.4.4,0,0,0,.1-.3m-.2,4.3c.1.6,1.1,2,4.7,2.4m-2.7,2.1a4.3,4.3,0,0,0,2.4,1.3c1.5.5,7,1.8,9.6,2.4m3,16.3a17.5,17.5,0,0,1,4-6.9,35.1,35.1,0,0,1,3.7-3.5m-6.6,11.2-1.1-.8m1.1.8a4.9,4.9,0,0,1,.7,1.1l5.3,6.4c2.5,2.6,5.6,6.4,7.2,8a10.3,10.3,0,0,1,1.4,1.6M53.9,156.7a24,24,0,0,1,4.7-5.3,39.5,39.5,0,0,0,3.2-2.7M36,127.1l-3.7,2.4m3.7-2.4c.1-.4.1-.9.2-1.3h0a5.1,5.1,0,0,0,.2-1.3M15.8,153.5a9.3,9.3,0,0,1-2-3.2m2,3.2a3,3,0,0,0,2.3.9h.1l1-.4c.3-.1.4-.5.4-.9h0c.1-.2,0-.4,0-.7m-3.8,1.1a23.8,23.8,0,0,1-.1,5.3h0c-.1.3-.1.6-.2.8h0l-.3.6-.3.4h0c-.7.7-1.3,1.2-1.8,1.1H13m-.2-8.1a39.4,39.4,0,0,0-.3,6.9,1.9,1.9,0,0,0,.5,1.2m0,0-.2.2h-.1a3,3,0,0,1-1.8.6.8.8,0,0,1-.7-.2h0l-.3-.3c0-.2-.1-.3-.2-.5s-.1-.3-.1-.4m0,0a14.2,14.2,0,0,1-.3-3.1,21.5,21.5,0,0,1,.7-4.8m-.4,7.9-.2.2h0a2.4,2.4,0,0,1-2,.7q-.5,0-.6-.6a11.4,11.4,0,0,1-.2-3.9h0v-.5m.6-4.2c-.2,1.1-.4,2.6-.6,4.2m0,0a3.5,3.5,0,0,1-.6.9H6a1.8,1.8,0,0,1-.9.4H4.8c-.6,0-.8-.4-.8-1v-.3H4a5.9,5.9,0,0,1,.2-1.4l.4-1,.4-1.2.3-.8a4.2,4.2,0,0,1,.4-1h0A116.1,116.1,0,0,1,10.1,141c1.2-2.3,4.5-8.5,7.1-13.1h.1l1.2-2.1h0l2-3.1.9-1.1h0l.3-.4h.1a33.4,33.4,0,0,1,5.1-4.7m0,0,2.1-1.5c2.9-2,11-7.9,16.9-10.2h0l.7-.3h.1a8.2,8.2,0,0,1,2.9-.7h.8M26.9,116.4H27c1.4,1.6,3.3,4.8,2,7.6m0,0a5.2,5.2,0,0,1-1.8,2.2m0,0,1.5,1.6h.1m-1.6-1.6a11.7,11.7,0,0,1-3,1.7m-4.8-.4c.6.7,2.3,1.4,4.8.4m2.2-8.1a6,6,0,0,1-1.1,4.5,4.8,4.8,0,0,1-4.3,1.4m9.9.9L29,124.1M24.2,128l2.3,1.4h.1m3,2-2,1.5-1.7,1.4-.5.4H25l-.6.7h0a7.1,7.1,0,0,0-1.2,1.3l-.2.3h-.2c-2.5,3.3-4.8,7.2-5.8,8.8l1.1,1.8h0a20,20,0,0,1,1,2.1h.1a7.9,7.9,0,0,1,.3,1.3.4.4,0,0,1,.1.3m10-20.9-.8-.7m2.1-.3-1.3,1m1.3-1-1.1-1.3m2.5.3-1.4,1m1.4-1-.9-1.6m5-3.5h-.2l-.5.2h0a24.8,24.8,0,0,0-4.8,2l-2.2,1.2-.7.5h-.1l-1.2.9h-.2l-1.6,1.3h-.2a20.2,20.2,0,0,0-3.1,3.4l-1.1,1.6c-4.3,7.2-6.7,8.7-5.6,11.4a7.4,7.4,0,0,0,.8,1.5h0v.2l.4.5c2,2.7,3.1,3.1,3.4,2.9m48.9,21.4h.8a13.7,13.7,0,0,0,4.8-1m-5.6.8h.1l.2.7m9.8,21.8a2.8,2.8,0,0,1,1.1,3m-1.1-3a11.4,11.4,0,0,1,0-2.9m0,2.9-.8,1.6h0a3.2,3.2,0,0,1-1,1.2h-.3c-.4,0-.7-.5-.8-.8a30.9,30.9,0,0,1-1.7-8.4h0a12.3,12.3,0,0,1-.2-1.9v-3.4a76.1,76.1,0,0,1,1.2-8.7,2.2,2.2,0,0,1,.1-.8l.3-2.6a4.1,4.1,0,0,0,.1-1.1v-.4h0a13.4,13.4,0,0,0-.7-3.9h0a23.3,23.3,0,0,0-1.1-2.8h0c-1-2-2-3.8-2.7-5.3s-2-4.7-3.3-7.5h-.1a33.7,33.7,0,0,0-3.3-6h0l-.5-.7-.4-.5-.3-.4-.2-.3c-.1-.1-.2-.2-.2-.3l-.8-1.2v-.2l-.2-.3a6.5,6.5,0,0,1-.7-2.9h0a7.1,7.1,0,0,1,.1-1.4h0c0-.2.1-.4.1-.7s.9-3.9,1.7-6.7l.3-1.2c.3-1.1.6-2.2.8-3.1l.2-.4h0c.6-2.2,1.2-3.8,1.3-3.4a3.3,3.3,0,0,0,.6,1.2h0c.8,1.2,2.1,2.9,2.9,3.9m9.9,69.6h-.1m-9.8-69.8a74.6,74.6,0,0,0,6.6,7.4l.8.8m-7.4-8.2-.3,6.9m16.8-10.4,4.2-2.8h.2l3.8-2.6,1-.6a1.4,1.4,0,0,0,.6-1.2c0-.2.1-.3.1-.4h0a3.7,3.7,0,0,1,.7-1.2m-10.6,9H83.7m2.1,2.7-.5-2.7m-1.6,0c-.1-.1-.2-.2-.2-.3h-.1a118.8,118.8,0,0,0-8-10.7h-.2l-.3-.3h0l-.2-.2h0l-.9-.9-2.1-1.9h0m12,14.7-.8,1.9v.2M68.2,141.8v.5l1.6,2.9m-1.6-3.4h0a6.8,6.8,0,0,0-2.7.5m3-6.9-.3,6.4m1.6,3.4,3.2,6.2,1.7,3.3h.1l.6,1.3h0a107.2,107.2,0,0,1,4.3,10.5,11.1,11.1,0,0,1,.2,1.9,23.2,23.2,0,0,1-.2,2.4c0,.9-.1,1.9-.2,3.1h0a20.1,20.1,0,0,1-.1,2.4h0v2.5h0c0,1.1-.1,2.3-.1,3.6v.2h-.1v.4m-9.4-38.4h-.2a3.2,3.2,0,0,0-2.2.3m1.4,29.1a18.6,18.6,0,0,1,.5,4c.1,1.2.1,2.9.2,4.8m-.7-8.8a12.7,12.7,0,0,0,5.6,0m-4.9,8.8c.2,4.7.4,10.5.6,12.2a27.2,27.2,0,0,1,.1,3m-.7-15.2c.2.5,1.3,1.5,4.3,1.4h1.3m4.1-1.1h-.1c-.1.2-.4.3-1,.5m1.1-.6c0,1.4-.1,2.7-.2,4h0c-.2,2.1-.4,4.2-.4,5.7m-8.2,6.7c.3,1.3,2,3,5.8,0m-5.3,2.6a6.3,6.3,0,0,1-.5-2.6m0,0c-.1-.5-.1-1.1-.2-1.6m6,4.7a5.6,5.6,0,0,0,2.4-1.8,4.3,4.3,0,0,0,1.1-2.1m0,0c.1-.3.3-.5.4-.8s.1-.2.1-.4V198h0l.2-.6m-1.9-3.8H79a1.1,1.1,0,0,1,.7.2h0a2.6,2.6,0,0,1,.8,1.1,5,5,0,0,1,.2,1.2h0c0,.3-.1.6-.1,1h-.1v.2h0M63.7,134a4.1,4.1,0,0,0,2.7,1.4c1.4.2,1.9.1,2,0h.1m0,0v-1.9h0M64,131.9c.6.6,2.1,1.9,3.1,1.9s1.4-.2,1.4-.3h0m10.4,3.4-2.7-2.1m0,0c.3-.7,1.3-1.7,3.5-2.3m4.2-.6a4.9,4.9,0,0,1,3,.8.1.1,0,0,1,.1.1c1.2.9,1,2.2,3.8.2h.1m-7-1.1a12.5,12.5,0,0,0-4.2.6m4.2-.6v-3.2m7,4.3-3.2,3.7a4.6,4.6,0,0,1-2.1,1.5h-.4l-.6.2m6.3-5.6.2-.3.3-.4.7-.9,1.5-1.8.7-.9.6-.7.4-.5,2.1-2.6.6-.9.3-.3a2.4,2.4,0,0,1,.6-.9m-20,14.1c.4-.7,2.1-2.1,5.8-2.1m-5.8,2.1a8.5,8.5,0,0,0,5.7,1.7m-1.8-13.4-3.1,7.3m19.4-10.1.2-.2h.1l1.1-1h0l.3-.2c.1-.1.3-.3.3-.4h.1V120a.8.8,0,0,0,.2-.4h.1m-2.5,3h0a3.6,3.6,0,0,0-.6-2.4h0a7.1,7.1,0,0,0-1.2-1.3m1.8,3.8-.2.4h0M50.4,103.6c3.1-.4,9.1-.7,13,.3a23,23,0,0,1,4,1.4m-17-1.7a8.1,8.1,0,0,1-.6-1.3,13,13,0,0,1-.8-5.1c.1-.3.1-.8.2-1.4h0l.3-.9h0a18.9,18.9,0,0,1,1.8-4.3h.1v-.3a.1.1,0,0,0,.1-.1h.1a6.1,6.1,0,0,1,1.2-1.6h.2a11.3,11.3,0,0,1,7-3.6h1.4A16.4,16.4,0,0,1,68,85.8l1,.6m2.7,22,.3-.3,1.6-1.9.2-.3c.1,0,.1-.1.1-.2a3.6,3.6,0,0,0,.7-1l.4-.6h0c0-.2.1-.2.1-.3h0a6,6,0,0,0,.8-2h0a6.4,6.4,0,0,0,.2-.9h0c0-.5.1-1,.1-1.5h0V97a4.5,4.5,0,0,0-.1-1.1h0c0-.2-.1-.5-.1-.8h0a4.9,4.9,0,0,0-.4-1.1.4.4,0,0,0-.1-.3h0L74.7,92a.3.3,0,0,1-.1-.2m-2.9,16.6-.8-.7h0M68.8,97.5c0-.1-.1-.1-.1-.2h0c0-1.6.2-4.3,1.4-4.3l.5.2.4.6h0c.1.5.3,1,.4,1.6m-2.6,3.5a3.4,3.4,0,0,0,.2,1.4h0l.3.4m.8-5.6a7.2,7.2,0,0,1,0,3.8m-.8,1.8c.3.2.6.1,1.1-.3a5.1,5.1,0,0,0,1-3.4h0V95.4m-4,9.9a8.3,8.3,0,0,0,1.4-2.2,7.2,7.2,0,0,0,.5-2.4m-1.9,4.6a15,15,0,0,1,2.8,1.8h.2M69,86.4h.1a25.1,25.1,0,0,1,1.3,4.6M69,86.4l1.6,1,1.2,1h.1l.2.2.2.2h0a20,20,0,0,1,2.3,3m-3.2,3.6L73.5,93h.1m1-1.2h0l-1,1h0m11,45.6h-.2a.7.7,0,0,1-.6-.4v-.2a1.3,1.3,0,0,1,0-1.2c.2-.8,1.7-2.4,3.2-4l2.6-2.7,2.1-2.1h.1l4-4.1a10.7,10.7,0,0,0,2.1-2.5l.7-1.3c.1-.1.2-.2.2-.3h.1l.5-.7h.1l.8-.8,1.3-1h.1m0,0a1.9,1.9,0,0,0,.2.8c.1.1.1.2.1.4a1.7,1.7,0,0,1-.1.7,3.1,3.1,0,0,0-.2.8m0-2.7a22,22,0,0,0-.6-3.7c-.1-.2-.1-.4-.3-.6s-.9-1-1.6-.6m-28.7-4.6H69a.7.7,0,0,0-.5.4h0v.5c.2,1.3,4,6,5.9,8.2l2.1,2.7.2.3,3.5,4.3c.3.5,1,1.5,1.6,1.5h1M70.9,107.7c-.2-.2-.4-.3-.5-.5M73.6,93a20.3,20.3,0,0,1,1.2,5h0a12.7,12.7,0,0,1-.1,2h0l-.3,1.3a6.1,6.1,0,0,0-.5,1.2h-.1c-.4.9-.8,1.8-1.2,2.5h0c-.7,1.1-1.4,1.9-1.7,2.4m0,95.1h0a1.2,1.2,0,0,0,.5.5,6.8,6.8,0,0,0,4.5,0h.3m-5.3-.5a28.2,28.2,0,0,0-3.4,2.6h-.1l-1.2,1h-.1a10.6,10.6,0,0,0-2.4,2.6,13.7,13.7,0,0,1-3.2,3.2h-.1a23,23,0,0,1-4.9,2.7h-.1l-.5.2-1.8.7H53l-2.2,1.1h0c-2.6,1.4-5.1,3.2-5.7,4.2h0a.4.4,0,0,0-.1.3m9.9,1.6a16.5,16.5,0,0,0,5-2h0l.5-.4h0c1.3-1,2.1-2.5,3.8-4.8s1.3-1.9,1.8-2.7h0a14.9,14.9,0,0,1,2.5-3.4h0l1.3-1,1.5-.9h0c1.4-.8,2.7-1.3,3.3-1.8l.4-.3c.1-.1.1-.2.1-.4h0a2.5,2.5,0,0,1,.6-1.3h0l.5-.6m-51-8.7c1,.7,6.4,2.4,19.8,3.4a182.2,182.2,0,0,0,25.2.6m25.7-84.5h.2l.3-.3h0l.5-.4h0l1.1-.8h0l.3-.2.4-.2h0l.4-.2h0m-3.2,2.3L93,104.7a3,3,0,0,1-1.6-.8,3.4,3.4,0,0,1-1.1-1.6h0a.8.8,0,0,1-.2-.5.4.4,0,0,1-.1-.3h0a1.9,1.9,0,0,1-.1-.8h0v-.7h0a3.8,3.8,0,0,1,1-2.4l1.3,3.5,2.4-.8-1.3-3.8a2.7,2.7,0,0,1,1.5.7l.6.6h.1l.7,1.1h0l.3.8a4.3,4.3,0,0,1,.1.5h0v.4h0v.2a4,4,0,0,1,0,1.9,3,3,0,0,1-.2,1h0l.2.6,2.4,7.3h0m-.2,11h0v.2h0l.5,1.6h0l.4,1.3h0a6.6,6.6,0,0,0-.9,2.5h0a2.4,2.4,0,0,0,.1,1.5,4.3,4.3,0,0,0,1.4,1.6h0l1.5.9h0l.6.3h.3l-.3-.8-.3-.9v-.2l-.6-1.9,1.8-.6h0l.5-.2,1.4,4a4,4,0,0,0,.6-1.3h0l.3-.9h0v-.5h0a1.3,1.3,0,0,0,.1-.6h0v-.2h0c-.1-.3-.1-.7-.2-1.1a1.7,1.7,0,0,1-.2-.5l-.2-.4-.3-.5h-.1a4.7,4.7,0,0,0-1.4-1.2l-.5-.2-.8-2.3h0l-.3-1h0l-.7-1.9h0M25.2,194.6h0c-2.6,2.5-5.7,5.2-7.4,6.6l-7.2,5.6-.3.2-.3.2L.5,214.4m7-37.4H7.3c-.2.1-.4,0-.7-.1a3.6,3.6,0,0,0-3.2,0L.5,178.2" fill="none" stroke="#44f1a6"/><path d="M94.1,100.4l3.9,12h0m5.4,16.3h-.1l-2.5-7.6v-.2h0" fill="none" stroke="#44f1a6"/><path d="M43.2,107.7c.6-1.1,3.1-3.1,8.2-2.7h1.4m0,0c4.1.4,5.6,1,5.8,1.2m4.3,2.4-1.4-1m1.4,1c1.3,1.3,2.7,3.1,2.4,4.8s-.5,3.1-.5,3.2M46.5,121l.9-2.9a106.1,106.1,0,0,1,5.4-13m-6.7,17.2-1.6,4.6m2-5.9,11.9,1.6c.4.2,1.3.6,1.5,1.1M46.5,121l-.4,1.3m0,0,12,1.6c.3.1,1.1.4,1.3.8m-9,10.7c1.5.4,4.6.8,5.3-1.1L57,130m-2.4,10.2a4.7,4.7,0,0,0,2.7-.4,3.6,3.6,0,0,0,1.6-1.8m4-29.3-3.5,13.1m3.5,1.3-3,11.2" fill="none" stroke="#44f1a6"/><path d="M55,115.4l-.3,1.5a3.2,3.2,0,0,1-2.3-3.9,3.2,3.2,0,0,1,3.5-2.9,2,2,0,0,0-2.3,1.9,2.7,2.7,0,0,0,.4,1.8h0A1.3,1.3,0,0,0,55,115.4Z" fill="#44f1a6"/><path d="M54,113.8l-1.2-.2a3.3,3.3,0,0,1,3.4-3,3.3,3.3,0,0,1,2.3,3.9A2.1,2.1,0,0,0,57,112a1.7,1.7,0,0,0-1.6.6h0C54.8,112.5,54.2,113,54,113.8Z" fill="#44f1a6"/><path d="M55.4,112.6l.3-1.5c1.6.2,2.6,2,2.3,3.9s-1.9,3.2-3.4,2.9a2.1,2.1,0,0,0,2.2-1.9,2.7,2.7,0,0,0-.4-1.8h0A1.3,1.3,0,0,0,55.4,112.6Z" fill="#44f1a6"/><path d="M56.4,114.2l1.3.2c-.4,1.9-1.9,3.2-3.5,2.9s-2.6-2-2.3-3.9a2.2,2.2,0,0,0,1.5,2.6,2,2,0,0,0,1.6-.6h0A1.3,1.3,0,0,0,56.4,114.2Z" fill="#44f1a6"/><path d="M.5,35.4A127.9,127.9,0,0,1,59.7,21a126,126,0,0,1,59.8,15.1" fill="none" stroke="#44f1a6"/><path d="M.5,42.8a122.3,122.3,0,0,1,119,.1" fill="none" stroke="#44f1a6"/><path d="M97.5,26.9l-1.9,5.6" fill="none" stroke="#44f1a6"/><path d="M85.5,238.6v.5h4.3v-.5Zm5.4,5.3v.5h4.2v-.5Zm5.3-2.7v.6h4.3v-.6Z" fill="#44f1a6" fill-rule="evenodd"/></svg>
