<svg xmlns="http://www.w3.org/2000/svg" viewBox="0 0 120 260"><rect x="0.5" y="0.5" width="119" height="259" rx="9.5" fill="none" stroke="#44f1a6"/><path d="M103,259.2H84.3l-6-17-.5-6.5,1-4,2-5,3.5-5.5,2.5,3.5,4.5,8Z" transform="translate(0.2 -0.2)" fill="#1d3f30"/><path d="M118.8,191.7c-4.5,3-13.7,9.2-14.5,10l3,3.5,11.5-8Z" transform="translate(0.2 -0.2)" fill="#1d3f30"/><path d="M52.8,126.7l-.5,6,1,5.5,3,5.5,5,2.5,7,1.5,7-1.5,5-4,3-6,1-7-2.5-6.5-5.5-4.5-7-2-7.5,1.5-5.5,4Z" transform="translate(0.2 -0.2)" fill="#1d3f30"/><path d="M41.3,141.2l-3.5,2.5c2.2,1.9,6.7,3.9,10.5,7s6.6,7,9,9c4.8,4,5.6,16,5.5,21.5.1,3.2.7,7,1.5-3,1-12.5-2.5-15.5-7-24C53.7,147.4,45.1,142.7,41.3,141.2Z" transform="translate(0.2 -0.2)" fill="#1d3f30"/><path d="M118.8,205.2l-7,5,7,9Z" transform="translate(0.2 -0.2)" fill="#1d3f30"/><path d="M.8,211.7a86.4,86.4,0,0,1,11.5-7.4m91,55.4C96.5,244,92,231.4,84.1,221.2m-81.3,1,16-1.2m16-1.3-16,1.3m24.5-1.8c13-1,20.4.5,22,12.5m1,6,4,21.5M18.8,221l4.9,25.2m2.6,13-1.7-8.5m59.5-29.5a55.5,55.5,0,0,0-9.3-9.5,74.7,74.7,0,0,0-11.5-7.5m20.8,17c-3.1,3.7-8.5,13.3-5.3,22.5s4.9,14.2,5.3,15.5M53.8,200.3a55.6,55.6,0,0,0-8.5-1.7m8.5,1.7a41.4,41.4,0,0,0,8.3-12.6m-8.3,12.6a61.5,61.5,0,0,1,9.5,3.9m-25.5-64c-6.8-1-19.2-2.4-28.4,4m28.4-4c-2.4-1.8-6.5-6-4.5-8s13-9.1,18.3-12.5M37.8,140.2a19.5,19.5,0,0,1,3.8,1M.3,156.2a25,25,0,0,1,7.1-10.5m4.9,58.6c5.8-3.1,12.6-5.9,18.5-6.1a88.7,88.7,0,0,1,14.5.4m-33,5.7c-3.9-2-12-7.7-12-14.1m28.5-21.5c-1.2-2.8-2.4-8.8,2-10m0,0c5.5-1.5,16,16,10.5,18m-10.5-18c-.7-.8-2.8-3.4-6-7-4.8-5.6-12.3-7.3-15.4-7.5m21.4,14.5c.1-2.7,1.4-9,5-13l2-2m3.5,33c-5.5,2-8.5-1-10-3m10,3a39.6,39.6,0,0,1,4,13.5c.4,5.6.1,7.9,0,8.4M9.4,144.2l-2,1.5m34.4-4.5h-.2m-3.8,2.5c6.6,3.7,20.7,13.5,23.5,23.5s1.7,17.9.8,20.5m-24.3-44c2-1.9,3.2-2.4,3.8-2.5m20.5,46.5a31,31,0,0,0,1.7-19c-4-15.2-13.5-24.4-22.2-27.5m-9.3,22a29.2,29.2,0,0,1,6.5,9.5m80,47-7.7-9.5M85.8,178.7c-2.4.5-7.4.3-9-4.5a2.7,2.7,0,0,1,.8-3m8.2,7.5c3-.4,8.4-1.7,10.3-4m-10.3,4,6.5,8.1m0-19.6c-4.4.3-12,1.4-14.7,4m14.7-4a6.5,6.5,0,0,1,4.5,5.5,2.9,2.9,0,0,1-.7,2m-3.8-7.5c1.5-.5,4.3-2.3,3.5-5.5a3.3,3.3,0,0,0-3-2.4M77.6,171.2a6.9,6.9,0,0,1-3.8-5c-.2-.8.6-1.6,2-2.4m0,0c3.1-1.8,9.3-3.4,13-4.1a10.1,10.1,0,0,1,4-.4m-17,4.5a9.8,9.8,0,0,1-3-7.1c0-3.6,4.3-5.1,6.5-5.5m0,0c-.2-1,1.1-3,7.5-3h1.5m-9,3c.4,2.1,3.8,6.2,13.5,6.5m-13.5-6.5c-.7.4-3.3,1.1-8.5,1.5s-18-1.5-22.5-11a14.8,14.8,0,0,1-1.3-3.5m46.8,19.5h-.5m26,12.5-11-11.5c-8.9-9.3-13-10.4-20-10.5m16,53.5,15-10.5m-15,10.5,3.2,4m-3.2-4-12-14.9m15.2,18.9,11.8-8.5m-11.8,8.5,3.6,4.5m0,0,8.2-6M96.1,174.7a16.6,16.6,0,0,0,4.6-1m-4.6-15c2.1,2.5,6.4,8.3,7.2,11.5s-.9,2.8-2.6,3.5m-7.4-16c2.8,0,9.3,2.5,12.5,12.5M93.3,157.7h-.5m0,1.6v-1.6m7.9,16a7.8,7.8,0,0,0-.4,7.5c1.6,3.2,3,5.7,3.5,6.5M88.3,148.2l-2.5-3c3.3-6.1,7.6-20.4-2-28m0,0c-6.2-4.9-12.3-6.5-17.5-6m17.5,6c1.5-.8,4.6-3.2,5-6s-4-8-6.5-8-11.5,5.3-16,8m2,13-1,15m6.5-16.5v8m25.5-2,13.5-6.5m-11,14.5,10.5.5M51.6,119.7a26.1,26.1,0,0,1,2.7-3,19.2,19.2,0,0,1,12-5.5m-14.7,8.5c-3.8,5.1-6.3,11.7-4.6,18.5m-5.4,3,5.4-3m-9.2-6.5,4.5,6m-34.9,8c-2.5-2.6-5.8-9.2,1.4-14s55.6-34,79-48c3.6-2,12.4-4,18,4l13.5,19.5m-27,79.6-29,17.4m-9.5-64c-1.4-3.8-2.9-12.7,1.5-17.5s11-7,17-6,13,7.5,12,15.5-5,13.5-12.5,15-14-2-15.5-3.5A13.7,13.7,0,0,1,53.8,140.2Z" transform="translate(0.2 -0.2)" fill="none" stroke="#44f1a6"/><path d="M44.4,245.9l.6,4.4c-4.6.6-8.9-3.3-9.7-8.8s2.4-10.4,7-11c-3,.4-5,3.6-4.5,7.1a7.3,7.3,0,0,0,2.6,4.7h0C40.7,244.6,42.5,246.2,44.4,245.9Z" transform="translate(0.2 -0.2)" fill="#44f1a6"/><path d="M40.4,242.3l-3.7.5c-.7-5.5,2.4-10.4,7-11s8.9,3.3,9.7,8.8c-.5-3.6-3.3-6.1-6.3-5.7a5.1,5.1,0,0,0-3.8,2.9h0C41.4,238,40.1,240.1,40.4,242.3Z" transform="translate(0.2 -0.2)" fill="#44f1a6"/><path d="M43.3,237.8l-.6-4.4c4.6-.6,8.9,3.3,9.6,8.8s-2.3,10.4-6.9,11c2.9-.4,5-3.6,4.5-7.1a7.3,7.3,0,0,0-2.6-4.7h0C47,239.1,45.2,237.5,43.3,237.8Z" transform="translate(0.2 -0.2)" fill="#44f1a6"/><path d="M47.3,241.4l3.6-.5c.8,5.4-2.4,10.4-7,11s-8.9-3.3-9.6-8.8c.5,3.6,3.3,6.1,6.2,5.7a5.1,5.1,0,0,0,3.9-2.9h0C46.3,245.7,47.6,243.6,47.3,241.4Z" transform="translate(0.2 -0.2)" fill="#44f1a6"/><path d="M.3,44.9c23.4-20.8,54-22.7,54-22.7s-37.1,6.2-49.6,44C35,26,85.2,22.9,119.3,47.5m0,21.7a54.5,54.5,0,0,0-8-3.5,59.3,59.3,0,0,1,8,7.3" transform="translate(0.2 -0.2)" fill="none" stroke="#44f1a6"/></svg>