<svg viewBox="0 0 64 64" fill="none" xmlns="http://www.w3.org/2000/svg">
<mask id="path-1-inside-1_4138_1874" fill="white">
<path fill-rule="evenodd" clip-rule="evenodd" d="M33.4183 8.00173L33.4194 8V8.00346L47.6361 31.1799L33.4194 39.4364V39.4376L33.4183 39.437L33.4173 39.4376L33.4142 39.4346L19.2002 31.1799L33.4152 8.00677L33.4173 8L33.4183 8.00173ZM33.4148 53.5048L19.2002 33.8249L33.4182 42.0776L47.6446 33.8249L33.4194 53.5079V53.5111L33.4182 53.5095L33.417 53.5111L33.4148 53.5048Z"/>
</mask>
<path fill-rule="evenodd" clip-rule="evenodd" d="M33.4183 8.00173L33.4194 8V8.00346L47.6361 31.1799L33.4194 39.4364V39.4376L33.4183 39.437L33.4173 39.4376L33.4142 39.4346L19.2002 31.1799L33.4152 8.00677L33.4173 8L33.4183 8.00173ZM33.4148 53.5048L19.2002 33.8249L33.4182 42.0776L47.6446 33.8249L33.4194 53.5079V53.5111L33.4182 53.5095L33.417 53.5111L33.4148 53.5048Z" fill="#1D3F30"/>
<path d="M33.4194 8H34.4194V4.45731L32.567 7.47712L33.4194 8ZM33.4183 8.00173L32.5659 8.52461L33.4183 9.91421L34.2707 8.52461L33.4183 8.00173ZM33.4194 8.00346H32.4194V8.28573L32.567 8.52634L33.4194 8.00346ZM47.6361 31.1799L48.1383 32.0447L49.0241 31.5302L48.4885 30.6571L47.6361 31.1799ZM33.4194 39.4364L32.9172 38.5716L32.4194 38.8607V39.4364H33.4194ZM33.4194 39.4376L32.9174 40.3025L34.4194 41.1743V39.4376H33.4194ZM33.4183 39.437L33.9203 38.5721L33.4183 38.2808L32.9163 38.5721L33.4183 39.437ZM33.4173 39.4376L32.7172 40.1517L33.2609 40.6846L33.9192 40.3025L33.4173 39.4376ZM33.4142 39.4346L34.1142 38.7205L34.0247 38.6328L33.9164 38.5698L33.4142 39.4346ZM19.2002 31.1799L18.3478 30.657L17.8122 31.5302L18.698 32.0447L19.2002 31.1799ZM33.4152 8.00677L34.2676 8.52965L34.3357 8.41861L34.3731 8.29383L33.4152 8.00677ZM33.4173 8L34.2697 7.47712L33.101 5.57191L32.4593 7.71293L33.4173 8ZM19.2002 33.8249L19.7022 32.96L18.3895 34.4104L19.2002 33.8249ZM33.4148 53.5048L34.3591 53.1756L34.311 53.0377L34.2255 52.9193L33.4148 53.5048ZM33.4182 42.0776L32.9162 42.9425L33.4181 43.2338L33.92 42.9426L33.4182 42.0776ZM47.6446 33.8249L48.455 34.4106L47.1428 32.9599L47.6446 33.8249ZM33.4194 53.5079L32.6089 52.9221L32.4194 53.1843V53.5079H33.4194ZM33.4194 53.5111L32.609 54.097L34.4194 56.6012V53.5111H33.4194ZM33.4182 53.5095L34.2286 52.9236L33.4182 51.8026L32.6078 52.9236L33.4182 53.5095ZM33.417 53.5111L32.4728 53.8403L33.104 55.6509L34.2274 54.097L33.417 53.5111ZM32.567 7.47712L32.5659 7.47885L34.2707 8.52461L34.2718 8.52288L32.567 7.47712ZM34.4194 8.00346V8H32.4194V8.00346H34.4194ZM48.4885 30.6571L34.2718 7.48058L32.567 8.52634L46.7837 31.7028L48.4885 30.6571ZM33.9216 40.3011L48.1383 32.0447L47.1339 30.3152L32.9172 38.5716L33.9216 40.3011ZM34.4194 39.4376V39.4364H32.4194V39.4376H34.4194ZM32.9163 40.3019L32.9174 40.3025L33.9214 38.5727L33.9203 38.5721L32.9163 40.3019ZM33.9192 40.3025L33.9203 40.3019L32.9163 38.5721L32.9153 38.5727L33.9192 40.3025ZM32.7142 40.1487L32.7172 40.1517L34.1173 38.7235L34.1142 38.7205L32.7142 40.1487ZM18.698 32.0447L32.912 40.2993L33.9164 38.5698L19.7024 30.3152L18.698 32.0447ZM32.5628 7.48388L18.3478 30.657L20.0526 31.7028L34.2676 8.52965L32.5628 7.48388ZM32.4593 7.71293L32.4573 7.7197L34.3731 8.29383L34.3752 8.28707L32.4593 7.71293ZM34.2707 7.47885L34.2697 7.47712L32.5648 8.52288L32.5659 8.52461L34.2707 7.47885ZM18.3895 34.4104L32.6042 54.0904L34.2255 52.9193L20.0108 33.2393L18.3895 34.4104ZM33.9202 41.2127L19.7022 32.96L18.6982 34.6897L32.9162 42.9425L33.9202 41.2127ZM33.92 42.9426L48.1463 34.6899L47.1428 32.9599L32.9164 41.2126L33.92 42.9426ZM46.8341 33.2391L32.6089 52.9221L34.2299 54.0936L48.455 34.4106L46.8341 33.2391ZM34.4194 53.5111V53.5079H32.4194V53.5111H34.4194ZM32.6078 54.0954L32.609 54.097L34.2298 52.9252L34.2286 52.9236L32.6078 54.0954ZM32.6078 52.9236L32.6066 52.9252L34.2274 54.097L34.2286 54.0954L32.6078 52.9236ZM34.3613 53.1819L34.3591 53.1756L32.4706 53.834L32.4728 53.8403L34.3613 53.1819Z" fill="#44F1A6" mask="url(#path-1-inside-1_4138_1874)"/>
</svg>
