<svg viewBox="0 0 64 64" fill="none" xmlns="http://www.w3.org/2000/svg">
<path d="M32.0925 35.6293L10.7855 14.912L11.3088 14.3799L11.3103 14.3784C16.649 8.90287 23.9337 5.83331 31.7687 5.83331H31.8156C39.7381 5.83331 47.3439 9.12135 52.6348 14.815L52.6351 14.8153L53.1294 15.3464L32.0925 35.6293ZM5.83363 32.8043L5.83363 32.8031C5.83758 28.1612 7.16456 23.6093 9.66995 19.6486L9.67002 19.6487L9.67475 19.6409L9.80956 19.4189L11.5 21.0556C11.1185 21.6453 10.7717 22.2871 10.5258 23.0012C8.4931 28.4051 11.4128 34.3479 17.0032 36.3065L17.0032 36.3066L17.0091 36.3085C20.1983 37.3815 23.5681 36.9537 26.2653 35.351L31.6508 40.6084L31.9987 40.948L32.3479 40.6099L38.5605 34.5948C39.1171 34.924 39.7242 35.1875 40.3518 35.4142L40.3518 35.4143L40.3596 35.417C45.8097 37.2848 51.8065 34.5359 53.7479 29.2757C54.8605 26.3114 54.419 23.2203 52.9049 20.7064L54.1976 19.4549L54.3732 19.7344C54.3733 19.7346 54.3735 19.7348 54.3736 19.735C56.855 23.704 58.1663 28.2534 58.1668 32.8903C58.1227 46.8267 46.4296 58.1666 32.0001 58.1666H31.9533C17.5238 58.1666 5.78777 46.7365 5.83363 32.8043ZM14.5398 27.096V27.0955C14.5389 26.2354 14.7756 25.3931 15.222 24.654L21.9999 31.1763C21.2622 31.6141 20.3986 31.8573 19.4739 31.8573C16.7408 31.8573 14.5398 29.7034 14.5398 27.096ZM44.8513 31.1853C44.0313 31.1853 43.2948 31.0136 42.6357 30.6918L49.2648 24.2735C49.6042 24.9241 49.7854 25.6606 49.7854 26.424C49.7854 29.0314 47.5844 31.1853 44.8513 31.1853Z" fill="#1D3F30" stroke="#44F1A6"/>
</svg>
