<svg viewBox="0 0 64 64" fill="none" xmlns="http://www.w3.org/2000/svg">
<mask id="path-1-outside-1_4138_1963" maskUnits="userSpaceOnUse" x="6" y="14" width="53" height="36" fill="black">
<rect fill="white" x="6" y="14" width="53" height="36"/>
<path d="M31.3498 44.2077C30.2791 45.8127 28.7817 47.0165 26.8574 47.819C24.9477 48.6063 22.7196 49 20.1732 49C17.5979 49 15.3119 48.3716 13.3153 47.1149C11.3187 45.843 9.77064 44.0412 8.67106 41.7094C7.58596 39.3776 7.02894 36.6749 7 33.6012V30.7168C7 25.7352 8.10681 21.8742 10.3204 19.1336C12.5485 16.393 15.6736 15.0227 19.6957 15.0227C22.9945 15.0227 25.6494 15.9085 27.6604 17.68C29.6715 19.4364 30.9013 21.9348 31.3498 25.175H27.183C26.4017 20.7992 23.9132 18.6112 19.7174 18.6112C16.9251 18.6112 14.8055 19.6408 13.3587 21.7001C11.9264 23.7442 11.203 26.7119 11.1885 30.6032V33.3059C11.1885 37.0156 11.9987 39.9682 13.6191 42.1637C15.2396 44.344 17.4315 45.4342 20.1949 45.4342C21.7574 45.4342 23.1247 45.2525 24.2966 44.8891C25.4685 44.5257 26.4379 43.9125 27.2047 43.0494V35.6226H19.8911V32.0795H31.3498V44.2077Z"/>
<path d="M36.6234 36.0314C36.6234 33.6239 37.0719 31.4587 37.9689 29.5357C38.8804 27.6128 40.1391 26.1289 41.7451 25.0842C43.3655 24.0394 45.2102 23.517 47.2791 23.517C50.4766 23.517 53.0591 24.6754 55.0268 26.992C57.0089 29.3086 58 32.3899 58 36.2358V36.5311C58 38.9234 57.5587 41.0735 56.6762 42.9813C55.8081 44.874 54.5566 46.3503 52.9217 47.4102C51.3013 48.47 49.4349 49 47.3225 49C44.1396 49 41.557 47.8417 39.5749 45.525C37.6072 43.2084 36.6234 40.1423 36.6234 36.3267V36.0314ZM40.66 36.5311C40.66 39.2565 41.2604 41.4444 42.4613 43.0949C43.6766 44.7453 45.297 45.5705 47.3225 45.5705C49.3625 45.5705 50.983 44.7377 52.1838 43.0721C53.3847 41.3914 53.9851 39.0445 53.9851 36.0314C53.9851 33.3362 53.3702 31.1559 52.1404 29.4903C50.9251 27.8096 49.3047 26.9693 47.2791 26.9693C45.297 26.9693 43.6983 27.7945 42.483 29.4449C41.2677 31.0953 40.66 33.4574 40.66 36.5311ZM40.1391 17.4075C40.1391 16.7261 40.3345 16.1583 40.7251 15.7041C41.1302 15.2347 41.7234 15 42.5047 15C43.286 15 43.8791 15.2347 44.2843 15.7041C44.6894 16.1583 44.8919 16.7261 44.8919 17.4075C44.8919 18.0888 44.6894 18.6566 44.2843 19.1109C43.8791 19.5651 43.286 19.7923 42.5047 19.7923C41.7234 19.7923 41.1302 19.5651 40.7251 19.1109C40.3345 18.6566 40.1391 18.0888 40.1391 17.4075ZM49.4711 17.4529C49.4711 16.7715 49.6664 16.1962 50.057 15.7268C50.4621 15.2574 51.0553 15.0227 51.8366 15.0227C52.6179 15.0227 53.2111 15.2574 53.6162 15.7268C54.0213 16.1962 54.2238 16.7715 54.2238 17.4529C54.2238 18.1343 54.0213 18.7021 53.6162 19.1563C53.2111 19.6106 52.6179 19.8377 51.8366 19.8377C51.0553 19.8377 50.4621 19.6106 50.057 19.1563C49.6664 18.7021 49.4711 18.1343 49.4711 17.4529Z"/>
</mask>
<path d="M31.3498 44.2077C30.2791 45.8127 28.7817 47.0165 26.8574 47.819C24.9477 48.6063 22.7196 49 20.1732 49C17.5979 49 15.3119 48.3716 13.3153 47.1149C11.3187 45.843 9.77064 44.0412 8.67106 41.7094C7.58596 39.3776 7.02894 36.6749 7 33.6012V30.7168C7 25.7352 8.10681 21.8742 10.3204 19.1336C12.5485 16.393 15.6736 15.0227 19.6957 15.0227C22.9945 15.0227 25.6494 15.9085 27.6604 17.68C29.6715 19.4364 30.9013 21.9348 31.3498 25.175H27.183C26.4017 20.7992 23.9132 18.6112 19.7174 18.6112C16.9251 18.6112 14.8055 19.6408 13.3587 21.7001C11.9264 23.7442 11.203 26.7119 11.1885 30.6032V33.3059C11.1885 37.0156 11.9987 39.9682 13.6191 42.1637C15.2396 44.344 17.4315 45.4342 20.1949 45.4342C21.7574 45.4342 23.1247 45.2525 24.2966 44.8891C25.4685 44.5257 26.4379 43.9125 27.2047 43.0494V35.6226H19.8911V32.0795H31.3498V44.2077Z" fill="#1D3F30"/>
<path d="M36.6234 36.0314C36.6234 33.6239 37.0719 31.4587 37.9689 29.5357C38.8804 27.6128 40.1391 26.1289 41.7451 25.0842C43.3655 24.0394 45.2102 23.517 47.2791 23.517C50.4766 23.517 53.0591 24.6754 55.0268 26.992C57.0089 29.3086 58 32.3899 58 36.2358V36.5311C58 38.9234 57.5587 41.0735 56.6762 42.9813C55.8081 44.874 54.5566 46.3503 52.9217 47.4102C51.3013 48.47 49.4349 49 47.3225 49C44.1396 49 41.557 47.8417 39.5749 45.525C37.6072 43.2084 36.6234 40.1423 36.6234 36.3267V36.0314ZM40.66 36.5311C40.66 39.2565 41.2604 41.4444 42.4613 43.0949C43.6766 44.7453 45.297 45.5705 47.3225 45.5705C49.3625 45.5705 50.983 44.7377 52.1838 43.0721C53.3847 41.3914 53.9851 39.0445 53.9851 36.0314C53.9851 33.3362 53.3702 31.1559 52.1404 29.4903C50.9251 27.8096 49.3047 26.9693 47.2791 26.9693C45.297 26.9693 43.6983 27.7945 42.483 29.4449C41.2677 31.0953 40.66 33.4574 40.66 36.5311ZM40.1391 17.4075C40.1391 16.7261 40.3345 16.1583 40.7251 15.7041C41.1302 15.2347 41.7234 15 42.5047 15C43.286 15 43.8791 15.2347 44.2843 15.7041C44.6894 16.1583 44.8919 16.7261 44.8919 17.4075C44.8919 18.0888 44.6894 18.6566 44.2843 19.1109C43.8791 19.5651 43.286 19.7923 42.5047 19.7923C41.7234 19.7923 41.1302 19.5651 40.7251 19.1109C40.3345 18.6566 40.1391 18.0888 40.1391 17.4075ZM49.4711 17.4529C49.4711 16.7715 49.6664 16.1962 50.057 15.7268C50.4621 15.2574 51.0553 15.0227 51.8366 15.0227C52.6179 15.0227 53.2111 15.2574 53.6162 15.7268C54.0213 16.1962 54.2238 16.7715 54.2238 17.4529C54.2238 18.1343 54.0213 18.7021 53.6162 19.1563C53.2111 19.6106 52.6179 19.8377 51.8366 19.8377C51.0553 19.8377 50.4621 19.6106 50.057 19.1563C49.6664 18.7021 49.4711 18.1343 49.4711 17.4529Z" fill="#1D3F30"/>
<path d="M31.3498 44.2077C30.2791 45.8127 28.7817 47.0165 26.8574 47.819C24.9477 48.6063 22.7196 49 20.1732 49C17.5979 49 15.3119 48.3716 13.3153 47.1149C11.3187 45.843 9.77064 44.0412 8.67106 41.7094C7.58596 39.3776 7.02894 36.6749 7 33.6012V30.7168C7 25.7352 8.10681 21.8742 10.3204 19.1336C12.5485 16.393 15.6736 15.0227 19.6957 15.0227C22.9945 15.0227 25.6494 15.9085 27.6604 17.68C29.6715 19.4364 30.9013 21.9348 31.3498 25.175H27.183C26.4017 20.7992 23.9132 18.6112 19.7174 18.6112C16.9251 18.6112 14.8055 19.6408 13.3587 21.7001C11.9264 23.7442 11.203 26.7119 11.1885 30.6032V33.3059C11.1885 37.0156 11.9987 39.9682 13.6191 42.1637C15.2396 44.344 17.4315 45.4342 20.1949 45.4342C21.7574 45.4342 23.1247 45.2525 24.2966 44.8891C25.4685 44.5257 26.4379 43.9125 27.2047 43.0494V35.6226H19.8911V32.0795H31.3498V44.2077Z" stroke="#44F1A6" stroke-width="1.61905" mask="url(#path-1-outside-1_4138_1963)"/>
<path d="M36.6234 36.0314C36.6234 33.6239 37.0719 31.4587 37.9689 29.5357C38.8804 27.6128 40.1391 26.1289 41.7451 25.0842C43.3655 24.0394 45.2102 23.517 47.2791 23.517C50.4766 23.517 53.0591 24.6754 55.0268 26.992C57.0089 29.3086 58 32.3899 58 36.2358V36.5311C58 38.9234 57.5587 41.0735 56.6762 42.9813C55.8081 44.874 54.5566 46.3503 52.9217 47.4102C51.3013 48.47 49.4349 49 47.3225 49C44.1396 49 41.557 47.8417 39.5749 45.525C37.6072 43.2084 36.6234 40.1423 36.6234 36.3267V36.0314ZM40.66 36.5311C40.66 39.2565 41.2604 41.4444 42.4613 43.0949C43.6766 44.7453 45.297 45.5705 47.3225 45.5705C49.3625 45.5705 50.983 44.7377 52.1838 43.0721C53.3847 41.3914 53.9851 39.0445 53.9851 36.0314C53.9851 33.3362 53.3702 31.1559 52.1404 29.4903C50.9251 27.8096 49.3047 26.9693 47.2791 26.9693C45.297 26.9693 43.6983 27.7945 42.483 29.4449C41.2677 31.0953 40.66 33.4574 40.66 36.5311ZM40.1391 17.4075C40.1391 16.7261 40.3345 16.1583 40.7251 15.7041C41.1302 15.2347 41.7234 15 42.5047 15C43.286 15 43.8791 15.2347 44.2843 15.7041C44.6894 16.1583 44.8919 16.7261 44.8919 17.4075C44.8919 18.0888 44.6894 18.6566 44.2843 19.1109C43.8791 19.5651 43.286 19.7923 42.5047 19.7923C41.7234 19.7923 41.1302 19.5651 40.7251 19.1109C40.3345 18.6566 40.1391 18.0888 40.1391 17.4075ZM49.4711 17.4529C49.4711 16.7715 49.6664 16.1962 50.057 15.7268C50.4621 15.2574 51.0553 15.0227 51.8366 15.0227C52.6179 15.0227 53.2111 15.2574 53.6162 15.7268C54.0213 16.1962 54.2238 16.7715 54.2238 17.4529C54.2238 18.1343 54.0213 18.7021 53.6162 19.1563C53.2111 19.6106 52.6179 19.8377 51.8366 19.8377C51.0553 19.8377 50.4621 19.6106 50.057 19.1563C49.6664 18.7021 49.4711 18.1343 49.4711 17.4529Z" stroke="#44F1A6" stroke-width="1.61905" mask="url(#path-1-outside-1_4138_1963)"/>
</svg>
