<svg xmlns="http://www.w3.org/2000/svg" viewBox="0 0 120 260"><defs><mask id="a" x="14" y="84" width="92" height="92" maskUnits="userSpaceOnUse"><g transform="translate(0.2 0.8)"><path d="M59.8,174.2a45,45,0,1,0-45-45A45,45,0,0,0,59.8,174.2Zm0-25a20,20,0,1,0-20-20A20,20,0,0,0,59.8,149.2Z" fill="#fff" fill-rule="evenodd"/></g></mask><mask id="b" x="19" y="89" width="82" height="82" maskUnits="userSpaceOnUse"><g transform="translate(0.2 0.8)"><path d="M59.8,169.2a40,40,0,1,0-40-40A40,40,0,0,0,59.8,169.2Zm0-20a20,20,0,1,0-20-20A20,20,0,0,0,59.8,149.2Z" fill="#fff" fill-rule="evenodd"/></g></mask><mask id="c" x="19" y="89" width="82" height="82" maskUnits="userSpaceOnUse"><g transform="translate(0.2 0.8)"><path d="M59.8,89.2a40,40,0,0,1,23.5,7.7,39.5,39.5,0,0,1,14.5,20,40,40,0,1,1-76.1.1l19,6.1a20.1,20.1,0,0,0,19.1,26.2,20.5,20.5,0,0,0,11.7-3.9,19.7,19.7,0,0,0,7.3-10A20,20,0,0,0,71.5,113a20.4,20.4,0,0,0-11.7-3.8Z" fill="#fff"/></g></mask><mask id="d" x="50.83" y="223.83" width="19" height="19" maskUnits="userSpaceOnUse"><g transform="translate(0.2 0.8)"><rect x="50.6" y="223.1" width="19" height="19" fill="#fff"/><path d="M67.7,224.7a1.9,1.9,0,0,0-2.8,0L60,229.6l-5-4.9a2,2,0,0,0-2.8,2.8l4.9,4.9-4.9,5a2,2,0,1,0,2.8,2.8l5-4.9,4.9,4.9a2,2,0,1,0,2.8-2.8l-4.9-5,4.9-4.9A1.9,1.9,0,0,0,67.7,224.7Z" fill-rule="evenodd"/></g></mask></defs><rect x="0.5" y="0.5" width="119" height="259" rx="9.5" fill="none" stroke="#44f1a6"/><path d="M59.8,47.2h1V84.3h-1ZM49.1,85.5,38.8,47.2h-1L48.1,85.8Zm-11,4.3L13.5,47.2H12.3L37.2,90.3Zm-9.5,7L-.2,68v1.4l28,28.1Zm-7.4,9.3L-.2,93.7v1.2L20.7,107A4.1,4.1,0,0,1,21.2,106.1ZM16.5,117-.2,112.5v1l16.4,4.4Zm-1.7,11.7H-.2v1h15v-1Zm1.4,11.8L-.2,144.9V146l16.7-4.5Zm4.5,11L-.2,163.6v1.1l21.4-12.3A4.1,4.1,0,0,1,20.7,151.5Zm7.1,9.5-28,28v1.4l28.8-28.7Zm9.4,7.2-24.3,42h1.2l24-41.5Zm10.9,4.5L38,210.2h1.1l10-37.2Zm11.7,1.5v36h1v-36Zm11.6-1.5,10.1,37.5h1L72.4,172.5Zm10.8-4.4,24.3,41.9h1.1L83.1,167.7Zm9.3-7.1,28.3,28.2V188L92.2,160.5Zm7.1-9.2,21.2,12.2V163L99.1,151.1A4.1,4.1,0,0,1,98.6,152Zm4.5-10.8,16.7,4.5v-1l-16.4-4.4Zm1.7-11.5h15v-1h-15v1Zm-1.4-11.5,16.4-4.4v-1l-16.7,4.4Zm-4.3-10.8,20.7-11.9V94.3L98.6,106.5A4.1,4.1,0,0,1,99.1,107.4ZM92.2,98l27.6-27.6V69L91.5,97.3Zm-9.1-7.3,25.1-43.5H107l-24.8,43ZM72.4,86,82.8,47.2H81.7L71.4,85.8Z" transform="translate(0.2 0.8)" fill="#44f1a6" fill-rule="evenodd"/><path d="M.3,9.2A9.5,9.5,0,0,1,9.8-.3h100a9.6,9.6,0,0,1,9.5,9.5V58.7H87.4a10.5,10.5,0,0,0-10.1,7.7L71.9,85.7H48.6L42.4,66.1a10.4,10.4,0,0,0-10-7.4H.3Z" transform="translate(0.2 0.8)" stroke="#44f1a6"/><path d="M119.3,249.2a9.5,9.5,0,0,1-9.5,9.5H9.8a9.4,9.4,0,0,1-9.5-9.5V199.7H32.2A10.5,10.5,0,0,0,42.3,192l5.3-19.3H70.9l6.2,19.7a10.4,10.4,0,0,0,10,7.3h32.2Z" transform="translate(0.2 0.8)" stroke="#44f1a6"/><path d="M59.8,174.2a45,45,0,1,0-45-45A45,45,0,0,0,59.8,174.2Zm0-25a20,20,0,1,0-20-20A20,20,0,0,0,59.8,149.2Z" transform="translate(0.2 0.8)" fill="#182922" fill-rule="evenodd"/><g mask="url(#a)"><path d="M103.8,129.2a44,44,0,0,1-44,44v2a46,46,0,0,0,46-46Zm-44-44a44,44,0,0,1,44,44h2a46,46,0,0,0-46-46Zm-44,44a44,44,0,0,1,44-44v-2a46,46,0,0,0-46,46Zm44,44a44,44,0,0,1-44-44h-2a46,46,0,0,0,46,46Zm19-44a19,19,0,0,1-19,19v2a21,21,0,0,0,21-21Zm-19-19a19,19,0,0,1,19,19h2a21,21,0,0,0-21-21Zm-19,19a19,19,0,0,1,19-19v-2a21,21,0,0,0-21,21Zm19,19a19,19,0,0,1-19-19h-2a21,21,0,0,0,21,21Z" transform="translate(0.2 0.8)" fill="#44f1a6"/></g><path d="M59.8,169.2a40,40,0,1,0-40-40A40,40,0,0,0,59.8,169.2Zm0-20a20,20,0,1,0-20-20A20,20,0,0,0,59.8,149.2Z" transform="translate(0.2 0.8)" fill="#182922" fill-rule="evenodd"/><g mask="url(#b)"><path d="M98.8,129.2a39,39,0,0,1-39,39v2a41,41,0,0,0,41-41Zm-39-39a39.1,39.1,0,0,1,39,39h2a41.1,41.1,0,0,0-41-41Zm-39,39a39,39,0,0,1,39-39v-2a41,41,0,0,0-41,41Zm39,39a38.9,38.9,0,0,1-39-39h-2a40.9,40.9,0,0,0,41,41Zm19-39a19,19,0,0,1-19,19v2a21,21,0,0,0,21-21Zm-19-19a19,19,0,0,1,19,19h2a21,21,0,0,0-21-21Zm-19,19a19,19,0,0,1,19-19v-2a21,21,0,0,0-21,21Zm19,19a19,19,0,0,1-19-19h-2a21,21,0,0,0,21,21Z" transform="translate(0.2 0.8)" fill="#44f1a6"/></g><g mask="url(#c)"><path d="M59.8,89.2a40,40,0,0,1,23.5,7.7,39.5,39.5,0,0,1,14.5,20,40,40,0,1,1-76.1.1l19,6.1a20.1,20.1,0,0,0,19.1,26.2,20.5,20.5,0,0,0,11.7-3.9,19.7,19.7,0,0,0,7.3-10A20,20,0,0,0,71.5,113a20.4,20.4,0,0,0-11.7-3.8Z" transform="translate(0.2 0.8)" fill="#276c4e" stroke="#44f1a6" stroke-width="2"/></g><path d="M11.8,9.7h0a3.5,3.5,0,0,1,3.5,3.5v32a3.5,3.5,0,0,1-3.5,3.5h0a3.4,3.4,0,0,1-3.5-3.5v-32A3.5,3.5,0,0,1,11.8,9.7Z" transform="translate(0.2 0.8)" fill="#276c4e" stroke="#44f1a6"/><path d="M14.8,15.2h-6v1h6Zm-6,2h6v1h-6Zm6,23h-6v1h6Zm0,2h-6v1h6Z" transform="translate(0.2 0.8)" fill="#44f1a6" fill-rule="evenodd"/><path d="M107.8,9.7h0a3.5,3.5,0,0,1,3.5,3.5v32a3.5,3.5,0,0,1-3.5,3.5h0a3.4,3.4,0,0,1-3.5-3.5v-32A3.5,3.5,0,0,1,107.8,9.7Z" transform="translate(0.2 0.8)" fill="#276c4e" stroke="#44f1a6"/><path d="M110.8,15.2h-6v1h6Zm-6,2h6v1h-6Zm6,23h-6v1h6Zm0,2h-6v1h6Z" transform="translate(0.2 0.8)" fill="#44f1a6" fill-rule="evenodd"/><path d="M11.8,209.7h0a3.5,3.5,0,0,1,3.5,3.5v32a3.5,3.5,0,0,1-3.5,3.5h0a3.4,3.4,0,0,1-3.5-3.5v-32A3.5,3.5,0,0,1,11.8,209.7Z" transform="translate(0.2 0.8)" fill="#276c4e" stroke="#44f1a6"/><path d="M14.8,215.2h-6v1h6Zm-6,2h6v1h-6Zm6,23h-6v1h6Zm0,2h-6v1h6Z" transform="translate(0.2 0.8)" fill="#44f1a6" fill-rule="evenodd"/><path d="M107.8,209.7h0a3.5,3.5,0,0,1,3.5,3.5v32a3.5,3.5,0,0,1-3.5,3.5h0a3.4,3.4,0,0,1-3.5-3.5v-32A3.5,3.5,0,0,1,107.8,209.7Z" transform="translate(0.2 0.8)" fill="#276c4e" stroke="#44f1a6"/><path d="M110.8,215.2h-6v1h6Zm-6,2h6v1h-6Zm6,23h-6v1h6Zm0,2h-6v1h6Z" transform="translate(0.2 0.8)" fill="#44f1a6" fill-rule="evenodd"/><path d="M36.3-.3h47V31.2a23.5,23.5,0,1,1-47,0Z" transform="translate(0.2 0.8)" fill="#182922" stroke="#44f1a6"/><path d="M48,27a2.4,2.4,0,0,0,0,3.5l6.1,6.1a2.6,2.6,0,0,0,3.5,0L72.2,22a2.6,2.6,0,0,0,0-3.5,2.5,2.5,0,0,0-3.6,0L55.8,31.3,51.5,27A2.4,2.4,0,0,0,48,27Z" transform="translate(0.2 0.8)" fill="#276c4e" stroke="#44f1a6"/><path d="M36.3,258.7h47V227.2a23.5,23.5,0,0,0-47,0Z" transform="translate(0.2 0.8)" fill="#182922" stroke="#44f1a6"/><path d="M67.7,224.7a1.9,1.9,0,0,0-2.8,0L60,229.6l-5-4.9a2,2,0,0,0-2.8,2.8l4.9,4.9-4.9,5a2,2,0,1,0,2.8,2.8l5-4.9,4.9,4.9a2,2,0,1,0,2.8-2.8l-4.9-5,4.9-4.9A1.9,1.9,0,0,0,67.7,224.7Z" transform="translate(0.2 0.8)" fill="#276c4e" fill-rule="evenodd"/><g mask="url(#d)"><path d="M64.9,224.7l-.7-.8h0Zm2.8,0-.7.7h0ZM60,229.6l-.7.7.7.7.7-.7Zm-5-4.9-.7.7Zm-2.8,0,.7.7Zm0,2.8.7-.7Zm4.9,4.9.7.7.7-.7-.7-.7Zm-4.9,5,.7.7h0Zm0,2.8.7-.7h0Zm2.8,0-.7-.7h0Zm5-4.9.7-.7-.7-.8-.7.8Zm4.9,4.9.7-.7h0Zm2.8,0-.7-.7h0Zm-4.9-7.8-.7-.7-.7.7.7.7Zm4.9-4.9-.7-.7h0Zm-2.1-2.1a1,1,0,0,1,1.4,0l1.4-1.5a3.1,3.1,0,0,0-4.2,0Zm-4.9,4.9,4.9-4.9-1.4-1.5-4.9,5Zm0-1.4-5-5-1.4,1.5,5,4.9Zm-5-5a3.1,3.1,0,0,0-4.2,0l1.4,1.5a1,1,0,0,1,1.4,0Zm-4.2,0a3,3,0,0,0,0,4.3l1.4-1.4a1,1,0,0,1,0-1.4Zm0,4.3,4.9,4.9,1.4-1.4-4.9-4.9Zm1.4,9.9,4.9-5-1.4-1.4-4.9,5Zm0,1.4a1,1,0,0,1,0-1.4l-1.4-1.4a2.9,2.9,0,0,0,0,4.2Zm1.4,0a1,1,0,0,1-1.4,0l-1.4,1.4a2.9,2.9,0,0,0,4.2,0Zm5-4.9-5,4.9,1.4,1.4,5-4.9Zm0,1.4,4.9,4.9,1.4-1.4-4.9-4.9Zm4.9,4.9a2.9,2.9,0,0,0,4.2,0L67,239.5a1,1,0,0,1-1.4,0Zm4.2,0a2.9,2.9,0,0,0,0-4.2L67,238.1a1,1,0,0,1,0,1.4Zm0-4.2-4.9-5-1.4,1.4,4.9,5ZM67,226.8l-4.9,4.9,1.4,1.4,4.9-4.9Zm0-1.4a1,1,0,0,1,0,1.4l1.4,1.4a3,3,0,0,0,0-4.3Z" transform="translate(0.2 0.8)" fill="#44f1a6"/></g></svg>
