<svg width="440" height="409" viewBox="0 0 440 409" fill="none" xmlns="http://www.w3.org/2000/svg">
<path d="M264.881 161.302L242.5 335.5L288.114 217.274L318.74 135.957L283.89 154.966L264.881 161.302Z" fill="#30986B"/>
<path d="M182.507 146.517L152.937 130.676L238.479 328.162L182.507 146.517Z" fill="#1D3F30"/>
<path d="M170.89 141.237L163.498 121.172L196.236 141.237H170.89Z" fill="#276C4E"/>
<path d="M150.825 126.452L241.647 337.667M241.647 337.667L320.853 131.732M241.647 337.667L264.881 161.302M241.647 337.667L183.563 148.63M159.273 111.667C159.273 113.357 167.018 131.028 170.89 140.181" stroke="#44F1A6"/>
<path fill-rule="evenodd" clip-rule="evenodd" d="M276.524 110.65C276.486 121.101 260.886 129.566 241.647 129.566L241.577 129.566H241.576C222.346 129.545 206.77 121.067 206.77 110.611L206.77 110.574L206.77 110.572C206.808 100.121 222.409 91.6559 241.647 91.6559L241.717 91.6559H241.718C260.948 91.6768 276.525 100.155 276.525 110.611L276.524 110.65ZM295.47 139.277C292.09 148.847 280.283 156.789 264.409 160.732L264.282 161.753C300.072 156.372 326.35 138.544 326.35 117.381C326.35 102.795 313.868 89.7936 294.393 81.3593C319.691 83.9989 338.806 96.0918 338.806 110.611C338.806 85.1872 300.883 64.5771 254.103 64.5771C227.266 64.5771 203.343 71.3606 187.824 81.9449C192.681 68.1956 214.932 57.8074 241.647 57.8074C194.867 57.8074 156.945 78.4175 156.945 103.841C156.945 118.427 169.426 131.428 188.901 139.863C170.536 137.947 155.43 131.049 148.53 121.858L148.5 122L151.192 128.59C164.077 145.08 194.149 156.645 229.191 156.645C256.029 156.645 279.951 149.861 295.47 139.277Z" fill="#44F1A6"/>
<path d="M276.5 114C276.5 118.683 272.745 123.053 266.376 126.282C260.036 129.497 251.241 131.5 241.5 131.5C231.759 131.5 222.964 129.497 216.624 126.282C210.255 123.053 206.5 118.683 206.5 114C206.5 109.317 210.255 104.947 216.624 101.718C222.964 98.503 231.759 96.4999 241.5 96.4999C251.241 96.4999 260.036 98.503 266.376 101.718C272.745 104.947 276.5 109.317 276.5 114Z" stroke="#44F1A6"/>
<path d="M272.5 119.5C272.5 123.777 269.181 127.77 263.542 130.724C257.927 133.666 250.134 135.5 241.5 135.5C232.866 135.5 225.073 133.666 219.458 130.724C213.819 127.77 210.5 123.777 210.5 119.5C210.5 115.223 213.819 111.229 219.458 108.276C225.073 105.334 232.866 103.5 241.5 103.5C250.134 103.5 257.927 105.334 263.542 108.276C269.181 111.229 272.5 115.223 272.5 119.5Z" stroke="#44F1A6"/>
<path fill-rule="evenodd" clip-rule="evenodd" d="M196.954 194.053L196.61 192.947C206.305 195.226 217.107 196.5 228.5 196.5C240.048 196.5 250.99 195.191 260.786 192.853L260.645 193.914C250.859 196.217 239.97 197.5 228.5 197.5C217.263 197.5 206.584 196.269 196.954 194.053ZM202.264 211.155L201.929 210.074C210.198 211.642 219.15 212.5 228.5 212.5C239.191 212.5 249.362 211.378 258.586 209.356L258.445 210.41C249.238 212.401 239.118 213.5 228.5 213.5C219.29 213.5 210.455 212.673 202.264 211.155ZM206.85 225.922L206.521 224.861C213.477 225.926 220.856 226.5 228.5 226.5C238.454 226.5 247.957 225.528 256.665 223.762L256.525 224.81C247.838 226.547 238.384 227.5 228.5 227.5C220.985 227.5 213.72 226.949 206.85 225.922ZM210.74 238.447L210.415 237.4C216.21 238.119 222.266 238.5 228.5 238.5C237.832 238.5 246.767 237.645 255.022 236.084L254.883 237.127C246.651 238.663 237.765 239.5 228.5 239.5C222.389 239.5 216.442 239.136 210.74 238.447ZM214.594 250.859L214.273 249.824C218.881 250.268 223.637 250.5 228.5 250.5C237.217 250.5 245.588 249.754 253.382 248.383L253.244 249.422C245.476 250.77 237.153 251.5 228.5 251.5C223.753 251.5 219.105 251.28 214.594 250.859ZM217.781 261.121L217.463 260.096C221.066 260.362 224.751 260.5 228.5 260.5C236.71 260.5 244.614 259.838 252.018 258.616L251.88 259.652C244.505 260.852 236.649 261.5 228.5 261.5C224.863 261.5 221.285 261.371 217.781 261.121ZM220.631 270.297L220.314 269.279C223.003 269.425 225.734 269.5 228.5 269.5C236.259 269.5 243.744 268.909 250.792 267.812L250.654 268.845C243.636 269.922 236.199 270.5 228.5 270.5C225.843 270.5 223.218 270.431 220.631 270.297ZM223.149 278.406L222.835 277.394C224.705 277.464 226.594 277.5 228.5 277.5C235.861 277.5 242.975 276.968 249.703 275.977L249.566 277.008C242.869 277.98 235.802 278.5 228.5 278.5C226.701 278.5 224.917 278.468 223.149 278.406ZM241.98 333.898C241.463 333.945 240.943 333.989 240.423 334.031L240.118 333.052C240.787 332.999 241.453 332.943 242.116 332.882L241.98 333.898ZM248.751 283.114C242.305 284.017 235.515 284.5 228.5 284.5C227.337 284.5 226.179 284.487 225.029 284.46L225.342 285.467C226.389 285.489 227.442 285.5 228.5 285.5C235.457 285.5 242.201 285.028 248.614 284.143L248.751 283.114ZM247.936 289.226C241.734 290.057 235.22 290.5 228.5 290.5C227.966 290.5 227.433 290.497 226.902 290.492L227.213 291.495C227.641 291.498 228.07 291.5 228.5 291.5C235.163 291.5 241.631 291.067 247.8 290.253L247.936 289.226ZM247.122 295.332C241.247 296.084 235.099 296.489 228.768 296.5L229.078 297.499C235.245 297.476 241.242 297.082 246.986 296.358L247.122 295.332ZM246.444 300.417C241.257 301.055 235.861 301.423 230.317 301.489L230.626 302.485C236.009 302.411 241.254 302.053 246.308 301.441L246.444 300.417ZM245.902 304.483C241.269 305.034 236.471 305.371 231.553 305.469L231.862 306.463C236.62 306.358 241.268 306.033 245.766 305.506L245.902 304.483ZM245.36 308.546C241.284 309.015 237.083 309.318 232.786 309.44L233.094 310.431C237.233 310.306 241.285 310.015 245.224 309.568L245.36 308.546ZM244.819 312.608C241.303 312.998 237.696 313.266 234.016 313.4L234.323 314.389C237.847 314.254 241.306 313.998 244.683 313.629L244.819 312.608ZM244.413 315.652C241.32 315.987 238.157 316.226 234.936 316.363L235.243 317.351C238.309 317.215 241.324 316.987 244.277 316.672L244.413 315.652ZM244.007 318.695C241.339 318.977 238.618 319.187 235.855 319.321L236.161 320.307C238.771 320.176 241.344 319.977 243.871 319.715L244.007 318.695ZM243.602 321.738C241.359 321.967 239.081 322.147 236.772 322.274L237.077 323.258C239.235 323.136 241.365 322.968 243.466 322.757L243.602 321.738ZM243.196 324.779C241.382 324.959 239.545 325.107 237.687 325.221L237.992 326.204C239.699 326.096 241.389 325.96 243.06 325.797L243.196 324.779ZM242.926 326.805C241.398 326.954 239.855 327.08 238.296 327.182L238.601 328.164C240.009 328.07 241.406 327.956 242.79 327.823L242.926 326.805ZM242.656 328.831C241.416 328.95 240.165 329.053 238.904 329.141L239.209 330.122C240.32 330.043 241.424 329.952 242.52 329.849L242.656 328.831ZM242.386 330.857C241.434 330.946 240.476 331.026 239.512 331.098L239.816 332.078C240.632 332.016 241.443 331.948 242.25 331.874L242.386 330.857ZM263.403 173.23C252.922 175.962 241.059 177.5 228.5 177.5C214.561 177.5 201.48 175.605 190.195 172.287L189.838 171.138C201.161 174.543 214.377 176.5 228.5 176.5C241.145 176.5 253.062 174.931 263.545 172.159L263.403 173.23Z" fill="url(#paint0_linear)"/>
<path d="M122.305 185.062C131.388 197.27 130.346 213.23 120.229 220.757C110.112 228.283 94.5261 224.694 85.4434 212.486C76.3606 200.278 77.4028 184.318 87.5198 176.791C97.6367 169.265 113.222 172.854 122.305 185.062Z" fill="#1D3F30" stroke="#44F1A6"/>
<path d="M123.536 183.272C132.454 195.257 131.508 210.853 121.692 218.156C111.875 225.46 96.666 221.883 87.7488 209.897C78.8316 197.911 79.7767 182.316 89.5935 175.012C99.4103 167.709 114.619 171.286 123.536 183.272Z" fill="#1D3F30" stroke="#44F1A6"/>
<path d="M120.259 186.019C127.455 195.692 126.676 208.25 118.786 214.121C110.895 219.991 98.6429 217.128 91.4469 207.455C84.2508 197.783 85.0297 185.224 92.9204 179.354C100.811 173.484 113.063 176.347 120.259 186.019Z" fill="#182922" stroke="#44F1A6"/>
<path fill-rule="evenodd" clip-rule="evenodd" d="M108.555 198.984L98.35 185.268L101.807 199.087L108.555 198.984ZM108.555 198.984L98.3503 185.268L110.592 192.551L108.555 198.984ZM103.377 201.198L110.124 201.095L112.162 194.662L113.264 205.315L103.377 201.198Z" fill="#44F1A6"/>
<path d="M316.068 300.008C304.105 288.221 305.94 266.735 320.457 252.001C334.973 237.268 356.43 235.114 368.393 246.901C380.357 258.689 378.522 280.175 364.005 294.908C349.489 309.642 328.032 311.796 316.068 300.008Z" fill="#1D3F30" stroke="#44F1A6"/>
<path d="M318.275 301.692C312.847 296.345 310.824 288.512 312.002 280.12C313.179 271.729 317.557 262.813 324.878 255.383C332.199 247.953 341.048 243.443 349.422 242.141C357.795 240.839 365.657 242.746 371.084 248.093C376.512 253.441 378.535 261.273 377.357 269.665C376.18 278.057 371.802 286.973 364.481 294.403C357.161 301.833 348.311 306.342 339.937 307.644C331.564 308.947 323.702 307.04 318.275 301.692Z" fill="#1D3F30" stroke="#44F1A6"/>
<path d="M324.751 298.053C320.394 293.76 318.769 287.462 319.725 280.698C320.681 273.934 324.217 266.74 330.13 260.739C336.042 254.738 343.183 251.095 349.932 250.039C356.681 248.983 363.003 250.514 367.36 254.807C371.716 259.1 373.342 265.398 372.386 272.162C371.43 278.926 367.893 286.12 361.981 292.121C356.068 298.122 348.927 301.764 342.178 302.821C335.429 303.877 329.108 302.345 324.751 298.053Z" fill="#182922" stroke="#44F1A6"/>
<path fill-rule="evenodd" clip-rule="evenodd" d="M342.104 280.347L357.989 262.982L339.63 270.818L342.104 280.347ZM342.104 280.347L357.989 262.982L351.909 281.861L342.104 280.347ZM337.185 273.489L339.659 283.018L349.464 284.532L334.771 288.361L337.185 273.489Z" fill="#44F1A6"/>
<path d="M138.704 74.6998C135.484 83.988 125.66 88.9798 116.787 85.904C107.913 82.8281 103.286 72.8269 106.506 63.5388C109.725 54.2506 119.55 49.2587 128.423 52.3346C137.296 55.4104 141.924 65.4116 138.704 74.6998Z" fill="#1D3F30" stroke="#44F1A6"/>
<path d="M138.953 72.7589C135.793 81.877 126.226 86.7942 117.618 83.8104C109.011 80.8266 104.54 71.0436 107.7 61.9255C110.861 52.8074 120.428 47.8902 129.035 50.874C137.643 53.8578 142.114 63.6408 138.953 72.7589Z" fill="#1D3F30" stroke="#44F1A6"/>
<path d="M135.886 71.8678C133.344 79.2023 125.652 83.1499 118.739 80.7536C111.826 78.3574 108.229 70.4965 110.771 63.162C113.313 55.8275 121.005 51.8799 127.917 54.2761C134.83 56.6724 138.428 64.5332 135.886 71.8678Z" fill="#182922" stroke="#44F1A6"/>
<path fill-rule="evenodd" clip-rule="evenodd" d="M122.18 69.8298L125.845 59.2548L119.16 66.0496L122.18 69.8298ZM122.18 69.8298L125.845 59.2549L126.891 68.7293L122.18 69.8298ZM118.596 67.6764L121.615 71.4566L126.326 70.356L120.487 74.7104L118.596 67.6764Z" fill="#44F1A6"/>
<path d="M340.571 147.099C334.57 155.165 335.285 165.664 341.917 170.598C348.549 175.532 358.811 173.199 364.811 165.133C370.812 157.067 370.097 146.568 363.465 141.634C356.833 136.7 346.572 139.033 340.571 147.099Z" fill="#1D3F30" stroke="#44F1A6"/>
<path d="M339.752 145.908C333.86 153.828 334.513 164.084 340.944 168.869C347.375 173.653 357.387 171.331 363.278 163.411C369.17 155.492 368.517 145.235 362.086 140.451C355.655 135.667 345.644 137.989 339.752 145.908Z" fill="#1D3F30" stroke="#44F1A6"/>
<path d="M341.931 147.735C337.184 154.117 337.726 162.354 342.876 166.185C348.027 170.017 356.072 168.169 360.82 161.788C365.567 155.407 365.025 147.17 359.874 143.338C354.724 139.506 346.678 141.354 341.931 147.735Z" fill="#182922" stroke="#44F1A6"/>
<path fill-rule="evenodd" clip-rule="evenodd" d="M356.364 147.136L356.364 147.136L348.224 151.978L349.579 156.256L349.579 156.256L354.065 156.324L356.364 147.136L356.364 147.136ZM353.022 157.727L348.535 157.659L347.181 153.382L346.448 160.465L353.022 157.727Z" fill="#44F1A6"/>
<path d="M155.233 238.398C142.233 231.926 130.098 224.674 123 218.5M177.41 247.584C199.14 254.86 225.091 258.677 253 253.844" stroke="#44F1A6"/>
<path d="M341 170C337.75 173.114 330.748 178.747 322.381 184.506M295 200C301.31 197.439 308.188 193.649 314.714 189.553" stroke="#44F1A6"/>
<path d="M116.988 86.1023C115.233 98.2915 116.377 117.538 128.711 135.202M189.82 171.582C164.027 165.601 146.896 155.375 135.719 143.726" stroke="#44F1A6"/>
<path d="M314 297C304.821 302.64 292.289 307.817 278.5 311.021M264.5 313.495C267.021 313.191 269.525 312.811 272 312.364" stroke="#44F1A6"/>
<path d="M371 247.5C373.548 245.316 375.832 242.982 377.862 240.5M392 201C391 216.5 388.151 224.803 381.8 235" stroke="#44F1A6"/>
<path d="M48.8886 226.182L47.2918 228.105L44.8385 230.748L42.6175 234.362L43.5468 238.253L49.1797 244.618L53.7455 248.669L57.5926 251.862L61.0913 253.597L64.1254 253.386L67.4135 252.087L69.729 251.02L69.54 245.924L68.1245 242.15L67.1735 240.321L65.5257 235.574L63.2536 232.518L57.1344 226.268L50.8339 225.717L48.8886 226.182Z" fill="#1D3F30"/>
<path d="M125.5 239C123.293 236.648 116.851 233.082 115.276 232.944L117.5 230L121 230C121.919 230.98 124.42 232.919 126.534 234.882C128.648 236.844 128.901 240.485 128.763 242.06L126.774 246.648C128 243.82 127.707 241.352 125.5 239Z" fill="#1D3F30"/>
<path d="M106.988 271.422C104.265 272.073 102.026 274.321 101.247 275.364L104.745 277.099L108.868 277.142L114.007 272.83C112.802 272.09 109.711 270.772 106.988 271.422Z" fill="#1D3F30"/>
<path d="M45.3785 306.186C45.5643 306.964 44.0527 309.244 43.2736 310.287L38.5406 299.08L38.2356 293.498L41.1318 294.863L44.2386 299.261C44.5411 301.245 45.1926 305.408 45.3785 306.186Z" fill="#1D3F30"/>
<path d="M104.477 291.042L109.297 294.004L116.432 295.898L122.711 298.511L129.571 303.555L136.641 311.634L133.745 310.269L125.796 304.971L118.08 300.645L111.918 298.518L104.18 296.254L102.118 296.232L94.068 277.593L94.1331 271.408L98.5176 281.156L101.603 287.616L104.477 291.042Z" fill="#1D3F30"/>
<path d="M92.5209 251.745C86.534 249.062 79.603 250.032 76.8859 250.853L82.9107 254.554L84.3696 254.206L92.5937 256.354L97.2974 258.829L102.255 260.215L104.57 259.148C103.049 257.798 98.5079 254.427 92.5209 251.745Z" fill="#1D3F30"/>
<path d="M144.067 331.965L139.182 335.188L141.919 340.189L147.065 346.671L152.001 350.118L155.406 349.305L156.03 347.614L153.272 344.674L146.782 339.027L144.067 331.965Z" fill="#1D3F30"/>
<path d="M51.1607 229.237L49.9341 230.559L50.1447 233.593L52.0683 235.189L55.4508 236.438L59.9222 237.94L61.8458 239.537L64.2123 245.141L65.5769 246.55L66.6439 244.56L65.2283 240.785L63.0941 236.154L60.8221 233.099L57.091 230.391L53.5923 228.657L51.1607 229.237Z" fill="#276C4E"/>
<path d="M36.4766 230.174C30.0373 236.072 29.0733 242.224 30.9318 250.005C31.7063 253.248 33.4494 257.198 35.781 259.128M36.4766 230.174C35.7896 233.35 37.1697 237.72 41.1879 243.443M36.4766 230.174C37.7318 229.025 39.9846 227.581 42.7413 226.499M71.1445 254.794C74.7083 250.345 69.676 238.806 61.584 229.832C55.9674 223.604 48.3218 224.309 42.7413 226.499M71.1445 254.794C69.3874 256.13 66.5036 258.317 63.4797 260.607M71.1445 254.794C70.9252 255.068 70.6474 255.351 70.3188 255.641M71.1445 254.794C71.6925 254.11 72.0788 253.604 72.4622 253.191M61.4909 261.727C56.6338 264.177 51.7716 265.972 49.5651 265.603C47.3587 265.234 43.84 264.171 40.2551 262.172M61.4909 261.727C57.4113 261.583 52.6643 259.208 47.5319 254.009M61.4909 261.727C62.6435 261.145 66.2889 258.357 67.2622 257.778M44.9406 244.089C42.9009 242.006 41.1879 243.443 41.1879 243.443M41.1879 243.443C39.9613 244.764 39.7726 246.557 42.4439 250.854C43.8352 253.092 46.1705 255.398 47.5319 254.009M47.5611 248.604C48.3959 249.946 49.8332 251.659 47.5319 254.009M42.7413 245.642C43.8084 247.958 44.7394 249.586 46.1966 251.5M40.2551 262.172C39.0735 263.311 37.5769 266.204 41.0437 268.666C41.6316 269.084 42.2294 269.424 42.831 269.693M40.2551 262.172C38.7444 261.33 37.222 260.321 35.781 259.128M53.2961 268.31C53.7625 267.964 52.3397 269.032 53.2961 268.31ZM53.2961 268.31C54.3061 267.549 55.672 266.517 57.2155 265.349M53.2961 268.31C54.6489 268.573 57.3536 268.354 60.3636 267.768M53.2961 268.31C51.1635 269.896 48.1505 270.941 45.0517 270.381M42.831 269.693C41.9237 271.312 40.8644 273.686 39.9476 276.573M42.831 269.693C43.5689 270.023 44.3128 270.248 45.0517 270.381M56.5575 327.163C58.1424 330.211 61.9655 336.461 64.5786 337.07C66.7926 337.587 71.0175 337.623 74.0571 335.861C75.5018 335.024 76.6788 333.78 77.2447 331.989C79.001 326.429 78.1879 323.025 76.1482 320.941C75.6343 320.417 75.2909 319.786 74.9965 319.16M56.5575 327.163C56.3325 325.503 56.7156 321.368 60.0486 318.104C63.3815 314.84 64.9376 314.181 65.299 314.259M56.5575 327.163C55.7277 326.583 54.6044 325.642 53.3037 324.342M60.2655 297.49C60.1762 298.36 60.1424 299.227 60.1578 300.086M60.2655 297.49L70.2025 298.201L80.3982 312.908M60.2655 297.49C60.1452 296.147 59.4674 292.745 57.7185 289.873M42.9997 309.838C44.3951 308.991 46.643 305.884 44.471 300.234C42.299 294.584 39.1618 293.448 37.8647 293.587M42.9997 309.838C42.4692 308.807 41.9495 307.731 41.4456 306.611M42.9997 309.838C46.4401 316.53 50.3343 321.373 53.3037 324.342M37.8647 293.587C37.9714 294.904 38.1487 296.235 38.4077 297.57M37.8647 293.587C37.4504 288.475 38.0968 283.565 39.1438 279.402M38.4077 297.57C38.7812 299.494 39.3248 301.427 40.0723 303.341C40.5133 304.47 40.9725 305.56 41.4456 306.611M38.4077 297.57C39.2626 297.879 41.1349 299.18 41.7854 301.903C42.4358 304.627 41.8299 306.177 41.4456 306.611M65.299 314.259C67.0512 316.221 68.9543 317.191 70.4936 316.637C71.0573 316.435 71.5351 316.325 71.9446 316.291M65.299 314.259C62.6015 311.239 60.2617 305.868 60.1578 300.086M67.6701 319.882C67.8952 321.542 68.9057 324.625 71.1471 323.678C73.3886 322.732 74.6473 320.272 74.9965 319.16M74.9965 319.16C74.277 317.631 73.8506 316.134 71.9446 316.291M53.3037 324.342C53.3284 322.279 54.2344 317.436 57.6604 314.562M60.1578 300.086L71.3074 315.415M71.9446 316.291L71.3074 315.415M77.9182 324.117C78.3866 326.419 83.7171 336.252 89.0928 346.637C91.7899 351.848 94.4985 357.198 96.6101 361.806M104.5 323.423L111.145 320.036M104.5 323.423C102.047 322.124 95.9482 319.914 91.1808 321.464M104.5 323.423C106.746 325.734 109.144 328.977 111.152 332.629C113.615 337.108 115.49 342.202 115.774 346.948C115.951 349.902 116.106 353.527 116.336 357.094M110.75 317.304L111.145 320.036M111.145 320.036C113.038 322.34 118.914 324.293 122.517 327.345M93.9008 270.436C94.7671 272.628 97.5203 279.133 101.603 287.616C102.317 289.1 103.21 290.246 104.246 291.148M93.9008 270.436C95.5936 272.067 98.3672 274.269 101.337 275.741M93.9008 270.436L94.0418 277.483L101.764 296.085M93.9008 270.436C92.9766 268.718 90.681 264.703 88.892 262.379M111.487 247.215C110.653 245.872 108.949 241.185 111.458 238.483C112.685 237.162 113.371 239.313 114.471 240.333C115.792 241.56 116.588 240.856 116.151 239.932C115.048 237.598 115.082 235.038 115.578 232.9M111.487 247.215C111.135 247.568 110.708 248.019 110.246 248.539C109.588 249.279 108.859 250.158 108.17 251.091C106.874 252.846 105.72 254.793 105.449 256.368C105.278 257.359 105.184 258.245 105.139 259.012M111.487 247.215C111.65 247.176 112.312 247.223 113.665 247.723M105.139 259.012C101.278 255.822 91.5089 249.519 83.3243 249.829C80.1928 249.947 77.7696 250.479 75.9349 251.175M105.139 259.012C104.127 259.917 100.949 260.988 96.3356 258.031C91.7223 255.073 85.1374 254.216 82.4216 254.157M71.3074 315.415C73.5133 314.958 76.8542 314.103 80.3982 312.908M104.246 291.148C110.616 296.696 119.481 293.741 128.366 302.815C129.587 304.062 135.08 308.409 138.096 313.6M104.246 291.148C103.797 292.273 102.956 294.045 101.764 296.085M96.6101 361.806C97.1298 362.94 97.6133 364.029 98.0516 365.06M96.6101 361.806C97.2599 362.083 98.2519 362.406 99.4787 362.662M116.336 357.094C116.777 363.929 117.49 370.552 119.15 371.844C119.596 372.191 120.314 372.948 121.161 373.934M116.336 357.094C116.409 358.105 115.177 360.558 109.67 362.285C109.51 362.335 109.35 362.383 109.19 362.428M98.0516 365.06C99.7682 369.098 100.791 372.244 100.575 373.71C99.3997 381.702 105.054 386.006 115.804 390.122C124.074 393.287 127.832 388.106 128.47 385.04C128.734 383.775 124.152 377.421 121.161 373.934M98.0516 365.06C99.7356 366.029 104.482 367.534 109.997 365.806M101.337 275.741C101.762 274.65 103.487 272.259 106.988 271.422C110.49 270.586 113.152 271.929 114.045 272.705M101.337 275.741C102.18 276.159 103.04 276.518 103.894 276.788M114.045 272.705C113.454 273.474 112.859 274.176 112.267 274.788M114.045 272.705C116.2 269.903 118.307 266.216 120.038 262.788C121.019 260.846 121.88 258.988 122.561 257.422M103.894 276.788C106.362 277.568 108.792 277.608 110.697 276.191C111.215 275.806 111.74 275.333 112.267 274.788M103.894 276.788C104.015 276.206 104.935 274.881 107.659 274.231C110.382 273.58 111.866 274.331 112.267 274.788M118.474 249.658C122.635 252.366 123.515 254.109 123.435 254.642M123.435 254.642C123.462 254.989 123.43 255.345 123.283 255.707C123.073 256.224 122.831 256.8 122.561 257.422M123.435 254.642C123.342 253.465 122.568 252.401 123.326 251.584C123.817 251.056 125.262 249.405 126.533 247.22M80.3982 312.908C85.4718 311.196 90.9619 308.787 94.1344 305.85C95.6703 304.428 97.0606 302.852 98.2897 301.259M80.3982 312.908C80.8922 313.968 81.4447 315.16 82.0397 316.45M99.4787 362.662C99.1762 360.678 98.1256 355.275 96.3427 349.532C94.7524 344.41 86.9512 327.096 82.0397 316.45M99.4787 362.662C102.025 363.195 105.583 363.445 109.19 362.428M101.764 296.085C100.819 297.704 99.6537 299.492 98.2897 301.259M101.764 296.085C102.939 296.169 104.322 296.381 105.828 296.698M138.096 313.6C140.115 317.076 141.896 320.722 142.579 323.581C143.04 325.511 143.343 327.303 143.617 328.988C143.727 329.664 143.832 330.323 143.941 330.967M138.096 313.6C137.42 312.97 136.514 312.221 135.45 311.404M39.1438 279.402C33.7999 277.079 29.086 269.363 32.7252 263.97C36.3644 258.577 35.781 259.128 35.781 259.128M39.1438 279.402C39.3921 278.414 39.663 277.469 39.9476 276.573M115.578 232.9C116.185 230.289 117.743 230.181 118.5 230C119.959 229.652 123.427 230.483 127.253 235.738C129.954 239.45 128.441 243.938 126.533 247.22M115.578 232.9C116.612 232.644 122.143 235.278 125.5 239C128.856 242.722 127.5 245 126.533 247.22M75.9349 251.175C77.209 251.269 79.6746 252.044 82.4216 254.157M75.9349 251.175C73.968 251.922 73.2209 252.374 72.4622 253.191M75.9349 251.175C76.3856 252.147 76.776 253.722 76.6472 255.536M85.9014 258.466C84.1451 255.829 84.1871 255.515 82.4216 254.157M39.9476 276.573C40.7992 276.487 42.0516 276.546 43.5212 276.887M53.9791 284.083C50.6719 279.576 46.6151 277.605 43.5212 276.887M129.976 339.443C134.241 349.007 133.562 354.337 136.047 356.499C140.965 360.779 155.297 359.612 158.353 357.34C158.67 357.104 158.916 356.822 159.096 356.499M129.976 339.443C131.888 340.357 136.129 341.675 141.204 338.817M129.976 339.443C129.518 338.416 129.004 337.341 128.422 336.216M128.422 336.216C127.347 334.136 126.043 331.884 124.447 329.454C123.947 328.692 123.284 327.993 122.517 327.345M128.422 336.216C129.778 336.577 132.856 337.11 138.21 335.42C138.545 335.314 138.862 335.207 139.161 335.1M143.941 330.967C144.241 331.698 143.647 333.486 139.161 335.1M143.941 330.967C144.473 334.118 145.472 336.811 147.434 339.386C148.602 340.919 150.111 342.411 152.067 343.934C153.203 344.819 154.254 345.786 155.186 346.787M139.161 335.1C141.584 340.206 148.419 350.15 152.488 350.001C156.557 349.853 155.982 347.797 155.186 346.787M155.186 346.787C156.972 348.706 158.32 350.747 158.994 352.561C159.57 354.112 159.653 355.497 159.096 356.499M109.19 362.428C110.55 367.406 113.804 377.439 115.935 377.753C118.599 378.145 122.5 376.185 121.161 373.934M61.944 345.411C60.297 344.725 58.8897 343.682 57.6604 342.421M41.7587 318.36C45.3453 322.533 48.7849 327.129 50.1352 329.725C51.2753 331.917 52.4257 334.552 53.8344 337.07M69.3058 265.001C70.2927 264.535 71.2493 263.972 72.1466 263.294C72.3673 263.127 72.5781 262.958 72.7794 262.788M69.3058 265.001C69.912 264.7 70.8139 265.463 71.8708 266.444C72.9277 267.425 74.0727 268.489 74.513 268.897M69.3058 265.001C68.9066 265.189 68.4894 265.371 68.058 265.547M88.2615 287.718C89.8996 289.555 93.6534 293.936 95.564 296.77C97.4745 299.603 98.1772 300.943 98.2897 301.259M82.0397 316.45C84.8688 315.774 92.0456 313.032 98.1194 307.469C104.193 301.906 105.789 297.97 105.828 296.698M105.828 296.698C109.603 297.492 114.145 298.939 118.08 300.645C122.589 302.599 130.635 307.708 135.45 311.404M122.517 327.345C122.996 327.23 124.244 326.315 125.402 323.571M122.517 327.345C123.437 327.639 125.463 327.978 126.215 326.976M57.2155 265.349L60.3636 267.768M57.2155 265.349C58.0442 264.722 58.9242 264.057 59.8278 263.373M60.3636 267.768C62.9222 267.27 65.7014 266.506 68.058 265.547M59.8278 263.373L63.2815 267.071M59.8278 263.373C61.025 262.466 62.2637 261.528 63.4797 260.607M63.4797 260.607L68.058 265.547M67.2622 257.778L72.7794 262.788M67.2622 257.778C68.4962 257.044 69.5476 256.323 70.3188 255.641M72.7794 262.788C74.1966 261.585 75.1427 260.287 75.7469 258.997M70.3188 255.641L75.7469 258.997M75.7469 258.997C76.3029 257.81 76.5695 256.63 76.6472 255.536M72.4622 253.191L76.6472 255.536M45.0517 270.381L43.8965 274.154M43.5212 276.887C42.7681 278.756 41.2766 283.416 41.3348 287.103M122.561 257.422C122.223 256.645 121.143 254.881 119.52 254.035M135.45 311.404C135.639 312.044 135.549 313.951 133.68 316.453M159.096 356.499C167.184 360.634 184.527 366.699 205.5 368.08M239 365.806C234.625 366.742 230.279 367.393 226 367.805M221 368.181C217.261 368.385 213.585 368.414 210 368.3M42.7413 226.499C38.2259 216.002 31.6734 193.136 31.9669 167.5M35.781 137.5C33.8436 145.002 32.7355 152.575 32.2517 160M52.2929 225.369C56.6166 225.535 61.6754 228.063 65.7579 236.546C69.8405 245.03 71.2179 250.596 68.8725 251.738C60.5833 255.775 58.9136 255.241 43.5468 238.253C39.7586 234.065 47.9692 225.202 52.2929 225.369ZM53.106 228.773C55.2061 228.957 60.1904 230.885 63.3263 237.127C66.4623 243.369 66.8689 246.22 65.5333 246.367C64.0308 246.533 62.586 238.332 59.3196 237.57C50.6093 235.538 48.9397 232.852 49.934 230.559C50.7295 228.724 52.3801 228.604 53.106 228.773Z" stroke="#44F1A6"/>
<path d="M88.7848 273.309C92.3383 278.864 91.6377 285.381 87.588 287.972C83.5383 290.562 77.3276 288.466 73.7741 282.911C70.2206 277.356 70.9211 270.839 74.9709 268.248C79.0206 265.658 85.2312 267.754 88.7848 273.309Z" fill="#1D3F30" stroke="#44F1A6"/>
<path d="M83.4375 280.146L85.267 282.912C82.8432 284.515 79.0217 283.008 76.7314 279.545C74.4411 276.082 74.5494 271.976 76.9732 270.372C75.4049 271.41 75.3348 274.067 76.8167 276.308C77.65 277.567 78.7965 278.427 79.9194 278.754C79.9205 278.756 79.9217 278.758 79.9228 278.759C80.8659 280.185 82.4395 280.806 83.4375 280.146Z" fill="#44F1A6"/>
<path d="M79.9228 278.759L77.9866 280.04C75.6964 276.577 75.8046 272.471 78.2285 270.868C80.6523 269.264 84.4738 270.772 86.7641 274.234C85.2822 271.994 82.8094 271.018 81.241 272.056C80.3592 272.639 79.951 273.735 80.0261 274.98C80.0249 274.981 80.0237 274.982 80.0224 274.982C79.0244 275.643 78.9798 277.334 79.9228 278.759Z" fill="#44F1A6"/>
<path d="M80.0224 274.982L78.1929 272.216C80.6167 270.613 84.4383 272.121 86.7285 275.583C89.0188 279.046 88.9105 283.152 86.4867 284.756C88.0551 283.718 88.1251 281.061 86.6432 278.821C85.8099 277.561 84.6634 276.701 83.5406 276.374C83.5394 276.372 83.5383 276.371 83.5371 276.369C82.594 274.943 81.0205 274.322 80.0224 274.982Z" fill="#44F1A6"/>
<path d="M83.5371 276.369L85.4733 275.088C87.7636 278.551 87.6553 282.657 85.2315 284.261C82.8076 285.864 78.9861 284.356 76.6958 280.894C78.1778 283.134 80.6505 284.11 82.2189 283.072C83.1007 282.489 83.5089 281.394 83.4338 280.148C83.4351 280.147 83.4363 280.146 83.4375 280.146C84.4356 279.486 84.4802 277.795 83.5371 276.369Z" fill="#44F1A6"/>
<path d="M341 83.5L338 86L339.5 83L345 80.5L350.5 81.5L351 84.5L345 82.5L341 83.5Z" fill="#276C4E"/>
<path d="M363 77.5L361 73.5L361.5 73L364.5 75L369 76.5L372.5 75.5L375.5 74L376.5 74.5L378 78L376.5 80L371.5 81.5L368 81L363 77.5Z" fill="#276C4E"/>
<path d="M377 108.5L375.5 112.5L376.5 113.5L378.5 112V115L379 119L381.5 120L382 113.5V110L379 106.5L377 108.5Z" fill="#276C4E"/>
<path d="M367.5 87L365 90L367.5 89L372.5 84.5L368.5 83.5L367.5 87Z" fill="#1D3F30"/>
<path d="M358.5 65L357.5 69.5L361 70V66L364.5 61L368 57L366 57.5L360.5 61.5L358.5 65Z" fill="#1D3F30"/>
<path d="M384 48L373 56.5L375.5 58L386 48H384Z" fill="#1D3F30"/>
<path d="M400.5 48.5L397.5 46.5L403 42L406 34.5L406.5 37.5L405.5 42L403.5 45.5L400.5 48.5Z" fill="#1D3F30"/>
<path d="M399 10V15C399.5 15.1667 400.6 15.5 401 15.5C401.4 15.5 402.5 14.5 403 14L405 11.5V1.5H404L401 4.5L399 10Z" fill="#1D3F30"/>
<path d="M380 81.5C380.667 81 382.2 79.7 383 78.5C384.831 75.7535 385.221 70.8978 383.697 66.7237M380 81.5C380.333 81.2251 380.8 79.7402 380 76C379 71.3247 374 66 370.5 69C368.474 70.7364 364.315 70.6582 361 70.1666M380 81.5C379.49 81.8317 378.866 82.1766 378.155 82.5M382 63.5C382.716 64.4849 383.279 65.5787 383.697 66.7237M382 63.5C385.333 61.1667 392.4 56.2 394 55C395.6 53.8 394.333 51.7217 393.5 50.8326M382 63.5C380.299 61.1611 378.055 59.0934 375.5 57.8354M357.736 69.5C357.788 72.8902 359.255 76.5387 362.5 80C364.211 81.8253 366.099 82.9077 368 83.4722M357.736 69.5C357.667 65.0545 360.029 61.053 364 58.5C365.852 57.3095 367.704 56.714 369.5 56.5836M357.736 69.5C358.59 69.7304 359.733 69.9787 361 70.1666M379 66C378.667 67.1667 378.4 69.9 380 71.5C382 73.5 383 72 382.5 70M361.616 79C361.116 80.1667 359.3 83 356.5 83C354.829 83 352.702 82.3161 350.5 81.7102M373 83.9069C374.938 83.7131 376.725 83.15 378.155 82.5M373 83.9069C371.464 85.7481 367.729 89.3423 363.5 91.1656M373 83.9069C371.399 84.067 369.694 83.9751 368 83.4722M349.5 89.3715C349.164 89.3522 348.832 89.3894 348.5 89.5C345.5 90.5 344 90.5 343.5 90C343 89.5 345 87.5 344.5 86.5C344 85.5 340 89.5 338.5 87C338.299 86.6655 338.17 86.3309 338.107 86M349.5 89.3715C350.167 89.2787 351.5 88.5745 351.5 86.5C351.5 85.8089 351.426 85.1279 351.315 84.5M349.5 89.3715C351.501 89.486 353.669 91.5973 357 92.1509M350.5 81.7102C348.09 81.0471 345.59 80.4775 343.5 81C340.035 81.8662 337.696 83.8578 338.107 86M350.5 81.7102C350.722 82.1985 351.093 83.243 351.315 84.5M357 92.1509C358.174 92.3462 359.493 92.3478 361 92C361.844 91.8053 362.681 91.5187 363.5 91.1656M357 92.1509C357.421 91.2673 358.211 89 358 87M378.155 82.5C378.68 82.9881 379.356 83.8255 380 84.9814M388.5 109C387 111.5 390.5 116 387.5 120C386.978 120.696 384.956 120.665 383 120.263M388.5 109C390 106.5 394.5 95.5 394 87.5C393.919 86.1995 393.824 85.0046 393.734 83.9069M388.5 109C388.167 108.5 387.1 107.3 385.5 106.5C383.9 105.7 380.751 105.833 379.377 106M393.5 47C395.333 48 399.3 50.4 400.5 52C401.7 53.6 401 54.6667 400.5 55M393.5 47C394.078 47.3467 395.489 47.5491 397.5 46.574M393.5 47C392.506 46.4476 390.193 46.0124 387 47.0631M372.5 56.7888C371.525 56.5859 370.521 56.5095 369.5 56.5836M372.5 56.7888C373.536 57.0043 374.54 57.3627 375.5 57.8354M372.5 56.7888C372.917 56.4308 374.723 55.0103 378.786 52M379.377 106C380.233 104.819 381.035 102.899 381.681 98.5M379.377 106C379.245 106.182 379.112 106.347 378.978 106.5M381.681 98.5C381.792 97.743 381.899 96.9126 382 96C382.54 91.1428 381.336 87.3778 380 84.9814M381.681 98.5C382.787 98 385.6 97.4 388 99M378.978 106.5C378.655 106.869 378.328 107.172 378 107.5C376.5 109 374.586 112.793 376 113.5C377 114 377.5 112 378.5 112C379.5 112 378 117 379 118.5C379.478 119.217 381.211 119.895 383 120.263M378.978 106.5C380.319 107.5 382.8 110.1 382 112.5C381 115.5 381 119.993 383 120.263M380 84.9814C380.794 83.6277 383.507 81.0784 388 81.7102C392.493 82.3421 393.695 83.4379 393.734 83.9069M393.734 83.9069C393.267 78.2523 392.906 75.1749 395 73.5C395.787 72.8703 397.615 72.092 400 71.0713M383.697 66.7237L400.5 55M400.5 55C401.5 55.3333 403.8 56.9 405 60.5C406.2 64.1 406.167 67.2507 406 68.3761M406 68.3761C407.05 67.8663 408.125 67.3169 409.204 66.7237M406 68.3761C403.826 69.4317 401.761 70.3176 400 71.0713M397.5 46.574C398.389 46.1428 399.396 45.4812 400.5 44.5C405 40.5 406 36 406 30.5C406 29.3064 405.812 28.1363 405.496 27M397.5 46.574C398.286 47.0077 399.345 47.6985 400.5 48.6101M409.204 66.7237C412.474 64.925 415.777 62.7232 418.5 60C426.5 52 430.5 42.5 433 31.5C434.702 24.0106 434.352 18.8873 433.799 16.5M409.204 66.7237C409.63 66.4825 409.986 64.5 408 58.5C407.006 55.4963 405.045 52.8808 403 50.8326M399.512 15.5C398.113 12.0903 398.775 7.63277 401.5 4.00001C403.072 1.90415 404.095 1.18099 405 1.32705M399.512 15.5C399.654 15.8447 399.816 16.1787 400 16.5C400.428 17.249 400.948 18.0667 401.5 18.9433M399.512 15.5C401.342 15.6667 405 14.6 405 9C405 3.40001 405 1.55137 405 1.32705M405 1.32705C405.822 1.45975 406.548 2.30993 407.5 3.50001C409.1 5.50001 408.5 11 408 13.5C408.183 13.7438 408.54 14.2373 409.075 15M401.5 18.9433C402.5 19.4244 405 20.098 407 18.9433C409 17.7887 409.217 15.8333 409.075 15M401.5 18.9433C402.283 20.1864 403.133 21.548 403.88 23M409.075 15C410.004 16.3228 411.47 18.4554 413.5 21.5C416.7 26.3 417.167 35.8333 417 40C417.5 39.1667 419.1 36.1 421.5 30.5C423.193 26.5489 424.249 22.2791 424.848 18.5M403.88 23C404.92 23.1667 407.3 23.1 408.5 21.5M403.88 23C404.534 24.2703 405.11 25.6099 405.496 27M425.569 10C426.113 6.11977 429.807 3.84674 433.5 2.00001C437.5 7.7486e-06 439 3.00001 438.5 6.00001C438.1 8.40001 435 13.3333 433.5 15.5C433.599 15.7482 433.702 16.0822 433.799 16.5M425.569 10C425.523 10.322 425.5 10.6552 425.5 11C425.5 11.8779 425.462 12.8891 425.378 14M425.569 10C425.879 11.1667 427.3 12.9 430.5 10.5C433.7 8.1 436.5 4.16667 437.5 2.5M425.378 14C425.919 15.5 427.6 18.3 430 17.5C432.4 16.7 433.533 16.5 433.799 16.5M425.378 14C425.275 15.3692 425.103 16.8901 424.848 18.5M424.848 18.5C425.232 19.6667 426.6 21.8 429 21M403 50.8326C404.667 50.6044 405.875 49.8592 409.075 47M403 50.8326C402.161 49.9922 401.307 49.2472 400.5 48.6101M338.107 86C339.238 84.8333 342.1 82.5 344.5 82.5C346.9 82.5 350.043 83.8333 351.315 84.5M363.5 91.1656C364.833 89.9075 367.6 87.013 368 85.5C368.4 83.987 368.167 83.5177 368 83.4722M400.5 48.6101C401.833 47.7401 404.8 45 406 41C407.2 37 406.164 30 405.496 27M361 70.1666C360.5 69.137 360.3 66.0622 363.5 62C366.7 57.9378 368.833 56.6965 369.5 56.5836M375.5 57.8354L387 47.0631M387 47.0631C385.376 47.5975 383.523 48.5164 381.5 50C380.5 50.733 379.598 51.3983 378.786 52M400 71.0713C408.876 80.4622 421.237 98.8087 428.418 122.5M429 196.5C430.717 190.75 431.97 185.075 432.818 179.5M378.786 52C368.521 45.0343 344.023 33.5758 314 31.5336M286.5 32.5C292.625 31.625 298.645 31.2285 304.5 31.2175M433.631 173C435.237 156.646 433.453 141.263 429.833 127.5M361 73.5C360.5 75.5 365.9 81.9 371.5 81.5C378.5 81 378 77.75 377.5 76C376.024 70.8326 372.747 77.3117 367.5 76C363.5 75 361.375 72 361 73.5Z" stroke="#44F1A6"/>
<defs>
<linearGradient id="paint0_linear" x1="226.692" y1="171.138" x2="226.692" y2="334.031" gradientUnits="userSpaceOnUse">
<stop stop-color="#44F1A6"/>
<stop offset="0.458333" stop-color="#44F1A6" stop-opacity="0"/>
</linearGradient>
</defs>
</svg>
