<svg xmlns="http://www.w3.org/2000/svg" viewBox="0 0 120 260"><defs><mask id="a" x="31.36" y="164.61" width="56.28" height="54.27" maskUnits="userSpaceOnUse"><g transform="translate(0.2 -0.2)"><path d="M86.4,165.8H32.1v44.7h0c.6,4.2,12.5,7.6,27.2,7.6s26.6-3.4,27.1-7.6h0v-.3h0Z" fill="#fff" fill-rule="evenodd"/></g></mask><mask id="b" x="29" y="148.16" width="61" height="24.9" maskUnits="userSpaceOnUse"><g transform="translate(0.2 -0.2)"><path d="M88.8,149.4h-59v14.1h0c0,4.9,13.2,8.8,29.5,8.8s29.5-3.9,29.5-8.8h0Z" fill="#fff" fill-rule="evenodd"/></g></mask></defs><rect x="0.5" y="0.5" width="119" height="259" rx="9.5" fill="none" stroke="#44f1a6"/><path d="M3.8,142.2h-1v65h1Zm3,1h-1v63h1Zm2,1,1,1v60h-1Zm5,4h-1v55h1Zm4,8,1,1v45h-1Zm6,25-1-1v23h1Zm3,5h1v17h-1Zm4,2h-1v16h1Z" transform="translate(0.2 -0.2)" fill="#44f1a6" fill-rule="evenodd"/><path d="M113.8,162.2l-1,1v41l1-1Zm3,0h-1v39h1Zm-8,3,1-1v42h-1Zm-3,3h-1v38h1Zm-5,6,1-1v32h-1Zm-2,4-1,1v26h1Zm-4,5,1-1v23h-1Zm-2,2-1,1v19h1Zm-3,2h1v17h-1Zm-1,0-1,1v16h1Z" transform="translate(0.2 -0.2)" fill="#44f1a6" fill-rule="evenodd"/><path d="M.8,31.2V77.7l8,3,17,2.5H37.3l21-6,3.5-4.5,2.5-5.5,7-4.5,6-2.5,9-2h6l3.5-1,2.5-2,.5-3V49.7H71.3l-3-1-3-1.5-1.5-2-1.5-3.5V38.2l-.5-3.5-2.5-2-4.5-1.5-6-1.5-6.5-1-8-1.5-3-1-3-2-1.5-2.5V19.2l1.5-2.5,1-1,.5-3,1.5-2,3-1h4.5l4-1.5,3.5-3,4-2.5,4.5-1.5H9.8a9,9,0,0,0-9,9Z" transform="translate(0.2 -0.2)" fill="#1d3f30" fill-rule="evenodd"/><path d="M88.3,212.2c0,1-.7,2-2.1,3.1A24.3,24.3,0,0,1,80,218a74.6,74.6,0,0,1-20.7,2.6A75.4,75.4,0,0,1,38.5,218a22,22,0,0,1-6.1-2.7c-1.5-1.1-2.1-2.1-2.1-3.1s.6-2,2.1-3a22,22,0,0,1,6.1-2.7,75.4,75.4,0,0,1,20.8-2.6A74.6,74.6,0,0,1,80,206.5a24.3,24.3,0,0,1,6.2,2.7C87.6,210.2,88.3,211.3,88.3,212.2Z" transform="translate(0.2 -0.2)" fill="#0f0f0f" stroke="#44f1a6"/><path d="M79.3,169.7v45l6-2.5.5-1.5v-44Z" transform="translate(0.2 -0.2)" fill="#276c4e"/><path d="M39.3,169.2v45.5l17.5,3,13.5-1,9-2v-45l-9,1.5-19,.5Z" transform="translate(0.2 -0.2)" fill="#0f0f0f"/><path d="M39.3,169.7l-6.5-2.5-.5,43,2.5,3,4.5,1.5Z" transform="translate(0.2 -0.2)" fill="#1d3f30"/><g mask="url(#a)"><path d="M32.1,165.8v-1h-1v1Zm54.3,0h1v-1h-1ZM32.1,210.5h-1v1h1Zm0,0h1v-.9h-.9Zm54.3,0v-1h-.9v.9Zm0,0v1h1v-1Zm0-.3h0Zm0,0h0ZM32.1,166.8H86.4v-2H32.1Zm1,43.7V165.8h-2v44.7Zm-1-1h0v2h0Zm27.2,7.6a69.2,69.2,0,0,1-18.6-2.2,17.5,17.5,0,0,1-5.6-2.3c-1.4-.8-1.9-1.6-2-2.2l-1.9.2c.1,1.5,1.3,2.7,2.8,3.7a25.3,25.3,0,0,0,6.1,2.6,74.6,74.6,0,0,0,19.2,2.2Zm26.1-6.7c-.1.6-.6,1.4-2,2.2a17.8,17.8,0,0,1-5.5,2.3,69.7,69.7,0,0,1-18.6,2.2v2a73.7,73.7,0,0,0,19.1-2.2,25.3,25.3,0,0,0,6.1-2.6c1.5-1,2.7-2.2,2.9-3.7Zm1-.9h0v2h0Zm-1,.7v.3h2v-.3Zm0,0Zm0,0Zm0-44.4v44.4h2V165.8Z" transform="translate(0.2 -0.2)" fill="#44f1a6"/></g><path d="M59.3,197.5v5a11.3,11.3,0,1,1,0-22.6,7.4,7.4,0,0,0-7.4,7.3,7.6,7.6,0,0,0,2.7,5.7h0A4.7,4.7,0,0,0,59.3,197.5Z" transform="translate(0.2 -0.2)" fill="#44f1a6"/><path d="M54.6,192.9h-5a11.3,11.3,0,0,1,22.6,0,7.3,7.3,0,0,0-12.9-4.7h0A4.7,4.7,0,0,0,54.6,192.9Z" transform="translate(0.2 -0.2)" fill="#44f1a6"/><path d="M59.3,188.2v-4.9a11.3,11.3,0,1,1,0,22.5,7.3,7.3,0,0,0,7.3-7.3,6.9,6.9,0,0,0-2.7-5.6h0A4.7,4.7,0,0,0,59.3,188.2Z" transform="translate(0.2 -0.2)" fill="#44f1a6"/><path d="M63.9,192.9h5a11.3,11.3,0,0,1-22.6,0,7.3,7.3,0,0,0,7.3,7.3,7.6,7.6,0,0,0,5.7-2.7h0A4.7,4.7,0,0,0,63.9,192.9Z" transform="translate(0.2 -0.2)" fill="#44f1a6"/><path d="M30.3,164.2l3,3h.5v-14l-3.5-2Z" transform="translate(0.2 -0.2)" fill="#276c4e"/><path d="M34.3,153.7l-.5,14,2.5,1v-14Z" transform="translate(0.2 -0.2)" fill="#1d3f30"/><path d="M55.8,157.7l-19.5-3v13.5l1.5,1,12.5,2,9.5.5,12.5-1,8.5-2v-14l-6.5,2Z" transform="translate(0.2 -0.2)" fill="#0f0f0f"/><path d="M81.3,154.7v3l-.5,10.5,1,.5,4.5-2,2-2.5v-14l-1.5,2Z" transform="translate(0.2 -0.2)" fill="#276c4e"/><g mask="url(#b)"><path d="M29.8,149.4v-1h-1v1Zm59,0h1v-1h-1Zm-59,14.1h0Zm59,0v-1h-1v1.1Zm0,0v1h1.1v-1Zm-59-13.1h59v-2h-59Zm1,13.1V149.4h-2v14.1Zm0,0Zm28.5,7.8a77.7,77.7,0,0,1-20.6-2.5,20,20,0,0,1-6-2.7c-1.4-1-1.9-1.9-1.9-2.6h-2c0,1.7,1.1,3.1,2.7,4.2a21.4,21.4,0,0,0,6.6,3,79.1,79.1,0,0,0,21.2,2.6Zm28.5-7.8c0,.7-.5,1.6-1.9,2.6a20.7,20.7,0,0,1-6.1,2.7,77.4,77.4,0,0,1-20.5,2.5v2a77.8,77.8,0,0,0,21.1-2.6,21.4,21.4,0,0,0,6.6-3c1.6-1.1,2.8-2.5,2.8-4.2Zm1-1h0v2h0Zm-1-13.1v14.1h2V149.4Z" transform="translate(0.2 -0.2)" fill="#44f1a6"/></g><path d="M88.3,149.4q0,1.5-2.1,3a24.2,24.2,0,0,1-6.2,2.8,79.1,79.1,0,0,1-20.7,2.5,79.9,79.9,0,0,1-20.8-2.5,21.9,21.9,0,0,1-6.1-2.8c-1.5-1-2.1-2-2.1-3s.6-2,2.1-3a19.4,19.4,0,0,1,6.1-2.7,75.4,75.4,0,0,1,20.8-2.6A74.6,74.6,0,0,1,80,143.7a21.3,21.3,0,0,1,6.2,2.7Q88.3,147.9,88.3,149.4Z" transform="translate(0.2 -0.2)" fill="#0f0f0f" stroke="#44f1a6"/><path d="M83.5,151.5c0,.6-.5,1.4-1.7,2.2a26.3,26.3,0,0,1-5.1,2.1,70.5,70.5,0,0,1-17.4,1.9,69.9,69.9,0,0,1-17.4-1.9,27.6,27.6,0,0,1-5.2-2.1c-1.2-.8-1.7-1.6-1.7-2.2s.5-1.5,1.7-2.3a22.6,22.6,0,0,1,5.2-2,69.4,69.4,0,0,1,17.4-2,70,70,0,0,1,17.4,2,21.6,21.6,0,0,1,5.1,2C83,150,83.5,150.8,83.5,151.5Z" transform="translate(0.2 -0.2)" fill="none" stroke="#44f1a6"/><path d="M34.5,153.5H33.3v14.1h1.2Zm2.3.6H35.7v14.1h1.1Z" transform="translate(0.2 -0.2)" fill="#44f1a6" fill-rule="evenodd"/><path d="M80.3,155.3h1.2v14.1H80.3Z" transform="translate(0.2 -0.2)" fill="#44f1a6"/><path d="M38.6,169.4h1.2v45.2H38.6Z" transform="translate(0.2 -0.2)" fill="#44f1a6"/><path d="M78.8,169.4h1.1v45.8H78.8Z" transform="translate(0.2 -0.2)" fill="#44f1a6"/><path d="M84.8,233.7l-3.5,15,3.5-7.5,9-7,4.5-9.5-4.5-5.5Z" transform="translate(0.2 -0.2)" fill="#1d3f30"/><path d="M48.8,232.2l-3,3.5,31.5,11.5Z" transform="translate(0.2 -0.2)" fill="#1d3f30"/><path d="M32.8,204.2l-15.5-2L.8,207.7m85.5-3.5,24,2,8.5-7M22.3,245l-2.5.2-11,7.5-7.5,1.5m21-9.2,16.5-1.8,6.8-7.5M22.3,245l7,3.7,12.5,2.5m77-17-16.5-4L98,224.5m0,0-4.2-5.8-9,15.5-3.5,14.5M98,224.5l-4.2,9.7-9,7-3.5,7.5m0,0L48.8,232.2l-3.2,3.5m35.7,13-35.7-13M66.8.7C42.3.7,48,7.6,39.8,9.4m79.5,40.3H98.8M7.8,226.2h4m-2,2h4.5m-6.5,2h-3m99-18h5m-8,3h5m-2,3h4M.8,77.7c20,9,57.7,7.7,61-5.5,2.5-10,19.3-14,29-14,2.6.2,8-.7,8-5.5v-3m0,0H74.3c-12.5,0-12-9-12-12s1-6.5-21-9c-17.6-2-15.7-9.1-12.5-12.5,2.1.2-2-6.5,6.5-6.5a28.1,28.1,0,0,0,4.5-.3M.8,141.7c5.6.5,17.4,5.6,19,22,2,20.5,7,24.5,13,24.5m53.5,0c2.5,0,8.9-2.7,14.5-13.5s14.3-13.1,18-13M39.8,9.4c-3,2.6-7.8,8.7-3,12.3s29.5-3,33.5,4.5,33.6,6.5,48.5,6" transform="translate(0.2 -0.2)" fill="none" stroke="#44f1a6"/><circle cx="72.5" cy="109.5" r="14" fill="#182922" stroke="#44f1a6"/><circle cx="72.5" cy="109.5" r="11.1" fill="#1d3f30" stroke="#44f1a6" stroke-dasharray="2 2"/><path d="M72.3,112.6v3a6.9,6.9,0,1,1,0-13.8,4.5,4.5,0,0,0-4.5,4.5,4.3,4.3,0,0,0,1.6,3.4h0A2.9,2.9,0,0,0,72.3,112.6Z" transform="translate(0.2 -0.2)" fill="#44f1a6"/><path d="M69.4,109.7h-3a6.9,6.9,0,0,1,13.8,0,4.5,4.5,0,0,0-4.5-4.4,4.3,4.3,0,0,0-3.4,1.6h0A2.9,2.9,0,0,0,69.4,109.7Z" transform="translate(0.2 -0.2)" fill="#44f1a6"/><path d="M72.3,106.9v-3a6.9,6.9,0,0,1,6.9,6.9,7,7,0,0,1-7,6.9,4.5,4.5,0,0,0,4.5-4.5,4.6,4.6,0,0,0-1.6-3.5h0A2.9,2.9,0,0,0,72.3,106.9Z" transform="translate(0.2 -0.2)" fill="#44f1a6"/><path d="M75.1,109.7h3a6.9,6.9,0,0,1-6.9,6.9,6.8,6.8,0,0,1-6.8-6.9,4.4,4.4,0,0,0,4.4,4.5,4.6,4.6,0,0,0,3.5-1.6h0A2.9,2.9,0,0,0,75.1,109.7Z" transform="translate(0.2 -0.2)" fill="#44f1a6"/><circle cx="47" cy="81" r="11.5" fill="#182922" stroke="#44f1a6"/><circle cx="47" cy="81" r="9.1" fill="#1d3f30" stroke="#44f1a6" stroke-dasharray="2 2"/><path d="M46.8,83.6v2.5a5.7,5.7,0,0,1,0-11.4,3.6,3.6,0,0,0-3.7,3.7,3.6,3.6,0,0,0,1.3,2.8h0A2.4,2.4,0,0,0,46.8,83.6Z" transform="translate(0.2 -0.2)" fill="#44f1a6"/><path d="M44.4,81.2H41.9a5.8,5.8,0,0,1,5.7-5.7,5.7,5.7,0,0,1,5.7,5.7,3.7,3.7,0,0,0-3.7-3.7,3.8,3.8,0,0,0-2.8,1.4h0A2.3,2.3,0,0,0,44.4,81.2Z" transform="translate(0.2 -0.2)" fill="#44f1a6"/><path d="M46.8,78.9V76.4a5.7,5.7,0,0,1,5.7,5.7,5.8,5.8,0,0,1-5.7,5.7,3.7,3.7,0,0,0,3.6-3.7,3.5,3.5,0,0,0-1.3-2.9h0A2.3,2.3,0,0,0,46.8,78.9Z" transform="translate(0.2 -0.2)" fill="#44f1a6"/><path d="M49.1,81.2h2.5a5.6,5.6,0,0,1-5.7,5.7,5.7,5.7,0,0,1-5.7-5.7,3.7,3.7,0,0,0,3.7,3.7,3.8,3.8,0,0,0,2.9-1.3h0A2.3,2.3,0,0,0,49.1,81.2Z" transform="translate(0.2 -0.2)" fill="#44f1a6"/><circle cx="47" cy="138" r="11.5" fill="#182922" stroke="#44f1a6"/><circle cx="47" cy="138" r="9.1" fill="#1d3f30" stroke="#44f1a6" stroke-dasharray="2 2"/><path d="M46.8,140.6v2.5a5.7,5.7,0,1,1,0-11.4,3.6,3.6,0,0,0-3.7,3.7,3.6,3.6,0,0,0,1.3,2.8h0A2.4,2.4,0,0,0,46.8,140.6Z" transform="translate(0.2 -0.2)" fill="#44f1a6"/><path d="M44.4,138.2H41.9a5.8,5.8,0,0,1,5.7-5.7,5.7,5.7,0,0,1,5.7,5.7,3.7,3.7,0,0,0-3.7-3.7,3.8,3.8,0,0,0-2.8,1.4h0A2.3,2.3,0,0,0,44.4,138.2Z" transform="translate(0.2 -0.2)" fill="#44f1a6"/><path d="M46.8,135.9v-2.5a5.7,5.7,0,0,1,5.7,5.7,5.8,5.8,0,0,1-5.7,5.7,3.7,3.7,0,0,0,3.6-3.7,3.5,3.5,0,0,0-1.3-2.9h0A2.3,2.3,0,0,0,46.8,135.9Z" transform="translate(0.2 -0.2)" fill="#44f1a6"/><path d="M49.1,138.2h2.5a5.6,5.6,0,0,1-5.7,5.7,5.7,5.7,0,0,1-5.7-5.7,3.7,3.7,0,0,0,3.7,3.7,3.8,3.8,0,0,0,2.9-1.3h0A2.3,2.3,0,0,0,49.1,138.2Z" transform="translate(0.2 -0.2)" fill="#44f1a6"/></svg>
