<svg viewBox="0 0 326 300" fill="none" xmlns="http://www.w3.org/2000/svg">
<circle cx="162.911" cy="150" r="149.5" fill="#182922" stroke="#44F1A6"/>
<circle cx="162.911" cy="150" r="119.5" fill="#1D3F30" stroke="#44F1A6"/>
<circle cx="162.911" cy="150" r="89.5" fill="#276C4E" stroke="#44F1A6"/>
<circle cx="162.911" cy="150" r="59.5" fill="#30986B" stroke="#44F1A6"/>
<path d="M162.911 42L165.036 119.618L177.942 43.051L169.244 120.21L192.68 46.1837L173.328 121.381L206.839 51.3371L177.21 123.109L220.143 58.4108L180.813 125.361L232.332 67.2672L184.068 128.092L243.171 77.7339L186.911 131.249L252.447 89.6072L189.287 134.772L259.981 102.656L191.15 138.591L265.625 116.626L192.463 142.632L269.271 131.246L193.201 146.816L270.846 146.231L193.349 151.063L270.32 161.289L192.905 155.289L267.703 176.128L191.877 159.411L263.047 190.458L190.285 163.351L256.442 204L188.161 167.031L248.017 216.491L185.545 170.379L237.934 227.689L182.488 173.331L226.392 237.374L179.051 175.828L213.614 245.358L175.299 177.823L199.85 251.487L171.306 179.276L185.366 255.64L167.15 180.16L170.445 257.737L162.911 180.456L155.378 257.737L158.673 180.16L140.457 255.64L154.517 179.276L125.973 251.487L150.524 177.823L112.208 245.358L146.772 175.828L99.4306 237.374L143.335 173.331L87.8883 227.689L140.278 170.379L77.8062 216.491L137.662 167.031L69.3806 204L135.538 163.351L62.7755 190.458L133.946 159.411L58.1194 176.128L132.918 155.289L55.503 161.289L132.474 151.063L54.9772 146.231L132.622 146.816L56.5521 131.246L133.36 142.632L60.1973 116.626L134.673 138.591L65.8416 102.656L136.536 134.772L73.3753 89.6072L138.912 131.249L82.6517 77.7339L141.755 128.092L93.4903 67.2672L145.01 125.361L105.68 58.4108L148.613 123.109L118.984 51.3371L152.495 121.381L133.143 46.1837L156.579 120.21L147.881 43.051L160.787 119.618L162.911 42Z" fill="#44F1A6"/>
<path d="M153.411 245C149.011 241.4 146.578 237.167 145.911 235.5C144.911 232.5 144.911 226 141.411 223C137.911 220 134.411 208.5 133.911 205.5C133.411 202.5 134.411 199 132.411 192.5C130.411 186 130.411 173.5 131.411 169.5C132.411 165.5 125.911 160.5 124.911 154C123.911 147.5 128.411 149.5 130.411 143C132.411 136.5 126.911 131 124.911 129.5C122.911 128 123.911 123 123.411 121.5C122.911 120 121.911 121.5 119.411 124.5C116.911 127.5 118.411 125 116.911 131C115.411 137 108.911 144 109.911 150.5C110.911 157 111.911 163 108.911 163C107.109 163 106.626 160.303 103.911 162C99.9114 164.5 108.911 169 107.411 173.5C107.095 174.449 103.411 176 99.4114 173.5C90.6114 168 94.4114 157.5 95.9114 154C97.4114 150.5 94.9114 148 94.9114 145C94.9114 142 96.4114 142 97.4114 137C98.4114 132 100.411 127 100.911 125.5C101.411 124 98.9115 120 102.911 116.5C106.911 113 106.411 104 106.411 102C106.411 100.4 108.411 98.6667 109.411 98C108.745 97.1667 108.411 94.8 112.411 92C116.411 89.2 124.078 85.5 127.411 84V79.5C125.411 79.1667 121.411 75.6 121.411 64C121.411 49.5 131.911 43.5 140.911 43.5C149.911 43.5 159.411 48.5 160.911 60C162.111 69.2 160.411 74.5 159.411 76C161.911 76.8333 168.511 78.5 174.911 78.5C182.911 78.5 183.411 85.5 184.411 89.5C185.411 93.5 194.411 99 200.911 101.5C207.411 104 220.911 111.5 221.411 115C221.911 118.5 222.911 117 224.911 118C226.911 119 234.911 123 237.411 129.5C239.911 136 237.411 138.5 234.911 139C232.411 139.5 231.911 137.5 228.411 132.5C225.611 128.5 218.911 127.167 215.911 127C216.411 135.5 214.911 136.5 213.411 136.5C211.911 136.5 210.911 133 210.911 129.5C210.911 126 209.911 121 206.411 120.5C202.911 120 196.911 117.5 189.911 113.5C184.311 110.3 180.911 107.833 179.911 107C179.411 110.5 179.911 114.5 181.411 120C182.611 124.4 183.578 130.5 183.911 133C187.911 134.2 189.911 136.5 190.411 137.5C197.411 148 208.911 149 211.411 160.5C213.911 172 213.411 184.5 212.911 191.5C212.411 198.5 210.411 197.5 211.411 201C212.411 204.5 212.411 212 215.411 211C218.411 210 223.911 210 225.911 211L225.999 211.043C228.118 212.1 235.307 215.682 227.911 228.5C220.411 241.5 203.411 249 197.411 247.5C191.411 246 191.911 234 190.911 227C189.911 220 186.911 220 185.411 217C183.911 214 185.911 210.5 183.411 207.5C180.911 204.5 184.411 201 182.411 197.5C180.411 194 179.911 192.5 181.411 189C182.911 185.5 179.911 184.5 178.911 181C178.111 178.2 179.245 174.167 179.911 172.5C176.411 167 165.411 161 163.411 164C161.811 166.4 162.745 184 163.411 192.5C165.811 197.3 165.078 203.167 164.411 205.5C174.411 220.5 172.411 239.5 172.911 244C173.411 248.5 180.911 255 181.911 262.5C182.911 270 174.911 276.5 165.911 269.5C156.911 262.5 158.911 249.5 153.411 245Z" fill="black" stroke="#44F1A6"/>
<path d="M152.329 107.978L154.981 113.118C147.975 116.399 139.605 113.843 136.285 107.409C132.966 100.975 135.954 93.099 142.96 89.8178C138.427 91.9409 136.493 97.0371 138.641 101.2C139.849 103.541 142.09 105.089 144.626 105.618C144.628 105.621 144.629 105.624 144.631 105.628C145.998 108.277 149.444 109.329 152.329 107.978Z" fill="#44F1A6"/>
<path d="M144.631 105.628L139.035 108.249C135.715 101.814 138.703 93.9386 145.709 90.6574C152.715 87.3762 161.085 89.9322 164.404 96.3664C162.256 92.2031 156.84 90.5492 152.307 92.6723C149.758 93.8661 148.032 95.9998 147.39 98.3791C147.386 98.3808 147.383 98.3824 147.379 98.3841C144.494 99.7352 143.264 102.978 144.631 105.628Z" fill="#44F1A6"/>
<path d="M147.379 98.3841L144.727 93.2443C151.733 89.9631 160.103 92.5191 163.423 98.9533C166.742 105.388 163.754 113.263 156.749 116.545C161.282 114.422 163.215 109.325 161.067 105.162C159.86 102.821 157.619 101.274 155.082 100.745C155.081 100.741 155.079 100.738 155.077 100.735C153.71 98.0855 150.264 97.033 147.379 98.3841Z" fill="#44F1A6"/>
<path d="M155.077 100.735L160.674 98.1138C163.993 104.548 161.005 112.424 153.999 115.705C146.994 118.986 138.623 116.43 135.304 109.996C137.452 114.159 142.868 115.813 147.401 113.69C149.95 112.496 151.677 110.363 152.318 107.983C152.322 107.982 152.326 107.98 152.329 107.978C155.214 106.627 156.444 103.384 155.077 100.735Z" fill="#44F1A6"/>
<path fill-rule="evenodd" clip-rule="evenodd" d="M130.411 133C107.611 143.8 109.245 176.667 113.411 191.5C109.93 193.9 103.627 194.833 100.911 195C84.8667 195 80.8568 184.846 78.118 177.91C77.6989 176.849 77.3095 175.863 76.9114 175C73.9114 168.5 71.4114 165 67.9114 161.5C64.4114 158 46.4114 153.5 41.9114 176C38.3113 194 47.7389 221.167 52.9026 232.5C45.4541 227.325 35.9918 222 29.4114 222C19.8114 222 13.078 225 10.9114 226.5L29.4114 229C40.2114 230.6 52.9114 240 57.9114 244.5C66.9114 256.5 80.4114 265.5 88.9114 269.5C97.4114 273.5 137.911 287.5 137.911 268.5C137.911 249.5 120.411 249.5 99.9114 250.5C83.5114 251.3 67.4114 243.167 61.4114 239C49.4113 220 46.9114 196 46.4114 179C45.9114 162 67.4114 154 73.4114 175C78.2114 191.8 90.0781 198 95.4114 199C95.4382 199 95.524 199.01 95.6634 199.026C97.4005 199.229 107.462 200.404 115.445 195.299C115.684 196.655 117.295 201.267 122.411 211.5C129.411 225.5 142.911 224 144.911 215.5C146.162 210.184 144.089 203.109 142.36 197.209C141.324 193.674 140.411 190.561 140.411 188.5C140.411 184.1 142.745 179.667 143.911 178C152.411 169.5 153.411 159 148.911 157C144.411 155 138.411 159.5 130.911 172C124.911 182 118.078 188.5 115.411 190.5C111.245 177.167 109.711 147.2 130.911 136L130.411 133ZM125.411 185C137.411 167.5 143.411 159 146.911 160C150.411 161 146.411 170.5 141.411 178.5C137.151 185.316 139.425 198.665 140.809 206.796L140.809 206.797C141.05 208.209 141.263 209.464 141.411 210.5C142.411 217.5 134.411 220.5 128.911 214C124.511 208.8 119.078 198.679 116.911 194.269C119.66 192.152 122.55 189.173 125.411 185ZM68.9114 250.5C79.078 259.5 105.011 276.5 127.411 272.5C129.078 272 132.411 270.2 132.411 267C132.411 263 130.411 254.5 108.411 254.5C86.4114 254.5 76.4114 253 68.9114 250.5Z" fill="black"/>
<path d="M113.411 191.5C109.245 176.667 106.611 144.3 129.411 133.5M113.411 191.5L115.411 190.5M113.411 191.5C109.93 193.9 103.627 194.833 100.911 195C82.4114 195 79.9114 181.5 76.9114 175C73.9114 168.5 71.4114 165 67.9114 161.5C64.4114 158 46.4114 153.5 41.9114 176C38.3113 194 47.7389 221.167 52.9026 232.5M115.411 190.5C111.245 177.167 109.211 147.7 130.411 136.5M115.411 190.5C118.078 188.5 124.911 182 130.911 172C138.411 159.5 144.411 155 148.911 157C153.411 159 152.411 169.5 143.911 178C142.745 179.667 140.411 184.1 140.411 188.5C140.411 194 146.911 207 144.911 215.5C142.911 224 129.411 225.5 122.411 211.5C116.811 200.3 115.411 195.833 115.411 195M116.911 194.269C108.132 201.03 95.7922 199 95.4114 199C90.0781 198 78.2114 191.8 73.4114 175C67.4114 154 45.9114 162 46.4114 179C46.9114 196 49.4113 220 61.4114 239M116.911 194.269C119.66 192.152 122.55 189.173 125.411 185C137.411 167.5 143.411 159 146.911 160C150.411 161 146.411 170.5 141.411 178.5C136.411 186.5 140.411 203.5 141.411 210.5C142.411 217.5 134.411 220.5 128.911 214C124.511 208.8 119.078 198.679 116.911 194.269ZM61.4114 239C67.4114 243.167 83.5114 251.3 99.9114 250.5C120.411 249.5 137.911 249.5 137.911 268.5C137.911 287.5 97.4114 273.5 88.9114 269.5C80.4114 265.5 66.9114 256.5 57.9114 244.5M61.4114 239C59.3145 237.218 56.3205 234.875 52.9026 232.5M57.9114 244.5C52.9114 240 40.2114 230.6 29.4114 229M57.9114 244.5C60.3114 246.518 66.2447 249.341 68.9114 250.5M68.9114 250.5C79.078 259.5 105.011 276.5 127.411 272.5C129.078 272 132.411 270.2 132.411 267C132.411 263 130.411 254.5 108.411 254.5C86.4114 254.5 76.4114 253 68.9114 250.5ZM10.9114 226.5C13.078 225 19.8114 222 29.4114 222C35.9918 222 45.4541 227.325 52.9026 232.5" stroke="#44F1A6"/>
<path d="M246.982 34.2726L246.772 39.5757L251.84 38L247.941 41.6011L252.639 44.0705L247.336 43.8602L248.911 48.9282L245.31 45.0296L242.841 49.7274L243.051 44.4243L237.983 46L241.882 42.3988L237.184 39.9294L242.487 40.1398L240.911 35.0718L244.513 38.9704L246.982 34.2726Z" fill="#44F1A6"/>
<path d="M17.0926 153.581L16.7896 161.218L24.0884 158.949L18.4737 164.135L25.2394 167.691L17.602 167.388L19.8713 174.687L14.6851 169.072L11.1287 175.838L11.4316 168.201L4.13292 170.47L9.74756 165.284L2.98194 161.727L10.6193 162.03L8.35 154.732L13.5362 160.346L17.0926 153.581Z" fill="#44F1A6"/>
<path d="M35.6714 103.931L38.3364 106.13L40.6198 103.537L40.0486 106.944L43.4354 107.625L40.1992 108.834L41.3027 112.108L38.6376 109.91L36.3543 112.502L36.9255 109.095L33.5387 108.414L36.7749 107.205L35.6714 103.931Z" fill="#44F1A6"/>
<path d="M286.671 103.931L289.336 106.13L291.62 103.537L291.049 106.944L294.435 107.625L291.199 108.834L292.303 112.108L289.638 109.91L287.354 112.502L287.925 109.095L284.539 108.414L287.775 107.205L286.671 103.931Z" fill="#44F1A6"/>
<path d="M247.927 245.728L247.851 248.159L250.278 248.314L248.135 249.464L249.214 251.643L247.147 250.362L245.799 252.387L245.875 249.956L243.448 249.801L245.591 248.651L244.512 246.472L246.579 247.753L247.927 245.728Z" fill="#44F1A6"/>
<path d="M76.3563 222.491L78.2141 224.061L79.8433 222.255L79.4126 224.649L81.7912 225.157L79.5027 225.981L80.2521 228.295L78.3943 226.725L76.765 228.531L77.1958 226.137L74.8172 225.629L77.1056 224.805L76.3563 222.491Z" fill="#44F1A6"/>
<path d="M6.35633 192.491L8.21406 194.061L9.84334 192.255L9.41261 194.649L11.7912 195.157L9.50274 195.981L10.2521 198.295L8.39433 196.725L6.76505 198.531L7.19578 196.137L4.81718 195.629L7.10565 194.805L6.35633 192.491Z" fill="#44F1A6"/>
<circle cx="32.4114" cy="143.5" r="1.5" fill="#44F1A6"/>
<circle cx="62.4114" cy="123.5" r="1.5" fill="#44F1A6"/>
<circle cx="142.411" cy="133.5" r="1.5" fill="#44F1A6"/>
<circle cx="212.411" cy="113.5" r="1.5" fill="#44F1A6"/>
<circle cx="262.411" cy="103.5" r="1.5" fill="#44F1A6"/>
<circle cx="282.411" cy="73.5" r="1.5" fill="#44F1A6"/>
<circle cx="292.411" cy="153.5" r="1.5" fill="#44F1A6"/>
<circle cx="262.411" cy="183.5" r="1.5" fill="#44F1A6"/>
<circle cx="272.411" cy="213.5" r="1.5" fill="#44F1A6"/>
<circle cx="303.411" cy="173.5" r="1.5" fill="#44F1A6"/>
<circle cx="293.411" cy="43.5" r="1.5" fill="#44F1A6"/>
<circle cx="28.9114" cy="183" r="1" fill="#44F1A6"/>
<circle cx="68.9114" cy="113" r="1" fill="#44F1A6"/>
<circle cx="88.9114" cy="133" r="1" fill="#44F1A6"/>
<circle cx="119.911" cy="103" r="1" fill="#44F1A6"/>
<circle cx="169.911" cy="143" r="1" fill="#44F1A6"/>
<circle cx="219.911" cy="143" r="1" fill="#44F1A6"/>
<circle cx="249.911" cy="103" r="1" fill="#44F1A6"/>
<circle cx="269.911" cy="83" r="1" fill="#44F1A6"/>
<circle cx="279.911" cy="143" r="1" fill="#44F1A6"/>
<circle cx="239.911" cy="163" r="1" fill="#44F1A6"/>
<circle cx="289.911" cy="173" r="1" fill="#44F1A6"/>
<circle cx="299.911" cy="133" r="1" fill="#44F1A6"/>
<circle cx="269.911" cy="63" r="1" fill="#44F1A6"/>
<circle cx="299.911" cy="63" r="1" fill="#44F1A6"/>
<circle cx="269.911" cy="233" r="1" fill="#44F1A6"/>
<circle cx="239.911" cy="213" r="1" fill="#44F1A6"/>
<circle cx="57.4114" cy="192.5" r="0.5" fill="#44F1A6"/>
<circle cx="25.4114" cy="132.5" r="0.5" fill="#44F1A6"/>
<circle cx="55.4114" cy="138.5" r="0.5" fill="#44F1A6"/>
<circle cx="215.411" cy="118.5" r="0.5" fill="#44F1A6"/>
<circle cx="265.411" cy="168.5" r="0.5" fill="#44F1A6"/>
<circle cx="275.411" cy="198.5" r="0.5" fill="#44F1A6"/>
<circle cx="285.411" cy="208.5" r="0.5" fill="#44F1A6"/>
<circle cx="305.411" cy="158.5" r="0.5" fill="#44F1A6"/>
<circle cx="285.411" cy="128.5" r="0.5" fill="#44F1A6"/>
<circle cx="245.411" cy="68.5" r="0.5" fill="#44F1A6"/>
<circle cx="265.411" cy="48.5" r="0.5" fill="#44F1A6"/>
<circle cx="305.411" cy="78.5" r="0.5" fill="#44F1A6"/>
<circle cx="325.411" cy="148.5" r="0.5" fill="#44F1A6"/>
<circle cx="295.411" cy="188.5" r="0.5" fill="#44F1A6"/>
<circle cx="325.411" cy="198.5" r="0.5" fill="#44F1A6"/>
<circle cx="75.4114" cy="208.5" r="0.5" fill="#44F1A6"/>
<circle cx="95.4114" cy="236.5" r="0.5" fill="#44F1A6"/>
<circle cx="125.411" cy="246.5" r="0.5" fill="#44F1A6"/>
<circle cx="145.411" cy="146.5" r="0.5" fill="#44F1A6"/>
</svg>
