<svg viewBox="0 0 64 64" fill="none" xmlns="http://www.w3.org/2000/svg">
<mask id="path-1-inside-1_4138_1914" fill="white">
<path fill-rule="evenodd" clip-rule="evenodd" d="M61.3332 32C61.3332 48.2004 48.2002 61.3334 31.9998 61.3334C15.7995 61.3334 2.6665 48.2004 2.6665 32C2.6665 15.7997 15.7995 2.66669 31.9998 2.66669C48.2002 2.66669 61.3332 15.7997 61.3332 32ZM23.4482 39.7953C21.7016 39.7953 20.2706 39.3843 19.1551 38.5623C18.0543 37.7258 17.5039 36.5369 17.5039 34.9958C17.5039 34.6729 17.5406 34.2765 17.614 33.8068C17.8049 32.7501 18.0764 31.4805 18.4286 29.9981C19.4266 25.9618 22.0026 23.9437 26.1563 23.9437C27.2865 23.9437 28.2992 24.1344 29.1945 24.516C30.0899 24.8829 30.7944 25.4407 31.3081 26.1893C31.8217 26.9231 32.0787 27.8038 32.0787 28.8312C32.0787 29.1394 32.042 29.5284 31.9685 29.9981C31.7484 31.3043 31.4842 32.574 31.1759 33.8068C30.6623 35.8177 29.7743 37.3221 28.512 38.3202C27.2497 39.3035 25.5619 39.7953 23.4482 39.7953ZM23.7565 36.6249C24.5785 36.6249 25.2756 36.3828 25.8481 35.8984C26.4352 35.4141 26.8535 34.6729 27.1029 33.6748C27.4405 32.2951 27.6975 31.0915 27.8736 30.0641C27.9323 29.7559 27.9616 29.4404 27.9616 29.1174C27.9616 27.7818 27.2644 27.1139 25.8701 27.1139C25.0481 27.1139 24.3436 27.3561 23.7565 27.8404C23.1841 28.3249 22.7731 29.0661 22.5237 30.0641C22.2594 31.0475 21.9952 32.2511 21.7311 33.6748C21.6723 33.9683 21.643 34.2765 21.643 34.5994C21.643 35.9498 22.3475 36.6249 23.7565 36.6249ZM33.0917 39.5746C32.9303 39.5746 32.8054 39.5232 32.7174 39.4204C32.644 39.3029 32.622 39.1709 32.6514 39.0242L35.6896 24.7136C35.7189 24.5522 35.7997 24.42 35.9318 24.3173C36.0639 24.2146 36.2033 24.1632 36.3501 24.1632H42.2064C43.8356 24.1632 45.1419 24.5008 46.1252 25.1759C47.1234 25.8512 47.6224 26.8271 47.6224 28.1041C47.6224 28.471 47.5784 28.8527 47.4903 29.2489C47.1234 30.9368 46.3822 32.1845 45.2667 32.9917C44.1659 33.799 42.654 34.2026 40.7313 34.2026H37.7591L36.7464 39.0242C36.717 39.1856 36.6363 39.3176 36.5043 39.4204C36.3721 39.5232 36.2326 39.5746 36.086 39.5746H33.0917ZM40.8855 31.1644C41.5018 31.1644 42.0376 30.9955 42.4926 30.6579C42.9623 30.3204 43.2705 29.836 43.4173 29.2049C43.4613 28.9553 43.4834 28.7352 43.4834 28.5444C43.4834 28.1187 43.3586 27.7958 43.1091 27.5757C42.8595 27.3408 42.4339 27.2235 41.8321 27.2235H39.1901L38.3535 31.1644H40.8855Z"/>
</mask>
<path fill-rule="evenodd" clip-rule="evenodd" d="M61.3332 32C61.3332 48.2004 48.2002 61.3334 31.9998 61.3334C15.7995 61.3334 2.6665 48.2004 2.6665 32C2.6665 15.7997 15.7995 2.66669 31.9998 2.66669C48.2002 2.66669 61.3332 15.7997 61.3332 32ZM23.4482 39.7953C21.7016 39.7953 20.2706 39.3843 19.1551 38.5623C18.0543 37.7258 17.5039 36.5369 17.5039 34.9958C17.5039 34.6729 17.5406 34.2765 17.614 33.8068C17.8049 32.7501 18.0764 31.4805 18.4286 29.9981C19.4266 25.9618 22.0026 23.9437 26.1563 23.9437C27.2865 23.9437 28.2992 24.1344 29.1945 24.516C30.0899 24.8829 30.7944 25.4407 31.3081 26.1893C31.8217 26.9231 32.0787 27.8038 32.0787 28.8312C32.0787 29.1394 32.042 29.5284 31.9685 29.9981C31.7484 31.3043 31.4842 32.574 31.1759 33.8068C30.6623 35.8177 29.7743 37.3221 28.512 38.3202C27.2497 39.3035 25.5619 39.7953 23.4482 39.7953ZM23.7565 36.6249C24.5785 36.6249 25.2756 36.3828 25.8481 35.8984C26.4352 35.4141 26.8535 34.6729 27.1029 33.6748C27.4405 32.2951 27.6975 31.0915 27.8736 30.0641C27.9323 29.7559 27.9616 29.4404 27.9616 29.1174C27.9616 27.7818 27.2644 27.1139 25.8701 27.1139C25.0481 27.1139 24.3436 27.3561 23.7565 27.8404C23.1841 28.3249 22.7731 29.0661 22.5237 30.0641C22.2594 31.0475 21.9952 32.2511 21.7311 33.6748C21.6723 33.9683 21.643 34.2765 21.643 34.5994C21.643 35.9498 22.3475 36.6249 23.7565 36.6249ZM33.0917 39.5746C32.9303 39.5746 32.8054 39.5232 32.7174 39.4204C32.644 39.3029 32.622 39.1709 32.6514 39.0242L35.6896 24.7136C35.7189 24.5522 35.7997 24.42 35.9318 24.3173C36.0639 24.2146 36.2033 24.1632 36.3501 24.1632H42.2064C43.8356 24.1632 45.1419 24.5008 46.1252 25.1759C47.1234 25.8512 47.6224 26.8271 47.6224 28.1041C47.6224 28.471 47.5784 28.8527 47.4903 29.2489C47.1234 30.9368 46.3822 32.1845 45.2667 32.9917C44.1659 33.799 42.654 34.2026 40.7313 34.2026H37.7591L36.7464 39.0242C36.717 39.1856 36.6363 39.3176 36.5043 39.4204C36.3721 39.5232 36.2326 39.5746 36.086 39.5746H33.0917ZM40.8855 31.1644C41.5018 31.1644 42.0376 30.9955 42.4926 30.6579C42.9623 30.3204 43.2705 29.836 43.4173 29.2049C43.4613 28.9553 43.4834 28.7352 43.4834 28.5444C43.4834 28.1187 43.3586 27.7958 43.1091 27.5757C42.8595 27.3408 42.4339 27.2235 41.8321 27.2235H39.1901L38.3535 31.1644H40.8855Z" fill="#1D3F30"/>
<path d="M19.1551 38.5623L18.5501 39.3585L18.556 39.363L18.5619 39.3674L19.1551 38.5623ZM17.614 33.8068L16.6299 33.629L16.6278 33.6408L16.6259 33.6526L17.614 33.8068ZM18.4286 29.9981L17.4578 29.758L17.4557 29.7669L18.4286 29.9981ZM29.1945 24.516L28.8025 25.4361L28.8154 25.4413L29.1945 24.516ZM31.3081 26.1893L30.4835 26.7551L30.4888 26.7628L31.3081 26.1893ZM31.9685 29.9981L32.9547 30.1642L32.9565 30.1526L31.9685 29.9981ZM31.1759 33.8068L32.1448 34.0543L32.1461 34.0494L31.1759 33.8068ZM28.512 38.3202L29.1266 39.1091L29.1322 39.1046L28.512 38.3202ZM25.8481 35.8984L25.2117 35.127L25.2022 35.135L25.8481 35.8984ZM27.1029 33.6748L28.0731 33.9173L28.0743 33.9125L27.1029 33.6748ZM27.8736 30.0641L26.8912 29.8772L26.8895 29.8861L26.888 29.8952L27.8736 30.0641ZM23.7565 27.8404L23.1201 27.069L23.1104 27.0772L23.7565 27.8404ZM22.5237 30.0641L23.4894 30.3236L23.4917 30.3151L23.4938 30.3066L22.5237 30.0641ZM21.7311 33.6748L22.7116 33.8712L22.713 33.8642L22.7143 33.8572L21.7311 33.6748ZM32.7174 39.4204L31.8696 39.9506L31.9092 40.014L31.9578 40.0708L32.7174 39.4204ZM32.6514 39.0242L31.6731 38.8165L31.6708 38.8282L32.6514 39.0242ZM35.6896 24.7136L36.6678 24.9213L36.6709 24.9069L36.6735 24.8924L35.6896 24.7136ZM35.9318 24.3173L35.3182 23.5276L35.3177 23.528L35.9318 24.3173ZM46.1252 25.1759L45.5592 26.0003L45.5649 26.0042L46.1252 25.1759ZM47.4903 29.2489L46.5141 29.0318L46.5131 29.0365L47.4903 29.2489ZM45.2667 32.9917L44.6804 32.1816L44.6754 32.1853L45.2667 32.9917ZM37.7591 34.2026V33.2026H36.9474L36.7805 33.997L37.7591 34.2026ZM36.7464 39.0242L35.7678 38.8186L35.765 38.8316L35.7627 38.8447L36.7464 39.0242ZM36.5043 39.4204L37.1183 40.2097L37.1186 40.2094L36.5043 39.4204ZM42.4926 30.6579L41.909 29.8459L41.9029 29.8503L41.8968 29.8548L42.4926 30.6579ZM43.4173 29.2049L44.3913 29.4314L44.3974 29.4051L44.4021 29.3785L43.4173 29.2049ZM43.1091 27.5757L42.4237 28.3039L42.4355 28.315L42.4476 28.3257L43.1091 27.5757ZM39.1901 27.2235V26.2235H38.3801L38.2119 27.0158L39.1901 27.2235ZM38.3535 31.1644L37.3753 30.9567L37.119 32.1644H38.3535V31.1644ZM31.9998 62.3334C48.7525 62.3334 62.3332 48.7527 62.3332 32H60.3332C60.3332 47.6481 47.6479 60.3334 31.9998 60.3334V62.3334ZM1.6665 32C1.6665 48.7527 15.2472 62.3334 31.9998 62.3334V60.3334C16.3518 60.3334 3.6665 47.6481 3.6665 32H1.6665ZM31.9998 1.66669C15.2472 1.66669 1.6665 15.2474 1.6665 32H3.6665C3.6665 16.352 16.3518 3.66669 31.9998 3.66669V1.66669ZM62.3332 32C62.3332 15.2474 48.7525 1.66669 31.9998 1.66669V3.66669C47.6479 3.66669 60.3332 16.352 60.3332 32H62.3332ZM18.5619 39.3674C19.8896 40.3456 21.5443 40.7953 23.4482 40.7953V38.7953C21.8589 38.7953 20.6517 38.4229 19.7483 37.7573L18.5619 39.3674ZM16.5039 34.9958C16.5039 36.8084 17.1694 38.3093 18.5501 39.3585L19.7602 37.7662C18.9392 37.1422 18.5039 36.2655 18.5039 34.9958H16.5039ZM16.6259 33.6526C16.548 34.1517 16.5039 34.6032 16.5039 34.9958H18.5039C18.5039 34.7425 18.5333 34.4013 18.602 33.9611L16.6259 33.6526ZM17.4557 29.7669C17.1008 31.2604 16.825 32.5488 16.6299 33.629L18.598 33.9846C18.7847 32.9514 19.0519 31.7006 19.4015 30.2292L17.4557 29.7669ZM26.1563 22.9437C23.917 22.9437 21.999 23.4896 20.4923 24.6701C18.9858 25.8505 17.9958 27.5826 17.4578 29.758L19.3994 30.2381C19.8595 28.3772 20.6565 27.0822 21.7258 26.2444C22.795 25.4068 24.2419 24.9437 26.1563 24.9437V22.9437ZM29.5866 23.5961C28.5489 23.1539 27.3997 22.9437 26.1563 22.9437V24.9437C27.1732 24.9437 28.0494 25.115 28.8025 25.436L29.5866 23.5961ZM32.1326 25.6235C31.5013 24.7036 30.637 24.0264 29.5737 23.5907L28.8154 25.4413C29.5428 25.7394 30.0874 26.1779 30.4835 26.7551L32.1326 25.6235ZM33.0787 28.8312C33.0787 27.6298 32.7753 26.5415 32.1273 25.6158L30.4888 26.7628C30.8682 27.3047 31.0787 27.9779 31.0787 28.8312H33.0787ZM32.9565 30.1526C33.0342 29.656 33.0787 29.211 33.0787 28.8312H31.0787C31.0787 29.0679 31.0498 29.4007 30.9805 29.8436L32.9565 30.1526ZM32.1461 34.0494C32.4609 32.7903 32.7304 31.4951 32.9546 30.1642L30.9824 29.8319C30.7665 31.1136 30.5075 32.3577 30.2058 33.5643L32.1461 34.0494ZM29.1322 39.1046C30.6106 37.9357 31.5927 36.2156 32.1448 34.0543L30.2071 33.5593C29.7318 35.4198 28.938 36.7086 27.8918 37.5357L29.1322 39.1046ZM23.4482 40.7953C25.7131 40.7953 27.6396 40.2675 29.1266 39.109L27.8974 37.5313C26.8599 38.3396 25.4107 38.7953 23.4482 38.7953V40.7953ZM25.2022 35.135C24.828 35.4516 24.3664 35.6249 23.7565 35.6249V37.6249C24.7907 37.6249 25.7232 37.314 26.494 36.6618L25.2022 35.135ZM26.1328 33.4323C25.9172 34.2949 25.5846 34.8194 25.2117 35.127L26.4844 36.6698C27.2858 36.0087 27.7898 35.0508 28.0731 33.9173L26.1328 33.4323ZM26.888 29.8952C26.7169 30.8929 26.4655 32.0726 26.1316 33.4372L28.0743 33.9125C28.4156 32.5176 28.678 31.2901 28.8592 30.2331L26.888 29.8952ZM26.9616 29.1174C26.9616 29.3795 26.9378 29.6323 26.8912 29.8772L28.856 30.2511C28.9267 29.8795 28.9616 29.5013 28.9616 29.1174H26.9616ZM25.8701 28.1139C26.4236 28.1139 26.6532 28.2471 26.747 28.3369C26.8327 28.419 26.9616 28.6149 26.9616 29.1174H28.9616C28.9616 28.2842 28.7419 27.4784 28.1305 26.8926C27.527 26.3146 26.7109 26.1139 25.8701 26.1139V28.1139ZM24.3928 28.6118C24.786 28.2874 25.2604 28.1139 25.8701 28.1139V26.1139C24.8358 26.1139 23.9012 26.4247 23.1201 27.069L24.3928 28.6118ZM23.4938 30.3066C23.7109 29.438 24.0398 28.9108 24.4026 28.6037L23.1104 27.0772C22.3285 27.739 21.8353 28.6942 21.5535 29.8216L23.4938 30.3066ZM22.7143 33.8572C22.9754 32.4496 23.2342 31.2734 23.4894 30.3236L21.5579 29.8046C21.2847 30.8215 21.015 32.0526 20.7479 33.4924L22.7143 33.8572ZM22.643 34.5994C22.643 34.3372 22.6668 34.095 22.7116 33.8712L20.7506 33.4784C20.6778 33.8415 20.643 34.2158 20.643 34.5994H22.643ZM23.7565 35.6249C23.1958 35.6249 22.9607 35.4899 22.8633 35.3966C22.7738 35.3108 22.643 35.1094 22.643 34.5994H20.643C20.643 35.4399 20.8644 36.2511 21.4795 36.8406C22.0866 37.4224 22.9082 37.6249 23.7565 37.6249V35.6249ZM31.9578 40.0708C32.2729 40.4388 32.7005 40.5746 33.0917 40.5746V38.5746C33.1165 38.5746 33.1782 38.5786 33.2579 38.6114C33.342 38.646 33.4185 38.7016 33.4771 38.77L31.9578 40.0708ZM31.6708 38.8282C31.596 39.2025 31.6491 39.5981 31.8696 39.9506L33.5653 38.8901C33.596 38.9392 33.6209 39.0006 33.6323 39.069C33.6434 39.1358 33.6382 39.1889 33.632 39.2201L31.6708 38.8282ZM34.7114 24.5059L31.6732 38.8165L33.6296 39.2318L36.6678 24.9213L34.7114 24.5059ZM35.3177 23.528C34.9957 23.7785 34.78 24.126 34.7057 24.5348L36.6735 24.8924C36.6675 24.9256 36.6532 24.9695 36.6255 25.0148C36.598 25.0598 36.5673 25.0898 36.5458 25.1065L35.3177 23.528ZM36.3501 23.1632C35.9502 23.1632 35.5997 23.3089 35.3182 23.5276L36.5454 25.1069C36.5405 25.1107 36.5192 25.126 36.4811 25.1401C36.4416 25.1546 36.3962 25.1632 36.3501 25.1632V23.1632ZM42.2064 23.1632H36.3501V25.1632H42.2064V23.1632ZM46.6912 24.3515C45.4904 23.527 43.9656 23.1632 42.2064 23.1632V25.1632C43.7056 25.1632 44.7933 25.4745 45.5592 26.0003L46.6912 24.3515ZM48.6224 28.1041C48.6224 26.5187 47.9776 25.2217 46.6856 24.3476L45.5649 26.0042C46.2692 26.4806 46.6224 27.1356 46.6224 28.1041H48.6224ZM48.4664 29.466C48.5688 29.0058 48.6224 28.5511 48.6224 28.1041H46.6224C46.6224 28.3908 46.588 28.6995 46.5141 29.0318L48.4664 29.466ZM45.853 33.8018C47.2149 32.8162 48.0621 31.3263 48.4675 29.4613L46.5131 29.0365C46.1847 30.5474 45.5494 31.5527 44.6804 32.1816L45.853 33.8018ZM40.7313 35.2026C42.7824 35.2026 44.5283 34.7732 45.8581 33.7981L44.6754 32.1853C43.8035 32.8247 42.5257 33.2026 40.7313 33.2026V35.2026ZM37.7591 35.2026H40.7313V33.2026H37.7591V35.2026ZM37.7251 39.2297L38.7378 34.4081L36.7805 33.997L35.7678 38.8186L37.7251 39.2297ZM37.1186 40.2094C37.4401 39.9591 37.6557 39.6121 37.7302 39.2036L35.7627 38.8447C35.7687 38.8117 35.783 38.7679 35.8106 38.7227C35.838 38.6778 35.8686 38.648 35.8899 38.6314L37.1186 40.2094ZM36.086 40.5746C36.4857 40.5746 36.8365 40.4289 37.1183 40.2097L35.8902 38.6311C35.8953 38.6272 35.9167 38.6118 35.9548 38.5977C35.9943 38.5832 36.0397 38.5746 36.086 38.5746V40.5746ZM33.0917 40.5746H36.086V38.5746H33.0917V40.5746ZM41.8968 29.8548C41.6294 30.0532 41.3071 30.1644 40.8855 30.1644V32.1644C41.6965 32.1644 42.4457 31.9378 43.0884 31.4611L41.8968 29.8548ZM42.4433 28.9784C42.3443 29.4039 42.1579 29.667 41.909 29.8459L43.0762 31.47C43.7666 30.9738 44.1967 30.2682 44.3913 29.4314L42.4433 28.9784ZM42.4834 28.5444C42.4834 28.6615 42.4695 28.8214 42.4325 29.0313L44.4021 29.3785C44.4531 29.0893 44.4834 28.8089 44.4834 28.5444H42.4834ZM42.4476 28.3257C42.4493 28.3272 42.4494 28.3275 42.4495 28.3276C42.4496 28.3278 42.4527 28.3321 42.457 28.3434C42.466 28.3668 42.4834 28.4274 42.4834 28.5444H44.4834C44.4834 27.9176 44.2923 27.2859 43.7705 26.8257L42.4476 28.3257ZM41.8321 28.2235C42.0734 28.2235 42.2355 28.2476 42.3368 28.2755C42.4366 28.303 42.4467 28.3256 42.4237 28.3039L43.7945 26.8475C43.2618 26.3462 42.5122 26.2235 41.8321 26.2235V28.2235ZM39.1901 28.2235H41.8321V26.2235H39.1901V28.2235ZM39.3317 31.372L40.1683 27.4311L38.2119 27.0158L37.3753 30.9567L39.3317 31.372ZM40.8855 30.1644H38.3535V32.1644H40.8855V30.1644Z" fill="#44F1A6" mask="url(#path-1-inside-1_4138_1914)"/>
</svg>
