<svg viewBox="0 0 64 64" fill="none" xmlns="http://www.w3.org/2000/svg">
<path d="M33.9 25.0988L30.1 27.1928V22.9531V22.6561L29.8392 22.514L21.4392 17.9388L21.2 17.8086L20.9608 17.9388L12.5608 22.514L12.3 22.6561V22.9531V31.9488V32.2459L12.5608 32.3879L20.9608 36.9631L21.2 37.0934L21.4392 36.9631L41.8736 25.8332C42.4494 25.5196 43.1506 25.5196 43.7264 25.8332L54.5264 31.7156C55.1306 32.0447 55.5 32.6654 55.5 33.3333V45.098C55.5 45.766 55.1306 46.3867 54.5264 46.7158L43.7264 52.5981C43.1506 52.9117 42.4494 52.9117 41.8736 52.5981L31.0736 46.7158C30.4694 46.3867 30.1 45.766 30.1 45.098V41.5679L33.9 39.4739V43.7135V44.0106L34.1608 44.1526L42.5608 48.7278L42.8 48.8581L43.0392 48.7278L51.4392 44.1526L51.7 44.0106V43.7135V34.7178V34.4208L51.4392 34.2787L43.0392 29.7035L42.8 29.5733L42.5608 29.7035L22.1264 40.8334C21.5506 41.147 20.8494 41.147 20.2736 40.8334L9.47361 34.9511C8.86939 34.622 8.5 34.0013 8.5 33.3333V21.5686C8.5 20.9007 8.86939 20.28 9.47361 19.9509L20.2736 14.0685C20.8494 13.7549 21.5506 13.7549 22.1264 14.0685L32.9264 19.9509C33.5306 20.28 33.9 20.9007 33.9 21.5686V25.0988Z" fill="#1D3F30" stroke="#44F1A6"/>
</svg>
