<svg viewBox="0 0 120 260" fill="none" xmlns="http://www.w3.org/2000/svg">
<rect x="0.5" y="0.5" width="119" height="259" rx="9.5" fill="black" stroke="#44F1A6"/>
<mask id="path-2-inside-1_4242_249" fill="white">
<path fill-rule="evenodd" clip-rule="evenodd" d="M120 182.917V250C120 255.523 115.523 260 110 260H10C4.47715 260 0 255.523 0 250V182.917C15.9227 168.666 36.9494 160 60 160C83.0506 160 104.077 168.666 120 182.917Z"/>
</mask>
<path fill-rule="evenodd" clip-rule="evenodd" d="M120 182.917V250C120 255.523 115.523 260 110 260H10C4.47715 260 0 255.523 0 250V182.917C15.9227 168.666 36.9494 160 60 160C83.0506 160 104.077 168.666 120 182.917Z" fill="#182922"/>
<path d="M120 182.917H121V182.47L120.667 182.172L120 182.917ZM0 182.917L-0.666914 182.172L-1 182.47V182.917H0ZM119 182.917V250H121V182.917H119ZM119 250C119 254.971 114.971 259 110 259V261C116.075 261 121 256.075 121 250H119ZM110 259H10V261H110V259ZM10 259C5.02944 259 1 254.971 1 250H-1C-1 256.075 3.92487 261 10 261V259ZM1 250V182.917H-1V250H1ZM0.666914 183.662C16.4134 169.568 37.2048 161 60 161V159C36.6939 159 15.432 167.763 -0.666914 182.172L0.666914 183.662ZM60 161C82.7952 161 103.587 169.568 119.333 183.662L120.667 182.172C104.568 167.763 83.3061 159 60 159V161Z" fill="#44F1A6" mask="url(#path-2-inside-1_4242_249)"/>
<mask id="path-4-inside-2_4242_249" fill="white">
<path fill-rule="evenodd" clip-rule="evenodd" d="M-2.00345e-06 77.0832L-7.86805e-06 10C-8.35087e-06 4.47717 4.47714 1.00993e-05 9.99999 9.61651e-06L110 8.74228e-07C115.523 3.91405e-07 120 4.47715 120 10L120 77.0832C104.077 91.3344 83.0506 100 60 100C36.9494 100 15.9227 91.3344 -2.00345e-06 77.0832Z"/>
</mask>
<path fill-rule="evenodd" clip-rule="evenodd" d="M-2.00345e-06 77.0832L-7.86805e-06 10C-8.35087e-06 4.47717 4.47714 1.00993e-05 9.99999 9.61651e-06L110 8.74228e-07C115.523 3.91405e-07 120 4.47715 120 10L120 77.0832C104.077 91.3344 83.0506 100 60 100C36.9494 100 15.9227 91.3344 -2.00345e-06 77.0832Z" fill="#182922"/>
<path d="M-2.00345e-06 77.0832L-1 77.0832L-1 77.5302L-0.666918 77.8283L-2.00345e-06 77.0832ZM120 77.0832L120.667 77.8283L121 77.5302L121 77.0832L120 77.0832ZM0.999998 77.0832L0.999992 10L-1.00001 10L-1 77.0832L0.999998 77.0832ZM0.999992 10C0.999992 5.02945 5.02943 1.00001 9.99999 1.00001L9.99999 -0.99999C3.92486 -0.99999 -1.00001 3.92488 -1.00001 10L0.999992 10ZM9.99999 1.00001L110 1L110 -0.999999L9.99999 -0.99999L9.99999 1.00001ZM110 1C114.971 1 119 5.02943 119 10L121 10C121 3.92487 116.075 -1 110 -0.999999L110 1ZM119 10L119 77.0832L121 77.0832L121 10L119 10ZM119.333 76.3381C103.587 90.4315 82.7952 99 60 99L60 101C83.3061 101 104.568 92.2373 120.667 77.8283L119.333 76.3381ZM60 99C37.2048 99 16.4134 90.4315 0.666914 76.3381L-0.666918 77.8283C15.432 92.2373 36.6939 101 60 101L60 99Z" fill="#44F1A6" mask="url(#path-4-inside-2_4242_249)"/>
<mask id="path-6-inside-3_4242_249" fill="white">
<path fill-rule="evenodd" clip-rule="evenodd" d="M76 80H44V153L32 153L60 180L88 153L76 153V80Z"/>
</mask>
<path fill-rule="evenodd" clip-rule="evenodd" d="M76 80H44V153L32 153L60 180L88 153L76 153V80Z" fill="#276C4E"/>
<path d="M44 80V79H43V80H44ZM76 80H77V79H76V80ZM44 153L44 154L45 154V153H44ZM32 153L32 152L29.5223 152L31.3059 153.72L32 153ZM60 180L59.3059 180.72L60.0001 181.389L60.6942 180.72L60 180ZM88 153L88.6941 153.72L90.4777 152L88 152L88 153ZM76 153H75V154L76 154L76 153ZM44 81H76V79H44V81ZM45 153V80H43V153H45ZM32 154L44 154L44 152L32 152L32 154ZM60.6942 179.28L32.6941 152.281L31.3059 153.72L59.3059 180.72L60.6942 179.28ZM87.3059 152.28L59.3059 179.28L60.6942 180.72L88.6941 153.72L87.3059 152.28ZM76 154L88 154L88 152L76 152L76 154ZM75 80V153H77V80H75Z" fill="#44F1A6" mask="url(#path-6-inside-3_4242_249)"/>
<mask id="path-8-inside-4_4242_249" fill="white">
<path d="M98 250L104 244L110 250L98 250Z"/>
</mask>
<path d="M98 250L104 244L110 250L98 250Z" fill="#1D3F30"/>
<path d="M98 250L97.2929 249.293L95.5858 251L98 251L98 250ZM104 244L104.707 243.293L104 242.586L103.293 243.293L104 244ZM110 250L110 251L112.414 251L110.707 249.293L110 250ZM98.7071 250.707L104.707 244.707L103.293 243.293L97.2929 249.293L98.7071 250.707ZM103.293 244.707L109.293 250.707L110.707 249.293L104.707 243.293L103.293 244.707ZM110 249L98 249L98 251L110 251L110 249Z" fill="#44F1A6" mask="url(#path-8-inside-4_4242_249)"/>
<mask id="path-10-inside-5_4242_249" fill="white">
<path d="M98 242L104 236L110 242L98 242Z"/>
</mask>
<path d="M98 242L104 236L110 242L98 242Z" fill="#276C4E"/>
<path d="M98 242L97.2929 241.293L95.5858 243L98 243L98 242ZM104 236L104.707 235.293L104 234.586L103.293 235.293L104 236ZM110 242L110 243L112.414 243L110.707 241.293L110 242ZM98.7071 242.707L104.707 236.707L103.293 235.293L97.2929 241.293L98.7071 242.707ZM103.293 236.707L109.293 242.707L110.707 241.293L104.707 235.293L103.293 236.707ZM110 241L98 241L98 243L110 243L110 241Z" fill="#44F1A6" mask="url(#path-10-inside-5_4242_249)"/>
<path d="M108.793 233.5L99.2071 233.5L104 228.707L108.793 233.5Z" fill="#30986B" stroke="#44F1A6"/>
<mask id="path-13-inside-6_4242_249" fill="white">
<path d="M10 250L16 244L22 250L10 250Z"/>
</mask>
<path d="M10 250L16 244L22 250L10 250Z" fill="#1D3F30"/>
<path d="M10 250L9.29289 249.293L7.58577 251L10 251L10 250ZM16 244L16.7071 243.293L16 242.586L15.2929 243.293L16 244ZM22 250L22 251L24.4142 251L22.7071 249.293L22 250ZM10.7071 250.707L16.7071 244.707L15.2929 243.293L9.29289 249.293L10.7071 250.707ZM15.2929 244.707L21.2929 250.707L22.7071 249.293L16.7071 243.293L15.2929 244.707ZM22 249L9.99999 249L10 251L22 251L22 249Z" fill="#44F1A6" mask="url(#path-13-inside-6_4242_249)"/>
<mask id="path-15-inside-7_4242_249" fill="white">
<path d="M10 242L16 236L22 242L10 242Z"/>
</mask>
<path d="M10 242L16 236L22 242L10 242Z" fill="#276C4E"/>
<path d="M10 242L9.29289 241.293L7.58577 243L10 243L10 242ZM16 236L16.7071 235.293L16 234.586L15.2929 235.293L16 236ZM22 242L22 243L24.4142 243L22.7071 241.293L22 242ZM10.7071 242.707L16.7071 236.707L15.2929 235.293L9.29289 241.293L10.7071 242.707ZM15.2929 236.707L21.2929 242.707L22.7071 241.293L16.7071 235.293L15.2929 236.707ZM22 241L9.99999 241L10 243L22 243L22 241Z" fill="#44F1A6" mask="url(#path-15-inside-7_4242_249)"/>
<path d="M20.7929 233.5L11.2071 233.5L16 228.707L20.7929 233.5Z" fill="#30986B" stroke="#44F1A6"/>
<mask id="path-18-inside-8_4242_249" fill="white">
<path d="M22 10L16 16L10 10.0001L22 10Z"/>
</mask>
<path d="M22 10L16 16L10 10.0001L22 10Z" fill="#1D3F30"/>
<path d="M22 10L22.7071 10.7071L24.4142 8.99998L22 9L22 10ZM16 16L15.2929 16.7071L16 17.4142L16.7071 16.7071L16 16ZM10 10.0001L9.99999 9.00009L7.58578 9.00011L9.2929 10.7072L10 10.0001ZM21.2929 9.29289L15.2929 15.2929L16.7071 16.7071L22.7071 10.7071L21.2929 9.29289ZM16.7071 15.2929L10.7071 9.29298L9.2929 10.7072L15.2929 16.7071L16.7071 15.2929ZM10 11.0001L22 11L22 9L9.99999 9.00009L10 11.0001Z" fill="#44F1A6" mask="url(#path-18-inside-8_4242_249)"/>
<mask id="path-20-inside-9_4242_249" fill="white">
<path d="M22 18L16 24L10 18.0001L22 18Z"/>
</mask>
<path d="M22 18L16 24L10 18.0001L22 18Z" fill="#276C4E"/>
<path d="M22 18L22.7071 18.7071L24.4142 17L22 17L22 18ZM16 24L15.2929 24.7071L16 25.4142L16.7071 24.7071L16 24ZM10 18.0001L9.99999 17.0001L7.58578 17.0001L9.2929 18.7072L10 18.0001ZM21.2929 17.2929L15.2929 23.2929L16.7071 24.7071L22.7071 18.7071L21.2929 17.2929ZM16.7071 23.2929L10.7071 17.293L9.2929 18.7072L15.2929 24.7071L16.7071 23.2929ZM10 19.0001L22 19L22 17L9.99999 17.0001L10 19.0001Z" fill="#44F1A6" mask="url(#path-20-inside-9_4242_249)"/>
<path d="M11.2071 26.5001L20.7929 26.5L16 31.2929L11.2071 26.5001Z" fill="#30986B" stroke="#44F1A6"/>
<mask id="path-23-inside-10_4242_249" fill="white">
<path d="M110 10L104 16L98 10.0001L110 10Z"/>
</mask>
<path d="M110 10L104 16L98 10.0001L110 10Z" fill="#1D3F30"/>
<path d="M110 10L110.707 10.7071L112.414 8.99998L110 9L110 10ZM104 16L103.293 16.7071L104 17.4142L104.707 16.7071L104 16ZM98 10.0001L98 9.00009L95.5858 9.00011L97.2929 10.7072L98 10.0001ZM109.293 9.29289L103.293 15.2929L104.707 16.7071L110.707 10.7071L109.293 9.29289ZM104.707 15.2929L98.7071 9.29298L97.2929 10.7072L103.293 16.7071L104.707 15.2929ZM98 11.0001L110 11L110 9L98 9.00009L98 11.0001Z" fill="#44F1A6" mask="url(#path-23-inside-10_4242_249)"/>
<mask id="path-25-inside-11_4242_249" fill="white">
<path d="M110 18L104 24L98 18.0001L110 18Z"/>
</mask>
<path d="M110 18L104 24L98 18.0001L110 18Z" fill="#276C4E"/>
<path d="M110 18L110.707 18.7071L112.414 17L110 17L110 18ZM104 24L103.293 24.7071L104 25.4142L104.707 24.7071L104 24ZM98 18.0001L98 17.0001L95.5858 17.0001L97.2929 18.7072L98 18.0001ZM109.293 17.2929L103.293 23.2929L104.707 24.7071L110.707 18.7071L109.293 17.2929ZM104.707 23.2929L98.7071 17.293L97.2929 18.7072L103.293 24.7071L104.707 23.2929ZM98 19.0001L110 19L110 17L98 17.0001L98 19.0001Z" fill="#44F1A6" mask="url(#path-25-inside-11_4242_249)"/>
<path d="M99.2071 26.5001L108.793 26.5L104 31.2929L99.2071 26.5001Z" fill="#30986B" stroke="#44F1A6"/>
<rect x="30.5" y="40.5" width="59" height="39" rx="9.5" fill="black" stroke="#44F1A6"/>
<rect x="30.5" y="40.5" width="16" height="40" rx="8" fill="black" stroke="#44F1A6"/>
<mask id="path-30-inside-12_4242_249" fill="white">
<path fill-rule="evenodd" clip-rule="evenodd" d="M39 40.0145V46.5C39 51.1944 35.1944 55 30.5 55C30.3322 55 30.1654 54.9951 30 54.9855V48.5C30 43.8056 33.8056 40 38.5 40C38.6678 40 38.8346 40.0049 39 40.0145Z"/>
</mask>
<path fill-rule="evenodd" clip-rule="evenodd" d="M39 40.0145V46.5C39 51.1944 35.1944 55 30.5 55C30.3322 55 30.1654 54.9951 30 54.9855V48.5C30 43.8056 33.8056 40 38.5 40C38.6678 40 38.8346 40.0049 39 40.0145Z" fill="#276C4E"/>
<path d="M39 40.0145H40V39.0708L39.0579 39.0161L39 40.0145ZM30 54.9855H29V55.9292L29.9421 55.9839L30 54.9855ZM38 40.0145V46.5H40V40.0145H38ZM38 46.5C38 50.6421 34.6421 54 30.5 54V56C35.7467 56 40 51.7467 40 46.5H38ZM30.5 54C30.3515 54 30.2041 53.9957 30.0579 53.9872L29.9421 55.9839C30.1268 55.9946 30.3128 56 30.5 56V54ZM31 54.9855V48.5H29V54.9855H31ZM31 48.5C31 44.3579 34.3579 41 38.5 41V39C33.2533 39 29 43.2533 29 48.5H31ZM38.5 41C38.6485 41 38.7959 41.0043 38.9421 41.0128L39.0579 39.0161C38.8732 39.0054 38.6872 39 38.5 39V41Z" fill="#44F1A6" mask="url(#path-30-inside-12_4242_249)"/>
<mask id="path-32-inside-13_4242_249" fill="white">
<path fill-rule="evenodd" clip-rule="evenodd" d="M36 40.3735V44.3333C36 47.4629 33.4629 49.9999 30.3333 49.9999C30.2214 49.9999 30.1103 49.9967 30 49.9903V48.4999C30 44.6756 32.5257 41.4411 36 40.3735Z"/>
</mask>
<path fill-rule="evenodd" clip-rule="evenodd" d="M36 40.3735V44.3333C36 47.4629 33.4629 49.9999 30.3333 49.9999C30.2214 49.9999 30.1103 49.9967 30 49.9903V48.4999C30 44.6756 32.5257 41.4411 36 40.3735Z" fill="#3AC589"/>
<path d="M36 40.3735H37V39.0201L35.7063 39.4176L36 40.3735ZM30 49.9903H29V50.934L29.9421 50.9886L30 49.9903ZM35 40.3735V44.3333H37V40.3735H35ZM35 44.3333C35 46.9106 32.9107 48.9999 30.3333 48.9999V50.9999C34.0152 50.9999 37 48.0152 37 44.3333H35ZM30.3333 48.9999C30.2408 48.9999 30.1489 48.9973 30.0579 48.992L29.9421 50.9886C30.0717 50.9961 30.2021 50.9999 30.3333 50.9999V48.9999ZM31 49.9903V48.4999H29V49.9903H31ZM31 48.4999C31 45.127 33.2273 42.2717 36.2937 41.3294L35.7063 39.4176C31.824 40.6106 29 44.2241 29 48.4999H31Z" fill="#44F1A6" mask="url(#path-32-inside-13_4242_249)"/>
<rect x="73.5" y="40.5" width="16" height="39" rx="8" fill="black" stroke="#44F1A6"/>
<mask id="path-35-inside-14_4242_249" fill="white">
<path fill-rule="evenodd" clip-rule="evenodd" d="M81 40.0145V46.5C81 51.1944 84.8056 55 89.5 55C89.6678 55 89.8346 54.9951 90 54.9855V48.5C90 43.8056 86.1944 40 81.5 40C81.3322 40 81.1654 40.0049 81 40.0145Z"/>
</mask>
<path fill-rule="evenodd" clip-rule="evenodd" d="M81 40.0145V46.5C81 51.1944 84.8056 55 89.5 55C89.6678 55 89.8346 54.9951 90 54.9855V48.5C90 43.8056 86.1944 40 81.5 40C81.3322 40 81.1654 40.0049 81 40.0145Z" fill="#1D3F30"/>
<path d="M81 40.0145H80V39.0708L80.9421 39.0161L81 40.0145ZM90 54.9855H91V55.9292L90.0579 55.9839L90 54.9855ZM82 40.0145V46.5H80V40.0145H82ZM82 46.5C82 50.6421 85.3579 54 89.5 54V56C84.2533 56 80 51.7467 80 46.5H82ZM89.5 54C89.6485 54 89.7959 53.9957 89.9421 53.9872L90.0579 55.9839C89.8732 55.9946 89.6872 56 89.5 56V54ZM89 54.9855V48.5H91V54.9855H89ZM89 48.5C89 44.3579 85.6421 41 81.5 41V39C86.7467 39 91 43.2533 91 48.5H89ZM81.5 41C81.3515 41 81.2041 41.0043 81.0579 41.0128L80.9421 39.0161C81.1268 39.0054 81.3128 39 81.5 39V41Z" fill="#44F1A6" mask="url(#path-35-inside-14_4242_249)"/>
<path d="M38.5 40.5H81.5V70C81.5 75.2467 77.2467 79.5 72 79.5H48C42.7533 79.5 38.5 75.2467 38.5 70V40.5Z" fill="black" stroke="#44F1A6"/>
<mask id="path-38-inside-15_4242_249" fill="white">
<path fill-rule="evenodd" clip-rule="evenodd" d="M38 55.4141V69.9999C38 75.5227 42.4772 79.9999 48 79.9999L48 63.4141C48 63.1489 47.8946 62.8945 47.7071 62.707L39.7071 54.707C39.0771 54.077 38 54.5232 38 55.4141Z"/>
</mask>
<path fill-rule="evenodd" clip-rule="evenodd" d="M38 55.4141V69.9999C38 75.5227 42.4772 79.9999 48 79.9999L48 63.4141C48 63.1489 47.8946 62.8945 47.7071 62.707L39.7071 54.707C39.0771 54.077 38 54.5232 38 55.4141Z" fill="#276C4E"/>
<path d="M48 79.9999V80.9999H49V79.9999H48ZM48 63.4141H47H48ZM47.7071 62.707L47 63.4141L47.7071 62.707ZM39.7071 54.707L40.4142 53.9999L39.7071 54.707ZM37 55.4141V69.9999H39V55.4141H37ZM48 78.9999C43.0294 78.9999 39 74.9705 39 69.9999H37C37 76.075 41.9249 80.9999 48 80.9999V78.9999ZM49 79.9999L49 63.4141H47L47 79.9999H49ZM49 63.4141C49 62.8837 48.7893 62.375 48.4142 61.9999L47 63.4141L47 63.4141H49ZM48.4142 61.9999L40.4142 53.9999L39 55.4141L47 63.4141L48.4142 61.9999ZM40.4142 53.9999C39.1543 52.74 37 53.6323 37 55.4141H39V55.4141L40.4142 53.9999Z" fill="#44F1A6" mask="url(#path-38-inside-15_4242_249)"/>
<mask id="path-40-inside-16_4242_249" fill="white">
<path fill-rule="evenodd" clip-rule="evenodd" d="M82 55.4141V69.9999C82 75.5227 77.5228 79.9999 72 79.9999L72 63.4141C72 63.1489 72.1054 62.8945 72.2929 62.707L80.2929 54.707C80.9229 54.077 82 54.5232 82 55.4141Z"/>
</mask>
<path fill-rule="evenodd" clip-rule="evenodd" d="M82 55.4141V69.9999C82 75.5227 77.5228 79.9999 72 79.9999L72 63.4141C72 63.1489 72.1054 62.8945 72.2929 62.707L80.2929 54.707C80.9229 54.077 82 54.5232 82 55.4141Z" fill="#1D3F30"/>
<path d="M72 79.9999V80.9999H71V79.9999H72ZM72 63.4141H73H72ZM72.2929 62.707L73 63.4141L72.2929 62.707ZM80.2929 54.707L79.5858 53.9999L80.2929 54.707ZM83 55.4141V69.9999H81V55.4141H83ZM72 78.9999C76.9706 78.9999 81 74.9705 81 69.9999H83C83 76.075 78.0751 80.9999 72 80.9999V78.9999ZM71 79.9999L71 63.4141H73L73 79.9999H71ZM71 63.4141C71 62.8837 71.2107 62.375 71.5858 61.9999L73 63.4141L73 63.4141H71ZM71.5858 61.9999L79.5858 53.9999L81 55.4141L73 63.4141L71.5858 61.9999ZM79.5858 53.9999C80.8457 52.74 83 53.6323 83 55.4141H81V55.4141L79.5858 53.9999Z" fill="#44F1A6" mask="url(#path-40-inside-16_4242_249)"/>
<path d="M41.5 42.7692C41.5 41.516 42.516 40.5 43.7692 40.5H76.2308C77.484 40.5 78.5 41.516 78.5 42.7692C78.5 47.5911 74.5911 51.5 69.7692 51.5H50.2308C45.4089 51.5 41.5 47.5911 41.5 42.7692Z" fill="#182922" stroke="#44F1A6"/>
<path d="M40.0341 25.8235C40.6431 19.7871 49.3492 15 60 15C70.6508 15 79.3569 19.7871 79.9659 25.8235C79.357 15.3254 70.6508 7 60 7C49.3492 7 40.643 15.3254 40.0341 25.8235Z" fill="#1D3F30"/>
<circle cx="60" cy="27" r="19.5" fill="#182922" stroke="#44F1A6"/>
<path d="M79.5 26.5C79.5 29.4204 77.4371 32.1603 73.8929 34.1983C70.3622 36.2284 65.4514 37.5 60 37.5C54.5486 37.5 49.6378 36.2284 46.1071 34.1983C42.5629 32.1603 40.5 29.4204 40.5 26.5C40.5 23.5796 42.5629 20.8397 46.1071 18.8017C49.6378 16.7716 54.5486 15.5 60 15.5C65.4514 15.5 70.3622 16.7716 73.8929 18.8017C77.4371 20.8397 79.5 23.5796 79.5 26.5Z" fill="#276C4E" stroke="#44F1A6"/>
<path d="M49.6552 77.7478C52.1149 80.2075 52.1149 84.1955 49.6552 86.6552C47.1955 89.1149 43.2075 89.1149 40.7478 86.6552L32.3448 78.2522C29.8851 75.7925 29.8851 71.8045 32.3448 69.3448C34.8045 66.8851 38.7925 66.8851 41.2522 69.3448L49.6552 77.7478Z" fill="black" stroke="#44F1A6"/>
<path d="M70.3448 77.7478C67.8851 80.2075 67.8851 84.1955 70.3448 86.6552C72.8045 89.1149 76.7925 89.1149 79.2522 86.6552L87.6552 78.2522C90.1149 75.7925 90.1149 71.8045 87.6552 69.3448C85.1955 66.8851 81.2075 66.8851 78.7478 69.3448L70.3448 77.7478Z" fill="black" stroke="#44F1A6"/>
<path d="M40.3959 30.9975C39.2959 30.2631 38.5 28.7718 38.5 27C38.5 25.2282 39.2959 23.7369 40.3959 23.0025C40.6518 22.8317 40.8814 22.8673 41.0864 23.0356C41.3161 23.2241 41.5 23.5836 41.5 24V30C41.5 30.4164 41.3161 30.7759 41.0864 30.9644C40.8814 31.1327 40.6518 31.1683 40.3959 30.9975Z" fill="#1D3F30" stroke="#44F1A6"/>
<path d="M79.6041 30.9975C80.7041 30.2631 81.5 28.7718 81.5 27C81.5 25.2282 80.7041 23.7369 79.6041 23.0025C79.3482 22.8317 79.1186 22.8673 78.9136 23.0356C78.6839 23.2241 78.5 23.5836 78.5 24V30C78.5 30.4164 78.6839 30.7759 78.9136 30.9644C79.1186 31.1327 79.3482 31.1683 79.6041 30.9975Z" fill="#1D3F30" stroke="#44F1A6"/>
<path d="M57.0001 13.5184C53.9835 13.6293 51.4353 14.2255 49.6053 14.8528C48.711 15.1593 47.9192 14.3222 48.6138 13.6808C50.8068 11.6557 54.4173 10.5816 56.8981 10.1564C57.4848 10.0558 58 10.5198 58 11.115V12.5C58 13.0523 57.552 13.4981 57.0001 13.5184Z" fill="#30986B" stroke="#44F1A6"/>
<path d="M52.1028 24.0539C54.0391 25.9901 54.2418 28.6085 52.9251 29.9252C51.6084 31.2419 48.9901 31.0391 47.0539 29.1029C45.1177 27.1667 44.9149 24.5483 46.2316 23.2316C47.5483 21.9149 50.1666 22.1177 52.1028 24.0539Z" fill="#3AC589" stroke="#44F1A6"/>
<path d="M59.384 23.8044C59.1485 24.6834 57.9765 25.3175 56.5862 24.945C55.1959 24.5724 54.498 23.4373 54.7335 22.5583C54.9691 21.6793 56.141 21.0453 57.5313 21.4178C58.9216 21.7903 59.6195 22.9254 59.384 23.8044Z" fill="#3AC589" stroke="#44F1A6"/>
<rect x="52" y="51" width="1" height="28" fill="#44F1A6"/>
<rect x="67" y="51" width="1" height="28" fill="#44F1A6"/>
<rect x="56" y="56" width="1" height="23" fill="#44F1A6"/>
<rect x="63" y="56" width="1" height="23" fill="#44F1A6"/>
<rect x="70.5" y="71.5" width="4" height="7" rx="2" fill="black" stroke="#44F1A6"/>
<rect x="45.5" y="71.5" width="4" height="7" rx="2" fill="black" stroke="#44F1A6"/>
<path d="M64.4725 54.5C64.2238 56.75 62.3163 58.5 60 58.5C57.6837 58.5 55.7762 56.75 55.5275 54.5H64.4725Z" fill="#276C4E" stroke="#44F1A6"/>
<circle cx="60" cy="83" r="15.5" fill="#182922" stroke="#44F1A6"/>
<path d="M59.9913 86.5266L59.9828 90.3053C55.2586 90.3053 51.4376 86.4706 51.4482 81.7403C51.4589 77.01 55.2972 73.1753 60.0214 73.1753C56.9646 73.1753 54.481 75.6566 54.4741 78.7173C54.4702 80.4384 55.2502 81.9761 56.4771 82.9926C56.4771 82.995 56.4771 82.9974 56.4771 82.9998C56.4727 84.9476 58.0461 86.5266 59.9913 86.5266Z" fill="#44F1A6"/>
<path d="M56.4771 82.9998H52.7033C52.714 78.2695 56.5523 74.4349 61.2765 74.4349C66.0007 74.4349 69.8217 78.2695 69.8111 82.9998C69.818 79.9391 67.3455 77.4578 64.2887 77.4578C62.5699 77.4578 61.0324 78.2422 60.0144 79.4731C60.012 79.4731 60.0096 79.4731 60.0072 79.4731C58.062 79.4731 56.4815 81.0521 56.4771 82.9998Z" fill="#44F1A6"/>
<path d="M60.0072 79.4731L60.0157 75.6944C64.7399 75.6944 68.561 79.5291 68.5503 84.2594C68.5397 88.9897 64.7013 92.8244 59.9772 92.8244C63.034 92.8244 65.5176 90.3431 65.5245 87.2823C65.5284 85.5613 64.7484 84.0236 63.5214 83.0071C63.5215 83.0047 63.5215 83.0023 63.5215 82.9998C63.5259 81.0521 61.9525 79.4731 60.0072 79.4731Z" fill="#44F1A6"/>
<path d="M63.5215 82.9998H67.2952C67.2846 87.7302 63.4462 91.5648 58.7221 91.5648C53.9979 91.5648 50.1768 87.7302 50.1875 82.9998C50.1806 86.0606 52.653 88.5419 55.7099 88.5419C57.4286 88.5419 58.9662 87.7575 59.9841 86.5266C59.9865 86.5266 59.9889 86.5266 59.9913 86.5266C61.9366 86.5266 63.5171 84.9476 63.5215 82.9998Z" fill="#44F1A6"/>
<path d="M41.1868 77.1587C41.5768 75.2654 43.4277 74.0468 45.3209 74.4368L47.2597 74.8361C48.612 75.1147 49.4825 76.4368 49.2039 77.7891L47.1864 87.5835C46.9078 88.9358 45.5857 89.8062 44.2334 89.5277L42.2947 89.1283C40.4014 88.7383 39.1828 86.8874 39.5728 84.9942L41.1868 77.1587Z" fill="#276C4E" stroke="#44F1A6"/>
<path d="M41.1868 77.1587C41.5768 75.2654 43.4277 74.0468 45.3209 74.4368L47.2597 74.8361C48.612 75.1147 49.4825 76.4368 49.2039 77.7891L47.1864 87.5835C46.9078 88.9358 45.5857 89.8062 44.2334 89.5277L42.2947 89.1283C40.4014 88.7383 39.1828 86.8874 39.5728 84.9942L41.1868 77.1587Z" fill="#276C4E" stroke="#44F1A6"/>
<path d="M78.5691 77.1587C78.1791 75.2654 76.3282 74.0468 74.4349 74.4368L72.4962 74.8361C71.1439 75.1147 70.2734 76.4368 70.552 77.7891L72.5695 87.5835C72.848 88.9358 74.1701 89.8062 75.5225 89.5277L77.4612 89.1283C79.3544 88.7383 80.5731 86.8874 80.1831 84.9942L78.5691 77.1587Z" fill="#182922" stroke="#44F1A6"/>
<rect x="30.4086" y="71.1157" width="1" height="13.6851" transform="rotate(-45 30.4086 71.1157)" fill="#44F1A6"/>
<rect x="30" y="73.707" width="1" height="13.6851" transform="rotate(-45 30 73.707)" fill="#44F1A6"/>
<rect width="1" height="13.6851" transform="matrix(-0.707107 -0.707107 -0.707107 0.707107 89.3839 71.1157)" fill="#44F1A6"/>
<rect width="1" height="13.6851" transform="matrix(-0.707107 -0.707107 -0.707107 0.707107 89.7925 73.707)" fill="#44F1A6"/>
<path d="M49.6552 244.748C52.1149 247.208 52.1149 251.196 49.6552 253.655C47.1955 256.115 43.2075 256.115 40.7478 253.655L32.3448 245.252C29.8851 242.792 29.8851 238.804 32.3448 236.345C34.8045 233.885 38.7925 233.885 41.2522 236.345L49.6552 244.748Z" fill="black" stroke="#44F1A6"/>
<path d="M70.3448 244.748C67.8851 247.208 67.8851 251.196 70.3448 253.655C72.8045 256.115 76.7925 256.115 79.2522 253.655L87.6552 245.252C90.1149 242.792 90.1149 238.804 87.6552 236.345C85.1955 233.885 81.2075 233.885 78.7478 236.345L70.3448 244.748Z" fill="black" stroke="#44F1A6"/>
<rect x="30.5" y="207.5" width="59" height="39" rx="9.5" fill="black" stroke="#44F1A6"/>
<rect x="30.5" y="207.5" width="16" height="40" rx="8" fill="black" stroke="#44F1A6"/>
<mask id="path-73-inside-17_4242_249" fill="white">
<path fill-rule="evenodd" clip-rule="evenodd" d="M39 207.014V213.5C39 218.194 35.1944 222 30.5 222C30.3322 222 30.1654 221.995 30 221.986V215.5C30 210.806 33.8056 207 38.5 207C38.6678 207 38.8346 207.005 39 207.014Z"/>
</mask>
<path fill-rule="evenodd" clip-rule="evenodd" d="M39 207.014V213.5C39 218.194 35.1944 222 30.5 222C30.3322 222 30.1654 221.995 30 221.986V215.5C30 210.806 33.8056 207 38.5 207C38.6678 207 38.8346 207.005 39 207.014Z" fill="#276C4E"/>
<path d="M39 207.014H40V206.071L39.0579 206.016L39 207.014ZM30 221.986H29V222.929L29.9421 222.984L30 221.986ZM38 207.014V213.5H40V207.014H38ZM38 213.5C38 217.642 34.6421 221 30.5 221V223C35.7467 223 40 218.747 40 213.5H38ZM30.5 221C30.3515 221 30.2041 220.996 30.0579 220.987L29.9421 222.984C30.1268 222.995 30.3128 223 30.5 223V221ZM31 221.986V215.5H29V221.986H31ZM31 215.5C31 211.358 34.3579 208 38.5 208V206C33.2533 206 29 210.253 29 215.5H31ZM38.5 208C38.6485 208 38.7959 208.004 38.9421 208.013L39.0579 206.016C38.8732 206.005 38.6872 206 38.5 206V208Z" fill="#44F1A6" mask="url(#path-73-inside-17_4242_249)"/>
<mask id="path-75-inside-18_4242_249" fill="white">
<path fill-rule="evenodd" clip-rule="evenodd" d="M36 207.374V211.333C36 214.463 33.4629 217 30.3333 217C30.2214 217 30.1103 216.997 30 216.99V215.5C30 211.676 32.5257 208.441 36 207.374Z"/>
</mask>
<path fill-rule="evenodd" clip-rule="evenodd" d="M36 207.374V211.333C36 214.463 33.4629 217 30.3333 217C30.2214 217 30.1103 216.997 30 216.99V215.5C30 211.676 32.5257 208.441 36 207.374Z" fill="#3AC589"/>
<path d="M36 207.374H37V206.02L35.7063 206.418L36 207.374ZM30 216.99H29V217.934L29.9421 217.989L30 216.99ZM35 207.374V211.333H37V207.374H35ZM35 211.333C35 213.911 32.9107 216 30.3333 216V218C34.0152 218 37 215.015 37 211.333H35ZM30.3333 216C30.2408 216 30.1489 215.997 30.0579 215.992L29.9421 217.989C30.0717 217.996 30.2021 218 30.3333 218V216ZM31 216.99V215.5H29V216.99H31ZM31 215.5C31 212.127 33.2273 209.272 36.2937 208.329L35.7063 206.418C31.824 207.611 29 211.224 29 215.5H31Z" fill="#44F1A6" mask="url(#path-75-inside-18_4242_249)"/>
<rect x="73.5" y="207.5" width="16" height="39" rx="8" fill="black" stroke="#44F1A6"/>
<mask id="path-78-inside-19_4242_249" fill="white">
<path fill-rule="evenodd" clip-rule="evenodd" d="M81 207.014V213.5C81 218.194 84.8056 222 89.5 222C89.6678 222 89.8346 221.995 90 221.986V215.5C90 210.806 86.1944 207 81.5 207C81.3322 207 81.1654 207.005 81 207.014Z"/>
</mask>
<path fill-rule="evenodd" clip-rule="evenodd" d="M81 207.014V213.5C81 218.194 84.8056 222 89.5 222C89.6678 222 89.8346 221.995 90 221.986V215.5C90 210.806 86.1944 207 81.5 207C81.3322 207 81.1654 207.005 81 207.014Z" fill="#1D3F30"/>
<path d="M81 207.014H80V206.071L80.9421 206.016L81 207.014ZM90 221.986H91V222.929L90.0579 222.984L90 221.986ZM82 207.014V213.5H80V207.014H82ZM82 213.5C82 217.642 85.3579 221 89.5 221V223C84.2533 223 80 218.747 80 213.5H82ZM89.5 221C89.6485 221 89.7959 220.996 89.9421 220.987L90.0579 222.984C89.8732 222.995 89.6872 223 89.5 223V221ZM89 221.986V215.5H91V221.986H89ZM89 215.5C89 211.358 85.6421 208 81.5 208V206C86.7467 206 91 210.253 91 215.5H89ZM81.5 208C81.3515 208 81.2041 208.004 81.0579 208.013L80.9421 206.016C81.1268 206.005 81.3128 206 81.5 206V208Z" fill="#44F1A6" mask="url(#path-78-inside-19_4242_249)"/>
<path d="M38.5 207.5H81.5V237C81.5 242.247 77.2467 246.5 72 246.5H48C42.7533 246.5 38.5 242.247 38.5 237V207.5Z" fill="black" stroke="#44F1A6"/>
<mask id="path-81-inside-20_4242_249" fill="white">
<path fill-rule="evenodd" clip-rule="evenodd" d="M38 222.414V237C38 242.523 42.4772 247 48 247L48 230.414C48 230.149 47.8946 229.895 47.7071 229.707L39.7071 221.707C39.0771 221.077 38 221.523 38 222.414Z"/>
</mask>
<path fill-rule="evenodd" clip-rule="evenodd" d="M38 222.414V237C38 242.523 42.4772 247 48 247L48 230.414C48 230.149 47.8946 229.895 47.7071 229.707L39.7071 221.707C39.0771 221.077 38 221.523 38 222.414Z" fill="#276C4E"/>
<path d="M48 247V248H49V247H48ZM48 230.414H47H48ZM47.7071 229.707L47 230.414L47.7071 229.707ZM39.7071 221.707L40.4142 221L39.7071 221.707ZM37 222.414V237H39V222.414H37ZM48 246C43.0294 246 39 241.97 39 237H37C37 243.075 41.9249 248 48 248V246ZM49 247L49 230.414H47L47 247H49ZM49 230.414C49 229.884 48.7893 229.375 48.4142 229L47 230.414L47 230.414H49ZM48.4142 229L40.4142 221L39 222.414L47 230.414L48.4142 229ZM40.4142 221C39.1543 219.74 37 220.632 37 222.414H39V222.414L40.4142 221Z" fill="#44F1A6" mask="url(#path-81-inside-20_4242_249)"/>
<mask id="path-83-inside-21_4242_249" fill="white">
<path fill-rule="evenodd" clip-rule="evenodd" d="M82 222.414V237C82 242.523 77.5228 247 72 247L72 230.414C72 230.149 72.1054 229.895 72.2929 229.707L80.2929 221.707C80.9229 221.077 82 221.523 82 222.414Z"/>
</mask>
<path fill-rule="evenodd" clip-rule="evenodd" d="M82 222.414V237C82 242.523 77.5228 247 72 247L72 230.414C72 230.149 72.1054 229.895 72.2929 229.707L80.2929 221.707C80.9229 221.077 82 221.523 82 222.414Z" fill="#1D3F30"/>
<path d="M72 247V248H71V247H72ZM72 230.414H73H72ZM72.2929 229.707L73 230.414L72.2929 229.707ZM80.2929 221.707L79.5858 221L80.2929 221.707ZM83 222.414V237H81V222.414H83ZM72 246C76.9706 246 81 241.97 81 237H83C83 243.075 78.0751 248 72 248V246ZM71 247L71 230.414H73L73 247H71ZM71 230.414C71 229.884 71.2107 229.375 71.5858 229L73 230.414L73 230.414H71ZM71.5858 229L79.5858 221L81 222.414L73 230.414L71.5858 229ZM79.5858 221C80.8457 219.74 83 220.632 83 222.414H81V222.414L79.5858 221Z" fill="#44F1A6" mask="url(#path-83-inside-21_4242_249)"/>
<path d="M41.5 209.769C41.5 208.516 42.516 207.5 43.7692 207.5H76.2308C77.484 207.5 78.5 208.516 78.5 209.769C78.5 214.591 74.5911 218.5 69.7692 218.5H50.2308C45.4089 218.5 41.5 214.591 41.5 209.769Z" fill="#182922" stroke="#44F1A6"/>
<path d="M40.0341 192.823C40.6431 186.787 49.3492 182 60 182C70.6508 182 79.3569 186.787 79.9659 192.823C79.357 182.325 70.6508 174 60 174C49.3492 174 40.643 182.325 40.0341 192.823Z" fill="#1D3F30"/>
<circle cx="60" cy="194" r="19.5" fill="black" stroke="#44F1A6"/>
<mask id="path-88-inside-22_4242_249" fill="white">
<path fill-rule="evenodd" clip-rule="evenodd" d="M79.9093 192.082C78.9441 200.453 70.3989 207 60.0001 207C49.6013 207 41.0561 200.453 40.0908 192.082C41.0561 181.936 49.6013 174 60.0001 174C70.3989 174 78.9441 181.936 79.9093 192.082Z"/>
</mask>
<path fill-rule="evenodd" clip-rule="evenodd" d="M79.9093 192.082C78.9441 200.453 70.3989 207 60.0001 207C49.6013 207 41.0561 200.453 40.0908 192.082C41.0561 181.936 49.6013 174 60.0001 174C70.3989 174 78.9441 181.936 79.9093 192.082Z" fill="#182922"/>
<path d="M79.9093 192.082L80.9027 192.197L80.9148 192.092L80.9048 191.987L79.9093 192.082ZM40.0908 192.082L39.0953 191.987L39.0854 192.092L39.0974 192.197L40.0908 192.082ZM78.9159 191.968C78.0248 199.695 70.0433 206 60.0001 206V208C70.7544 208 79.8633 201.21 80.9027 192.197L78.9159 191.968ZM60.0001 206C49.9568 206 41.9754 199.695 41.0842 191.968L39.0974 192.197C40.1368 201.21 49.2458 208 60.0001 208V206ZM41.0863 192.177C42.0032 182.539 50.1218 175 60.0001 175V173C49.0808 173 40.1089 181.333 39.0953 191.987L41.0863 192.177ZM60.0001 175C69.8783 175 77.9969 182.539 78.9138 192.177L80.9048 191.987C79.8912 181.333 70.9194 173 60.0001 173V175Z" fill="#44F1A6" mask="url(#path-88-inside-22_4242_249)"/>
<path d="M40.3959 197.997C39.2959 197.263 38.5 195.772 38.5 194C38.5 192.228 39.2959 190.737 40.3959 190.003C40.6518 189.832 40.8814 189.867 41.0864 190.036C41.3161 190.224 41.5 190.584 41.5 191V197C41.5 197.416 41.3161 197.776 41.0864 197.964C40.8814 198.133 40.6518 198.168 40.3959 197.997Z" fill="#1D3F30" stroke="#44F1A6"/>
<path d="M79.6041 197.997C80.7041 197.263 81.5 195.772 81.5 194C81.5 192.228 80.7041 190.737 79.6041 190.003C79.3482 189.832 79.1186 189.867 78.9136 190.036C78.6839 190.224 78.5 190.584 78.5 191V197C78.5 197.416 78.6839 197.776 78.9136 197.964C79.1186 198.133 79.3482 198.168 79.6041 197.997Z" fill="#1D3F30" stroke="#44F1A6"/>
<path d="M53.2332 186.352C51.8641 188.723 49.3874 189.597 47.7748 188.666C46.1622 187.735 45.6804 185.153 47.0495 182.782C48.4186 180.411 50.8953 179.537 52.5079 180.468C54.1205 181.399 54.6023 183.981 53.2332 186.352Z" fill="#1D3F30" stroke="#44F1A6"/>
<path d="M60.7354 179.376C60.9709 180.255 60.273 181.39 58.8827 181.763C57.4924 182.135 56.3205 181.501 56.0849 180.622C55.8494 179.743 56.5473 178.608 57.9376 178.235C59.3279 177.863 60.4999 178.497 60.7354 179.376Z" fill="#1D3F30" stroke="#44F1A6"/>
<rect x="41.5" y="213.5" width="36" height="46" rx="9.5" fill="#1D3F30" stroke="#44F1A6"/>
<rect x="41.5" y="217.5" width="36" height="42" rx="9.5" fill="black" stroke="#44F1A6"/>
<rect x="59" y="239" width="1" height="20" fill="#44F1A6"/>
<path d="M59 221V233H60V221H59ZM62.5 236.5H74V235.5H62.5V236.5ZM59 233C59 234.933 60.567 236.5 62.5 236.5V235.5C61.1193 235.5 60 234.381 60 233H59Z" fill="#44F1A6"/>
<path d="M67.4925 229.115L67.4886 230.846C65.3247 230.846 63.5745 229.09 63.5794 226.923C63.5843 224.756 65.3424 223 67.5062 223C66.1061 223 64.9685 224.137 64.9654 225.538C64.9636 226.327 65.3208 227.031 65.8828 227.497C65.8828 227.498 65.8828 227.499 65.8828 227.5C65.8808 228.392 66.6015 229.115 67.4925 229.115Z" fill="#44F1A6"/>
<path d="M65.8828 227.5H64.1543C64.1592 225.333 65.9173 223.577 68.0811 223.577C70.245 223.577 71.9952 225.333 71.9903 227.5C71.9934 226.098 70.861 224.962 69.4608 224.962C68.6736 224.962 67.9693 225.321 67.5031 225.885C67.502 225.885 67.5009 225.885 67.4998 225.885C66.6088 225.885 65.8848 226.608 65.8828 227.5Z" fill="#44F1A6"/>
<path d="M67.4998 225.885L67.5037 224.154C69.6675 224.154 71.4177 225.91 71.4128 228.077C71.4079 230.244 69.6498 232 67.486 232C68.8861 232 70.0237 230.863 70.0269 229.462C70.0286 228.673 69.6714 227.969 69.1094 227.503C69.1094 227.502 69.1094 227.501 69.1094 227.5C69.1114 226.608 68.3907 225.885 67.4998 225.885Z" fill="#44F1A6"/>
<path d="M69.1094 227.5H70.8379C70.833 229.667 69.0749 231.423 66.9111 231.423C64.7473 231.423 62.9971 229.667 63.0019 227.5C62.9988 228.902 64.1313 230.038 65.5314 230.038C66.3187 230.038 67.0229 229.679 67.4892 229.115C67.4903 229.115 67.4914 229.115 67.4925 229.115C68.3835 229.115 69.1074 228.392 69.1094 227.5Z" fill="#44F1A6"/>
</svg>
